<svg width="24" height="24" viewBox="0 0 24 24" fill="none" xmlns="http://www.w3.org/2000/svg">
<path d="M14.113 11.9987L20.5567 5.56902C20.8389 5.2868 20.9974 4.90402 20.9974 4.5049C20.9974 4.10577 20.8389 3.723 20.5567 3.44077C20.2745 3.15855 19.8918 3 19.4928 3C19.0937 3 18.711 3.15855 18.4288 3.44077L12 9.88546L5.57121 3.44077C5.28903 3.15855 4.90631 3 4.50724 3C4.10817 3 3.72545 3.15855 3.44327 3.44077C3.16109 3.723 3.00256 4.10577 3.00256 4.5049C3.00256 4.90402 3.16109 5.2868 3.44327 5.56902L9.88704 11.9987L3.44327 18.4284C3.30281 18.5678 3.19133 18.7335 3.11525 18.9162C3.03917 19.0988 3 19.2947 3 19.4925C3 19.6904 3.03917 19.8863 3.11525 20.0689C3.19133 20.2516 3.30281 20.4173 3.44327 20.5567C3.58258 20.6971 3.74832 20.8086 3.93093 20.8847C4.11355 20.9608 4.30941 21 4.50724 21C4.70507 21 4.90094 20.9608 5.08355 20.8847C5.26616 20.8086 5.4319 20.6971 5.57121 20.5567L12 14.112L18.4288 20.5567C18.5681 20.6971 18.7338 20.8086 18.9165 20.8847C19.0991 20.9608 19.2949 21 19.4928 21C19.6906 21 19.8865 20.9608 20.0691 20.8847C20.2517 20.8086 20.4174 20.6971 20.5567 20.5567C20.6972 20.4173 20.8087 20.2516 20.8848 20.0689C20.9608 19.8863 21 19.6904 21 19.4925C21 19.2947 20.9608 19.0988 20.8848 18.9162C20.8087 18.7335 20.6972 18.5678 20.5567 18.4284L14.113 11.9987Z" fill="#D5DEE3"/>
</svg>
