<svg width="16" height="16" viewBox="0 0 16 16" fill="none" xmlns="http://www.w3.org/2000/svg">
<path d="M9.33314 3.33272C9.4889 3.33242 9.63986 3.38667 9.7598 3.48605C9.82731 3.54202 9.88311 3.61076 9.92401 3.68832C9.96491 3.76588 9.99011 3.85076 9.99816 3.93807C10.0062 4.02539 9.99696 4.11344 9.97093 4.19718C9.9449 4.28091 9.9026 4.35869 9.84647 4.42605L6.8598 7.99939L9.7398 11.5794C9.79518 11.6476 9.83653 11.726 9.86149 11.8103C9.88644 11.8945 9.89451 11.9828 9.88521 12.0702C9.87592 12.1575 9.84946 12.2422 9.80734 12.3193C9.76522 12.3964 9.70829 12.4644 9.6398 12.5194C9.57083 12.5801 9.49005 12.6259 9.40254 12.6539C9.31503 12.6818 9.22268 12.6914 9.13129 12.6821C9.03989 12.6727 8.95142 12.6445 8.87143 12.5993C8.79145 12.5541 8.72167 12.4928 8.66647 12.4194L5.44647 8.41939C5.34841 8.3001 5.29481 8.15047 5.29481 7.99606C5.29481 7.84164 5.34841 7.69201 5.44647 7.57272L8.7798 3.57272C8.84668 3.49204 8.93164 3.42827 9.02778 3.38657C9.12392 3.34487 9.22853 3.32642 9.33314 3.33272Z" fill="#999999"/>
</svg>
