<svg width="24" height="24" viewBox="0 0 24 24" fill="none" xmlns="http://www.w3.org/2000/svg">
<path d="M4.99811 9.99981C4.99765 9.76615 5.07902 9.53972 5.22811 9.35981C5.31205 9.25855 5.41516 9.17485 5.5315 9.11349C5.64785 9.05214 5.77516 9.01435 5.90613 9.00227C6.03711 8.99019 6.16918 9.00408 6.29479 9.04312C6.42039 9.08217 6.53706 9.1456 6.63811 9.22981L11.9981 13.7098L17.3681 9.38981C17.4704 9.30674 17.5881 9.24471 17.7144 9.20728C17.8408 9.16985 17.9733 9.15775 18.1043 9.17169C18.2353 9.18563 18.3623 9.22533 18.4779 9.2885C18.5936 9.35168 18.6956 9.43708 18.7781 9.53981C18.8691 9.64327 18.9378 9.76444 18.9798 9.8957C19.0218 10.027 19.0362 10.1655 19.0221 10.3026C19.008 10.4397 18.9658 10.5724 18.898 10.6924C18.8301 10.8123 18.7383 10.917 18.6281 10.9998L12.6281 15.8298C12.4492 15.9769 12.2247 16.0573 11.9931 16.0573C11.7615 16.0573 11.537 15.9769 11.3581 15.8298L5.35811 10.8298C5.23709 10.7295 5.14143 10.6021 5.07888 10.4578C5.01633 10.3136 4.98866 10.1567 4.99811 9.99981Z" fill="#333333"/>
</svg>
