<svg width="8" height="16" viewBox="0 0 8 16" fill="none" xmlns="http://www.w3.org/2000/svg">
<path d="M7.00125 8.00046C7.00171 8.23411 6.92033 8.46054 6.77125 8.64046L1.77125 14.6405C1.60151 14.8447 1.3576 14.9731 1.09318 14.9975C0.82875 15.0219 0.565469 14.9402 0.361252 14.7705C0.157035 14.6007 0.0286112 14.3568 0.00423148 14.0924C-0.0201483 13.828 0.0615132 13.5647 0.231252 13.3605L4.71125 8.00046L0.391252 2.64046C0.308186 2.53817 0.246154 2.42047 0.208723 2.29413C0.171291 2.16779 0.159197 2.0353 0.173136 1.90427C0.187075 1.77325 0.226772 1.64626 0.289946 1.53063C0.35312 1.41499 0.438525 1.31298 0.541252 1.23046C0.644073 1.13888 0.764699 1.06952 0.895573 1.02672C1.02645 0.983932 1.16475 0.968629 1.30181 0.981772C1.43887 0.994915 1.57175 1.03622 1.6921 1.1031C1.81246 1.16999 1.91771 1.26101 2.00125 1.37046L6.83125 7.37046C6.95677 7.55554 7.01662 7.77736 7.00125 8.00046Z" fill="#333333"/>
</svg>
