<svg width="20" height="20" viewBox="0 0 20 20" fill="none" xmlns="http://www.w3.org/2000/svg">
<path fill-rule="evenodd" clip-rule="evenodd" d="M3.55797 3.57811C3.702 3.43447 3.89724 3.35379 4.1008 3.35379C4.30437 3.35379 4.49961 3.43447 4.64364 3.57811L9.99006 8.91659L15.3365 3.57811C15.4068 3.50275 15.4916 3.44231 15.5858 3.40039C15.6801 3.35846 15.7818 3.33592 15.8849 3.3341C15.9881 3.33229 16.0905 3.35123 16.1862 3.38981C16.2818 3.42839 16.3687 3.4858 16.4417 3.55864C16.5146 3.63148 16.5721 3.71823 16.6107 3.81374C16.6494 3.90925 16.6683 4.01155 16.6665 4.11454C16.6647 4.21753 16.6421 4.31909 16.6001 4.41318C16.5582 4.50727 16.4976 4.59195 16.4222 4.66217L11.0757 10.0007L16.4222 15.3391C16.4976 15.4094 16.5582 15.494 16.6001 15.5881C16.6421 15.6822 16.6647 15.7838 16.6665 15.8868C16.6683 15.9898 16.6494 16.0921 16.6107 16.1876C16.5721 16.2831 16.5146 16.3698 16.4417 16.4427C16.3687 16.5155 16.2818 16.5729 16.1862 16.6115C16.0905 16.6501 15.9881 16.669 15.8849 16.6672C15.7818 16.6654 15.6801 16.6428 15.5858 16.6009C15.4916 16.559 15.4068 16.4986 15.3365 16.4232L9.99006 11.0847L4.64364 16.4232C4.49802 16.5587 4.30542 16.6324 4.10641 16.6289C3.9074 16.6254 3.71753 16.5449 3.57679 16.4044C3.43605 16.2639 3.35543 16.0743 3.35192 15.8756C3.34841 15.6768 3.42228 15.4845 3.55797 15.3391L8.90439 10.0007L3.55797 4.66217C3.41411 4.51835 3.33331 4.3234 3.33331 4.12014C3.33331 3.91688 3.41411 3.72193 3.55797 3.57811Z" fill="white"/>
</svg>
