<svg width="24" height="24" viewBox="0 0 24 24" fill="none" xmlns="http://www.w3.org/2000/svg">
<path fill-rule="evenodd" clip-rule="evenodd" d="M4.26958 4.29295C4.44242 4.12059 4.67671 4.02377 4.92099 4.02377C5.16526 4.02377 5.39955 4.12059 5.57239 4.29295L11.9881 10.6991L18.4038 4.29295C18.4882 4.20252 18.59 4.12999 18.703 4.07968C18.8161 4.02937 18.9382 4.00232 19.0619 4.00014C19.1857 3.99796 19.3087 4.0207 19.4234 4.06699C19.5382 4.11328 19.6425 4.18218 19.73 4.26959C19.8175 4.35699 19.8866 4.4611 19.9329 4.57571C19.9793 4.69032 20.002 4.81308 19.9999 4.93667C19.9977 5.06025 19.9706 5.18213 19.9202 5.29504C19.8698 5.40794 19.7972 5.50956 19.7066 5.59382L13.2909 12L19.7066 18.4062C19.7972 18.4904 19.8698 18.5921 19.9202 18.705C19.9706 18.8179 19.9977 18.9398 19.9999 19.0633C20.002 19.1869 19.9793 19.3097 19.9329 19.4243C19.8866 19.5389 19.8175 19.643 19.73 19.7304C19.6425 19.8178 19.5382 19.8867 19.4234 19.933C19.3087 19.9793 19.1857 20.002 19.0619 19.9999C18.9382 19.9977 18.8161 19.9706 18.703 19.9203C18.59 19.87 18.4882 19.7975 18.4038 19.7071L11.9881 13.3009L5.57239 19.7071C5.39765 19.8696 5.16653 19.9581 4.92772 19.9539C4.68891 19.9497 4.46106 19.8531 4.29217 19.6845C4.12328 19.5159 4.02654 19.2883 4.02233 19.0499C4.01811 18.8114 4.10676 18.5807 4.26958 18.4062L10.6853 12L4.26958 5.59382C4.09696 5.42124 4 5.1873 4 4.94339C4 4.69947 4.09696 4.46553 4.26958 4.29295Z" fill="#1C77C3"/>
</svg>
