<svg width="9" height="22" viewBox="0 0 9 22" fill="none" xmlns="http://www.w3.org/2000/svg">
<path d="M5.717 12.7855C5.587 12.8808 5.43317 12.9523 5.2555 13C5.07783 13.052 4.8915 13.078 4.6965 13.078C4.44517 13.078 4.23283 13.039 4.0595 12.961C3.88617 12.8787 3.74317 12.7638 3.6305 12.6165C3.52217 12.4648 3.442 12.285 3.39 12.077C3.34233 11.8647 3.3185 11.6307 3.3185 11.375C3.3185 10.8247 3.43983 10.4043 3.6825 10.114C3.92517 9.81933 4.274 9.672 4.729 9.672C4.937 9.672 5.1125 9.68933 5.2555 9.724C5.40283 9.75433 5.535 9.79983 5.652 9.8605L5.5025 10.309C5.40283 10.2527 5.29233 10.2093 5.171 10.179C5.04967 10.1443 4.91967 10.127 4.781 10.127C4.16567 10.127 3.858 10.543 3.858 11.375C3.858 11.5397 3.87317 11.6978 3.9035 11.8495C3.93817 11.9968 3.99233 12.129 4.066 12.246C4.144 12.3587 4.24367 12.4497 4.365 12.519C4.49067 12.5883 4.6445 12.623 4.8265 12.623C4.9825 12.623 5.12117 12.5992 5.2425 12.5515C5.36817 12.5038 5.47 12.4497 5.548 12.389L5.717 12.7855Z" fill="#999999"/>
<circle cx="4.5" cy="11.5" r="4" stroke="#999999"/>
</svg>
