<svg width="96" height="40" viewBox="0 0 96 40" fill="none" xmlns="http://www.w3.org/2000/svg">
<path d="M96 19.9208C96 17.6193 95.0537 15.3675 93.2235 13.2371L93.1569 13.1583C93.0747 13.0668 92.9924 12.977 92.9102 12.8863C90.516 10.2403 86.771 7.82134 81.8181 5.77849C72.7815 2.0531 60.7694 0 48.0016 0C35.2339 0 23.2193 2.04995 14.1786 5.78243C9.28905 7.79769 5.57688 10.1788 3.17939 12.783C1.08364 15.0458 0 17.4553 0 19.9208V19.9988C0 25.3981 5.03424 30.448 14.1753 34.2176C23.2193 37.9469 35.2282 40 47.9984 40C60.7685 40 72.7815 37.9501 81.8214 34.2176C90.7758 30.5261 95.7862 25.6054 95.9893 20.3315V20.2235C95.9893 20.1447 95.9959 20.0737 95.9959 19.9988V19.972C95.9959 19.9633 96 19.9397 96 19.9208ZM81.5295 6.43841C82.9505 7.02077 84.3386 7.67423 85.6881 8.39611C84.1068 8.6379 82.5258 8.86445 80.945 9.07575C77.6825 6.96036 73.325 5.11935 67.9635 3.60002C67.1611 3.37292 66.355 3.15817 65.5454 2.95587C66.5913 2.6192 67.1429 2.38346 67.1627 2.37479C72.4518 3.33747 77.315 4.70384 81.5254 6.44314L81.5295 6.43841ZM33.2771 5.16981C33.9859 4.87257 34.6962 4.5911 35.4008 4.3246C36.4549 4.51777 37.6207 4.6999 38.8844 4.85838L38.7891 4.92618C36.2329 6.7735 34.1791 8.78481 32.6761 10.9049C29.867 10.7294 27.065 10.5031 24.2701 10.2261C26.5911 8.40479 29.6118 6.70727 33.2771 5.16981ZM23.2333 10.1236C20.8216 9.87444 18.4156 9.58797 16.0154 9.26419C19.1397 7.33408 23.2391 5.64603 28.2199 4.23551C29.2575 3.94142 30.2959 3.67098 31.3236 3.42184C32.0981 3.62683 33.0157 3.84838 34.0672 4.06599C33.7077 4.20896 33.3478 4.35561 32.9877 4.50594C28.9541 6.19715 25.6785 8.08468 23.2333 10.1236ZM39.2256 5.51121C39.475 5.33092 39.7244 5.15588 39.9738 4.9861C41.3715 5.13827 42.8819 5.2589 44.4958 5.33065L44.4136 5.4978C43.5282 7.35983 42.8162 9.29325 42.2858 11.2755C40.9637 11.2555 39.6858 11.2292 38.452 11.1967C36.8207 11.1346 35.1912 11.0558 33.5632 10.9601C35.2306 8.71701 37.3132 6.89413 39.2256 5.51121ZM45.3254 5.36298C46.1476 5.39031 46.9947 5.4045 47.8668 5.40555C48.8167 5.40555 49.7348 5.38847 50.6211 5.35431C51.5694 7.25889 52.3313 9.24376 52.8969 11.2834C51.286 11.3055 49.6093 11.3168 47.8668 11.3173C46.206 11.3173 44.6057 11.307 43.0661 11.2865C43.627 9.24941 44.3834 7.26644 45.3254 5.36298ZM51.5634 5.55851C51.5247 5.47967 51.4852 5.40082 51.4466 5.31804C53.0326 5.23919 54.5101 5.11304 55.8724 4.95457C56.161 5.1501 56.448 5.34879 56.7398 5.56167C58.6243 6.92252 60.6748 8.70992 62.3307 10.9041C59.8154 11.0582 57.3102 11.1741 54.8151 11.2518L53.6747 11.2716C53.1459 9.31158 52.4394 7.40048 51.5634 5.55851ZM57.192 4.98689C57.1098 4.93012 57.035 4.87493 56.9561 4.81974C58.1704 4.65732 59.2845 4.47204 60.2933 4.2773C61.0994 4.5777 61.8992 4.89314 62.6925 5.22342C66.2838 6.72935 69.2568 8.38902 71.5597 10.1685C68.7709 10.4413 65.9908 10.6668 63.2195 10.845C61.7256 8.76905 59.7005 6.79952 57.192 4.98689ZM62.9934 4.56587C62.5324 4.37243 62.0714 4.18557 61.6105 4.00528C62.5971 3.79004 63.4522 3.57164 64.1806 3.36743C65.3646 3.64812 66.5649 3.9564 67.7612 4.29543C72.6615 5.68309 76.7041 7.3396 79.812 9.23029C77.4057 9.54251 75.0022 9.82083 72.6014 10.0652C70.1727 8.07128 66.9473 6.22396 62.9934 4.56587ZM65.7518 2.13037C65.3407 2.2715 64.8079 2.44023 64.1666 2.62315C61.0514 1.89147 58.0553 1.35218 55.5074 0.962688C58.9409 1.18208 62.3603 1.57183 65.7518 2.13037ZM62.667 3.02131C61.9027 3.20941 61.1337 3.3795 60.3607 3.53143C58.0257 2.66966 55.7721 1.97899 53.8457 1.44679C56.332 1.79449 59.4062 2.30225 62.667 3.02131ZM58.9466 3.79083C58.057 3.94221 57.0967 4.08413 56.0689 4.20791C54.6072 3.2386 53.0822 2.36005 51.5033 1.57767C53.4889 2.07203 56.124 2.8037 58.9466 3.79083ZM54.9269 4.33485C53.6524 4.46468 52.3742 4.55802 51.0939 4.61475C50.4964 3.45181 49.8205 2.32747 49.0705 1.24889C51.1056 2.12534 53.064 3.15784 54.9269 4.33485ZM50.2577 4.65023C49.4849 4.67598 48.6879 4.68913 47.8668 4.68965C47.1214 4.68965 46.3948 4.67914 45.6872 4.65811C46.348 3.38359 47.1105 2.15997 47.9679 0.998167C48.8285 2.15554 49.5941 3.37524 50.2577 4.64629V4.65023ZM44.8502 4.625C43.4591 4.56981 42.1477 4.47756 40.9185 4.35929C42.8211 3.14631 44.8247 2.08569 46.909 1.18818C46.1436 2.28851 45.4558 3.43668 44.8502 4.625ZM39.7732 4.24024C38.6962 4.11882 37.6898 3.97848 36.7566 3.82788C39.682 2.79108 42.4256 2.02866 44.4769 1.51696C42.8482 2.32387 41.2762 3.23363 39.7732 4.24024ZM35.3252 3.57953C34.4159 3.41001 33.5912 3.23498 32.8586 3.06231C36.2888 2.28963 39.534 1.75034 42.1354 1.38687C40.1276 1.9443 37.7646 2.6673 35.3252 3.57953ZM39.7839 1.00999C37.2565 1.41052 34.341 1.95612 31.3302 2.67755C30.6946 2.50567 30.1652 2.34719 29.7475 2.21316C33.0696 1.64777 36.4189 1.24619 39.7839 1.00999ZM14.4713 6.44314C18.5403 4.76534 23.2226 3.43051 28.3087 2.47334V2.47728C28.3284 2.48517 28.8842 2.70751 29.9325 3.02919C29.2956 3.19319 28.6575 3.36533 28.0184 3.54562C22.5838 5.08387 18.1769 6.95484 14.9038 9.11281C13.3602 8.89678 11.8214 8.6655 10.2872 8.41898C11.6447 7.69028 13.0413 7.03075 14.4713 6.44314ZM14.4713 33.5592C12.9917 32.9522 11.548 32.2679 10.1466 31.5093C11.712 31.278 13.2821 31.0614 14.8569 30.8596C18.1358 33.0302 22.5575 34.9114 28.0168 36.4575C28.6482 36.6362 29.2786 36.8065 29.9078 36.9684C28.8743 37.2838 28.3243 37.5022 28.3054 37.5109L28.3128 37.5282C23.2267 36.5734 18.5419 35.2386 14.4713 33.5608V33.5592ZM62.7015 34.663C61.8431 35.0273 60.9831 35.3679 60.1338 35.688C59.1546 35.5027 58.0784 35.3253 56.9067 35.1692C57.0021 35.1014 57.0967 35.0352 57.1912 34.9658C59.6389 33.1926 61.6261 31.2704 63.111 29.2465C65.845 29.4041 68.5856 29.6062 71.3328 29.8528C69.0652 31.5716 66.1719 33.1855 62.7023 34.6599L62.7015 34.663ZM72.3942 29.9466C74.9326 30.1821 77.4748 30.4528 80.0208 30.7587C76.8875 32.6975 72.7757 34.3895 67.7703 35.8C66.6348 36.1201 65.4969 36.4118 64.373 36.6799C63.5673 36.4496 62.5922 36.1997 61.4559 35.9537C61.9678 35.7519 62.4812 35.5416 62.9958 35.323C66.8363 33.6909 69.991 31.8846 72.3951 29.9434L72.3942 29.9466ZM56.7555 34.3768C56.4438 34.6023 56.1322 34.8199 55.8223 35.0297C54.487 34.872 53.0433 34.7521 51.4943 34.6749C51.5387 34.5795 51.5847 34.4841 51.63 34.3871C52.4606 32.5988 53.1352 30.7475 53.6468 28.8522C56.4893 28.9185 59.3431 29.0302 62.2082 29.1873C60.5811 31.3098 58.5881 33.0467 56.7555 34.3768ZM50.6713 34.6386C49.7685 34.6034 48.8337 34.5858 47.8668 34.5858C46.9969 34.5858 46.1525 34.5997 45.3337 34.6276C44.4179 32.7582 43.6775 30.8144 43.1212 28.8191C44.6011 28.7939 46.081 28.7805 47.561 28.7789C49.3248 28.7789 51.0947 28.7978 52.8706 28.8357C52.3185 30.8286 51.5819 32.7706 50.6713 34.6386ZM44.3495 34.3232C44.4021 34.436 44.4547 34.5464 44.5065 34.6559C42.9641 34.7245 41.5195 34.8373 40.1769 34.9784C39.8601 34.765 39.5427 34.5432 39.2248 34.313C37.3955 32.9908 35.4123 31.2609 33.7877 29.1455C36.6379 28.9936 39.4901 28.8885 42.3442 28.8302C42.8539 30.7123 43.5249 32.5509 44.3503 34.3272L44.3495 34.3232ZM38.7882 34.9012L39.0785 35.1077C37.8879 35.2528 36.7862 35.4231 35.7799 35.5981C34.9527 35.2828 34.1149 34.954 33.2788 34.5984C29.8174 33.1279 26.929 31.5179 24.6631 29.7991C27.396 29.5558 30.1367 29.3555 32.8849 29.1984C34.3641 31.216 36.348 33.1327 38.7882 34.9012ZM32.9861 35.2599C33.4673 35.4649 33.948 35.662 34.4282 35.8512C33.213 36.0949 32.1672 36.3448 31.3039 36.575C30.2734 36.3269 29.2484 36.0579 28.2297 35.7684C23.2284 34.3492 19.1183 32.6572 15.9849 30.7185C18.5134 30.4031 21.0515 30.1277 23.5992 29.8922C26.0008 31.831 29.1514 33.6318 32.9861 35.2599ZM29.7236 37.7829C30.1405 37.6497 30.6692 37.4904 31.3072 37.3169C34.3262 38.0439 37.2508 38.5887 39.7847 38.99C36.4114 38.7543 33.0529 38.352 29.7228 37.7845L29.7236 37.7829ZM32.8299 36.9322C33.6701 36.7343 34.6296 36.5316 35.7018 36.3393C38.2526 37.2826 40.8512 38.1023 43.4878 38.7953C40.7006 38.4389 36.8956 37.8507 32.829 36.9338L32.8299 36.9322ZM37.1537 36.0972C38.0335 35.9616 38.9765 35.8355 39.9788 35.7251C41.4047 36.6693 42.8905 37.5275 44.4276 38.2946C42.4733 37.7987 39.9056 37.0709 37.1529 36.0988L37.1537 36.0972ZM41.1364 35.6107C42.3039 35.5027 43.5462 35.4184 44.8568 35.3663C45.4177 36.4753 46.0493 37.5501 46.7478 38.5847C44.8008 37.7324 42.9249 36.7382 41.1364 35.6107ZM45.6913 35.3372C46.3973 35.3167 47.1222 35.3061 47.866 35.3056C48.7079 35.3056 49.5241 35.3198 50.3145 35.3482C49.3097 37.2838 48.3971 38.5682 48.0123 39.0775C47.6629 38.6171 46.7289 37.3256 45.6913 35.3356V35.3372ZM51.1473 35.3797C52.4628 35.4397 53.7101 35.5374 54.8743 35.6517C53.0775 36.7877 51.1921 37.7894 49.2349 38.6478C49.9426 37.5974 50.5813 36.5064 51.1473 35.3797ZM56.018 35.7787C57.0046 35.897 57.9295 36.031 58.7887 36.1729C56.0517 37.138 53.498 37.861 51.5535 38.3569C53.0961 37.5868 54.5872 36.7252 56.018 35.7771V35.7787ZM60.2062 36.4307C61.2035 36.6239 62.0972 36.825 62.875 37.0221C59.0929 37.8586 55.5493 38.4105 52.8682 38.7566C54.9475 38.1992 57.5184 37.4242 60.2053 36.4292L60.2062 36.4307ZM56.3575 38.9829C58.7649 38.6013 61.5143 38.0936 64.3566 37.4234C64.9247 37.5889 65.3991 37.7388 65.7757 37.8696C62.7508 38.3703 59.5945 38.7456 56.3567 38.9813L56.3575 38.9829ZM81.5254 33.5608C77.3142 35.2954 72.4477 36.6657 67.1586 37.6292L67.166 37.6134C67.1479 37.6055 66.657 37.3958 65.7255 37.0899C66.4726 36.9012 67.2224 36.7014 67.975 36.4906C73.4483 34.9492 77.879 33.068 81.1587 30.8927C82.7203 31.0867 84.2825 31.294 85.8452 31.5148C84.4454 32.2721 83.0033 32.9551 81.5254 33.5608ZM95.2469 19.976V20.3063C95.0644 24.1137 92.1415 27.7736 86.7652 30.9195C86.7192 30.9124 86.6731 30.9069 86.6271 30.8998C85.1011 30.6806 83.5749 30.4741 82.0483 30.2801C81.6899 30.2344 81.3298 30.191 80.9713 30.1476C78.3699 29.827 75.7701 29.5432 73.172 29.2961C72.8349 29.2638 72.4962 29.2307 72.1583 29.1991C69.3004 28.9363 66.4482 28.7208 63.6018 28.5526C63.3091 28.5345 63.0172 28.5164 62.7253 28.5006C59.7523 28.3303 56.7908 28.2102 53.8408 28.1403L53.0712 28.1221C51.2317 28.0832 49.3985 28.0633 47.5716 28.0622C46.0276 28.0622 44.483 28.0764 42.9378 28.1048C42.6813 28.1095 42.4248 28.1158 42.1674 28.1213C39.2048 28.1834 36.2449 28.2956 33.2878 28.458C32.9951 28.4738 32.7032 28.4927 32.4105 28.51C29.5532 28.6777 26.7029 28.8919 23.8598 29.1526C23.5211 29.1834 23.1823 29.2165 22.8436 29.2488C20.2406 29.4985 17.6468 29.7876 15.0624 30.1161C14.704 30.1618 14.3455 30.2052 13.987 30.2525C12.4523 30.4543 10.9205 30.6701 9.39182 30.8998L9.25287 30.9195C3.8059 27.7382 0.881383 24.0325 0.755588 20.1809C0.755588 20.1076 0.750655 20.0343 0.750655 19.961V19.9231V19.8214C0.776965 17.8582 1.55311 15.9242 3.03797 14.0721L3.1613 13.9184L3.27476 13.7812C4.67906 12.1215 6.65559 10.5296 9.17559 9.04342L9.27507 8.98429C10.852 9.24395 12.4345 9.48758 14.0224 9.71518C14.3759 9.76564 14.7311 9.81294 15.0855 9.86261C17.5438 10.2032 20.012 10.5052 22.4901 10.7685C22.8189 10.8032 23.1478 10.8403 23.4767 10.8742C26.3757 11.1691 29.2846 11.4095 32.2034 11.5956C32.4928 11.6145 32.7789 11.635 33.0716 11.6524C34.8404 11.7575 36.6114 11.8442 38.3845 11.9126C39.62 11.9593 40.8558 11.9969 42.0918 12.0253C42.3483 12.0316 42.6048 12.0371 42.8613 12.0419C44.3753 12.0708 45.8895 12.0858 47.4039 12.0868C49.2895 12.0868 51.1835 12.0632 53.086 12.0158L53.8556 11.9969C54.1845 11.9883 54.506 11.9812 54.8324 11.9701C57.482 11.8881 60.1434 11.7622 62.8166 11.5925C63.1066 11.5741 63.3965 11.5554 63.6865 11.5365C66.5663 11.3451 69.4552 11.1039 72.3531 10.8127L73.3504 10.7094C75.8126 10.4524 78.2792 10.1596 80.7501 9.83108C81.1086 9.78298 81.4687 9.73725 81.8272 9.68758C83.4496 9.46524 85.0732 9.22871 86.6978 8.97798L86.8113 9.04579C89.3641 10.5525 91.3604 12.1664 92.7672 13.8498C92.7779 13.8624 92.7894 13.8742 92.7992 13.8868C92.8609 13.9609 92.9193 14.035 92.9776 14.1084C93.0549 14.2054 93.1298 14.3023 93.2038 14.3993C93.2169 14.4182 93.2309 14.4364 93.244 14.4545C94.5398 16.1891 95.2173 17.9954 95.2411 19.8246V19.9263C95.2494 19.9397 95.2485 19.957 95.2477 19.9744L95.2469 19.976ZM15.0986 13.3901C14.699 13.1772 14.0002 13.0266 12.9741 12.9297C12.5375 12.8626 12.0968 12.8059 11.666 12.7507L11.5303 12.7325C11.2837 12.701 11.0329 12.6695 10.7805 12.6348C10.5527 12.604 10.325 12.5725 10.0989 12.5378C10.0726 12.5337 10.0457 12.5351 10.02 12.542C9.99436 12.5488 9.97056 12.561 9.95029 12.5776C9.93002 12.5942 9.91377 12.6148 9.90266 12.638C9.89154 12.6612 9.88585 12.6865 9.88596 12.712V27.0956C9.88617 27.1424 9.90565 27.1872 9.94014 27.2202C9.97463 27.2533 10.0213 27.272 10.0701 27.2722C10.0805 27.2729 10.091 27.2729 10.1014 27.2722C10.2773 27.243 10.4549 27.2186 10.6317 27.1933L10.977 27.1484C11.1521 27.1271 11.3305 27.1035 11.5098 27.079C11.6298 27.0625 11.7507 27.0459 11.8707 27.0254C11.9135 27.0182 11.9522 26.9968 11.9802 26.9649C12.0081 26.9331 12.0235 26.8928 12.0236 26.8512V21.7902C12.1601 21.7854 12.3024 21.7775 12.4405 21.7689C12.637 21.7563 12.8401 21.7444 13.0275 21.7444C13.8119 21.7074 14.8495 21.5946 15.3354 21.2714C15.7492 20.9868 16.0872 20.6127 16.322 20.1794C16.3853 20.069 16.4462 19.9547 16.5029 19.8325L16.5087 19.8198C16.8104 19.2127 16.9633 18.4188 16.9633 17.4545C16.9633 16.3436 16.7931 15.5094 16.4314 14.8385C16.1165 14.1651 15.6404 13.6463 15.0986 13.3901ZM14.565 18.3825C14.559 18.3908 14.5535 18.3995 14.5486 18.4085C14.4121 18.6813 14.2846 18.8438 14.1136 18.9604C13.8349 19.0472 13.4041 19.0897 12.7981 19.0897H12.0245V15.4881C12.1067 15.4929 12.1831 15.4992 12.267 15.5063C12.4117 15.5181 12.5613 15.5307 12.7126 15.5315L12.859 15.5504C13.4575 15.6293 13.8522 15.6813 14.0216 15.7933C14.0301 15.799 14.0392 15.804 14.0487 15.8083C14.2263 15.8871 14.4178 16.0984 14.542 16.3515C14.6867 16.6874 14.8224 17.0043 14.8224 17.4088C14.8256 17.8495 14.7467 18.1405 14.565 18.3825ZM25.0512 14.1509L24.1377 14.0784C23.822 14.054 23.5055 14.0295 23.2078 14.0043C23.1653 14.0006 23.1228 14.0112 23.0877 14.0344C23.0525 14.0576 23.027 14.0919 23.0154 14.1312C22.4884 15.88 21.9466 17.6792 21.4064 19.5439C20.923 18.146 20.4436 16.6889 19.9322 15.064C19.8347 14.7523 19.7355 14.434 19.6346 14.1092L19.5351 13.7875C19.5252 13.7553 19.506 13.7265 19.4796 13.7044C19.4533 13.6824 19.4209 13.668 19.3863 13.6629C19.0517 13.6132 18.7121 13.5762 18.3841 13.5399C18.056 13.5036 17.7263 13.4666 17.3974 13.4185C17.3664 13.414 17.3347 13.4171 17.3053 13.4276C17.2759 13.4381 17.2498 13.4557 17.2295 13.4786C17.2091 13.5015 17.1952 13.529 17.1891 13.5585C17.1829 13.588 17.1848 13.6185 17.1944 13.6471C17.5528 14.7184 17.9324 15.8132 18.3331 16.9318C18.4838 17.3523 18.6387 17.7794 18.7976 18.213C18.9911 18.7413 19.1898 19.2777 19.3937 19.8222C19.4389 19.9421 19.4825 20.0587 19.5285 20.1817C19.8152 20.9418 20.1131 21.7184 20.4223 22.5116C20.3309 22.9532 20.1692 23.3787 19.9429 23.7731C19.8507 23.8711 19.7283 23.9385 19.5935 23.9655C19.4653 23.9992 19.3344 24.0229 19.2021 24.0364H18.5493C18.5251 24.0363 18.5011 24.0408 18.4787 24.0497C18.4563 24.0585 18.436 24.0715 18.4189 24.0879C18.4017 24.1043 18.3882 24.1239 18.379 24.1453C18.3697 24.1668 18.365 24.1898 18.3652 24.213V26.0706C18.3651 26.1132 18.3812 26.1544 18.4103 26.1866C18.4395 26.2188 18.4798 26.2397 18.5238 26.2456C18.7183 26.2717 18.9145 26.2846 19.1109 26.2843C19.3233 26.2836 19.5355 26.2709 19.7464 26.2464C19.8451 26.2368 19.9428 26.2192 20.0383 26.1936C20.2845 26.1304 20.512 26.0129 20.7026 25.8506C20.8608 25.7161 21.0024 25.5645 21.1244 25.3989C21.4821 24.9715 21.8537 24.1854 22.2631 22.9917C22.5673 22.0456 22.8814 21.1074 23.1971 20.1833C23.2377 20.0629 23.2785 19.9431 23.3196 19.8238C23.6485 18.8729 23.9774 17.9315 24.2964 17.0122C24.605 16.1291 24.9095 15.2532 25.2098 14.3843C25.2185 14.3591 25.2211 14.3322 25.2174 14.3059C25.2138 14.2795 25.2039 14.2543 25.1887 14.2321C25.1734 14.2099 25.1531 14.1913 25.1293 14.1776C25.1055 14.164 25.0788 14.1557 25.0512 14.1533V14.1509ZM28.2075 17.1699C28.6104 16.6818 29.0618 16.4603 29.6694 16.4603C29.7995 16.4757 29.928 16.5021 30.0533 16.5391C30.3105 16.6042 30.5416 16.7415 30.7168 16.9334C30.7212 16.9379 30.7258 16.9421 30.7308 16.946C30.734 16.9497 30.7376 16.9532 30.7415 16.9562C31.0498 17.2014 31.2644 17.5767 31.4182 18.1389C31.4307 18.1835 31.461 18.2216 31.5024 18.2452C31.5439 18.2688 31.5933 18.2759 31.6402 18.265L33.4095 17.8243C33.4562 17.8128 33.4963 17.784 33.5211 17.7443C33.5459 17.7046 33.5533 17.6571 33.5419 17.6122C33.3084 16.6826 32.9195 15.9793 32.3859 15.5213C32.1005 15.2241 31.7674 14.9726 31.3993 14.7762C31.1773 14.6586 30.9427 14.5645 30.6996 14.4955C30.3953 14.4102 30.0814 14.3602 29.7648 14.3465C28.543 14.2456 27.5202 14.6453 26.7227 15.541C25.8914 16.6093 25.4738 18.0088 25.4442 19.8214V20.1809C25.4729 21.8729 25.9169 23.285 26.7325 24.2682C27.3631 25.0567 28.2618 25.4777 29.3306 25.4777C29.4499 25.4777 29.5724 25.4722 29.6899 25.4627C30.032 25.4473 30.371 25.3928 30.6996 25.3003C30.9423 25.2301 31.1765 25.1355 31.3984 25.018C31.6757 24.8705 31.9333 24.6913 32.1655 24.4843C32.7781 23.9253 33.2418 23.0572 33.5443 21.9045C33.5546 21.861 33.5478 21.8154 33.5252 21.7764C33.5026 21.7374 33.4658 21.7078 33.4218 21.6932C32.8463 21.5024 32.2519 21.3053 31.6698 21.0624C31.6443 21.0519 31.6168 21.047 31.5891 21.0481C31.5615 21.0492 31.5345 21.0563 31.5101 21.0688C31.4856 21.0813 31.4645 21.0989 31.4482 21.1203C31.4318 21.1418 31.4207 21.1664 31.4157 21.1925C31.2718 21.9581 31.0589 22.454 30.7226 22.8183L30.7177 22.8246C30.543 23.0255 30.3101 23.172 30.0484 23.2456C29.9289 23.2802 29.8049 23.2982 29.6801 23.2992H29.6669C29.0815 23.3426 28.6219 23.1368 28.2108 22.6409C27.8737 22.0984 27.6887 21.2714 27.6583 20.1802C27.6583 20.0737 27.6534 19.9657 27.6534 19.8545V19.8206C27.6567 18.6167 27.8474 17.7005 28.2075 17.1699ZM41.1857 15.1294C39.2577 15.0837 37.3543 14.9962 35.3383 14.9039L34.9273 14.885C34.9024 14.8838 34.8775 14.8875 34.8542 14.8958C34.8308 14.9041 34.8095 14.9168 34.7914 14.9333C34.7734 14.9497 34.759 14.9695 34.7491 14.9914C34.7393 15.0133 34.7341 15.0369 34.734 15.0608V24.7973C34.734 24.8441 34.7534 24.889 34.788 24.9222C34.8225 24.9553 34.8694 24.9739 34.9182 24.9739C35.2076 24.9739 35.4937 24.9628 35.793 24.9502C36.0923 24.9376 36.4236 24.925 36.7616 24.925C36.8104 24.925 36.8572 24.9064 36.8918 24.8733C36.9263 24.8402 36.9457 24.7952 36.9457 24.7484V16.9562C38.3377 17.0027 39.7716 17.0485 41.1849 17.0485C41.2164 17.0482 41.2473 17.0401 41.2745 17.0248C41.3029 17.0096 41.3266 16.9875 41.3431 16.9606C41.3596 16.9337 41.3683 16.9031 41.3683 16.8719V15.3052C41.368 15.2588 41.3488 15.2143 41.3146 15.1814C41.2804 15.1485 41.2341 15.1298 41.1857 15.1294ZM49.2168 22.7592C47.6136 22.7592 45.9569 22.7592 44.3881 22.8025V20.6193H48.7013C48.7502 20.6193 48.797 20.6007 48.8316 20.5676C48.8661 20.5345 48.8855 20.4896 48.8855 20.4427V18.8777C48.8855 18.8308 48.8661 18.7859 48.8316 18.7528C48.797 18.7197 48.7502 18.701 48.7013 18.701H44.384V17.0035C45.9462 17.0477 47.4927 17.0477 48.9883 17.0477C49.0371 17.0477 49.084 17.0291 49.1185 16.996C49.153 16.9628 49.1724 16.9179 49.1724 16.8711V15.3052C49.1725 15.282 49.1679 15.259 49.1586 15.2375C49.1494 15.216 49.1359 15.1965 49.1187 15.1801C49.1016 15.1637 49.0813 15.1507 49.0589 15.1418C49.0365 15.133 49.0125 15.1285 48.9883 15.1286C47.8742 15.1286 46.7453 15.116 45.6543 15.1042C44.5896 15.0923 43.4879 15.0797 42.4272 15.0797C42.3784 15.0797 42.3315 15.0983 42.297 15.1315C42.2625 15.1646 42.2431 15.2095 42.2431 15.2563V24.5529C42.2431 24.5997 42.2625 24.6446 42.297 24.6777C42.3315 24.7109 42.3784 24.7295 42.4272 24.7295H42.4313C44.6414 24.6806 46.9632 24.6806 49.2094 24.6806C49.2583 24.6806 49.3051 24.662 49.3397 24.6289C49.3742 24.5957 49.3936 24.5508 49.3936 24.504V22.9381C49.3943 22.8921 49.3762 22.8476 49.3432 22.8142C49.3101 22.7807 49.2648 22.761 49.2168 22.7592ZM57.9098 16.1181C57.2003 15.3178 56.1248 14.8779 54.88 14.8779C54.8093 14.8779 54.737 14.8779 54.672 14.8826C54.5948 14.8826 54.5183 14.8826 54.4426 14.8889C54.192 14.8965 53.9424 14.9229 53.6961 14.9678C53.2195 15.0537 52.7663 15.2322 52.3642 15.4921C51.6867 15.8445 51.1432 16.3941 50.7461 17.132C50.3654 17.8905 50.1591 18.8169 50.1418 19.8127V20.1723C50.1846 21.6246 50.6351 22.7607 51.5132 23.6343C52.0789 24.2359 52.8205 24.6285 53.7257 24.8083C53.9699 24.8559 54.2171 24.888 54.4657 24.9045C54.5306 24.9084 54.5956 24.9132 54.6613 24.9155C54.7271 24.9179 54.8126 24.9195 54.8866 24.9195C56.1133 24.9195 57.0753 24.5308 57.8235 23.7368C58.6991 22.8648 59.1497 21.6971 59.1965 20.1723C59.1965 20.0816 59.2015 19.9894 59.2015 19.8955V19.8127C59.1899 18.2327 58.7534 16.9862 57.9098 16.1213V16.1181ZM56.9848 20.1786C56.938 21.0364 56.7037 21.7452 56.2975 22.2396C55.9078 22.7126 55.3849 22.9492 54.7025 22.9539H54.6729C54.4289 22.9532 54.1874 22.9072 53.9617 22.8183C53.6108 22.676 53.2973 22.4605 53.0441 22.1875C52.6651 21.7247 52.4686 21.0648 52.4308 20.1817C52.4308 20.0911 52.4242 20.0004 52.4242 19.905V19.8222C52.4357 18.8177 52.6429 18.0585 53.0408 17.5744C53.24 17.346 53.4896 17.1628 53.7715 17.038C54.0535 16.9133 54.3607 16.8501 54.6712 16.8529H54.6868C55.3668 16.8529 55.8955 17.0761 56.2967 17.5192C56.7407 18.06 56.9865 18.8777 56.9931 19.8222V19.8561C56.9955 19.9665 56.9914 20.0745 56.9848 20.1809V20.1786ZM66.4679 23.3797C66.3397 23.0761 66.2213 22.7852 66.0996 22.495L65.9746 22.1844C65.8102 21.8091 65.6564 21.4842 65.5191 21.2051C65.3869 20.929 65.2395 20.6598 65.0776 20.3986L65.0628 20.3788C65.0012 20.3079 64.9419 20.2424 64.8811 20.1809C64.7529 20.0475 64.6107 19.927 64.4569 19.8214C64.4067 19.7867 64.3557 19.7544 64.3031 19.7244C64.4783 19.5823 64.6186 19.4049 64.7142 19.2049C64.8786 18.9794 65.0974 18.5236 65.2437 17.896L65.2667 17.8306C65.2996 17.7368 65.33 17.6493 65.3604 17.5641C65.5117 17.1344 65.6375 16.8175 65.7954 16.6432L65.8053 16.6306C65.8344 16.5939 65.87 16.5624 65.9105 16.5376C66.0536 16.4437 66.3092 16.361 66.6875 16.361C66.7247 16.3608 66.761 16.3501 66.7919 16.3302C66.8165 16.3136 66.842 16.3121 66.9086 16.3121C66.9328 16.3122 66.9568 16.3077 66.9792 16.2988C67.0016 16.29 67.022 16.277 67.0391 16.2606C67.0562 16.2442 67.0698 16.2246 67.079 16.2032C67.0882 16.1817 67.0929 16.1587 67.0928 16.1355V14.572C67.0927 14.5468 67.087 14.522 67.076 14.4991C67.0651 14.4762 67.0493 14.4558 67.0295 14.4393C67.0098 14.4227 66.9866 14.4104 66.9615 14.4031C66.9364 14.3958 66.91 14.3937 66.884 14.3969C66.1382 14.4963 65.6252 14.5933 65.3218 14.6918L65.3078 14.6958C65.0605 14.7661 64.8372 14.8984 64.6608 15.0789C64.544 15.1917 64.4347 15.3155 64.3228 15.4471C64.0137 15.8587 63.7934 16.4422 63.4875 17.2519V17.2661C63.2647 18.0545 63.0518 18.5095 62.926 18.6766C62.8024 18.817 62.6344 18.9147 62.4474 18.9549V14.9142C62.4476 14.8897 62.4423 14.8655 62.4321 14.8431C62.422 14.8207 62.407 14.8006 62.3882 14.7841C62.3693 14.7677 62.347 14.7552 62.3229 14.7473C62.2987 14.7394 62.2731 14.7364 62.2477 14.7383C61.6401 14.7888 60.9979 14.8361 60.4208 14.8361C60.3966 14.836 60.3727 14.8405 60.3503 14.8493C60.328 14.8581 60.3077 14.871 60.2906 14.8873C60.2735 14.9037 60.2599 14.9231 60.2506 14.9445C60.2414 14.9658 60.2366 14.9888 60.2366 15.0119V24.7973C60.2366 24.8441 60.256 24.889 60.2905 24.9222C60.3251 24.9553 60.3719 24.9739 60.4208 24.9739C60.7118 24.9739 61.0283 24.9865 61.335 24.9983C61.6417 25.0102 61.9656 25.0228 62.2633 25.0228C62.2875 25.0229 62.3115 25.0184 62.3339 25.0095C62.3563 25.0007 62.3766 24.9877 62.3937 24.9713C62.4109 24.9549 62.4244 24.9353 62.4336 24.9139C62.4429 24.8924 62.4476 24.8694 62.4474 24.8462V20.7329C62.66 20.7696 62.853 20.875 62.9942 21.0317C63.1389 21.321 63.3568 21.7555 63.6421 22.417L64.664 24.8611L64.7463 25.0614C64.759 25.092 64.7805 25.1185 64.8083 25.1379C64.8361 25.1573 64.869 25.1688 64.9033 25.171L65.3407 25.2033L65.9417 25.2459C66.2895 25.2703 66.6381 25.2948 66.967 25.3184H66.981C67.0093 25.3183 67.0372 25.312 67.0625 25.3C67.0879 25.288 67.11 25.2705 67.1273 25.2491C67.1458 25.2255 67.1579 25.1979 67.1627 25.1687C67.1674 25.1396 67.1646 25.1098 67.1545 25.0819C66.9423 24.5087 66.7006 23.9347 66.4679 23.3797ZM75.1724 15.3029C74.5097 14.3788 73.5124 13.8908 72.2898 13.8908C72.1657 13.8908 72.0374 13.8963 71.9026 13.9065C70.9497 14.0114 70.1957 14.2803 69.5914 14.7312C68.9282 15.2838 68.4069 15.9756 68.0679 16.7528C67.6823 17.6248 67.4809 18.6569 67.4669 19.8206V20.1802C67.5014 21.8256 67.9224 23.1636 68.7544 24.2674C69.5223 25.2364 70.6126 25.8002 71.91 25.9019C72.0465 25.9121 72.1813 25.9177 72.3104 25.9177C73.4738 25.9177 74.3831 25.5069 75.091 24.6617C75.9222 23.6493 76.344 22.1804 76.3802 20.1809V19.9042V19.8214C76.372 17.7525 75.974 16.2703 75.1724 15.3029ZM74.2401 20.1809C74.1989 21.2753 73.9556 22.1946 73.5404 22.7915C73.163 23.3347 72.6853 23.5988 72.0793 23.5988C72.0333 23.5988 71.9848 23.5988 71.9379 23.5941C71.3205 23.5484 70.7819 23.2196 70.3758 22.6393C69.9343 22.0519 69.7098 21.2658 69.6777 20.1809V19.8214C69.6884 18.6198 69.9038 17.7037 70.31 17.1652C70.7211 16.5715 71.2555 16.2608 71.9388 16.219C71.9881 16.219 72.0358 16.2143 72.0835 16.2143C72.6721 16.2143 73.1646 16.4713 73.5428 16.9728C74.0008 17.6311 74.2442 18.6175 74.2491 19.8254V19.8593C74.2466 19.9657 74.2433 20.0737 74.2401 20.1809ZM86.0573 12.5331C85.7589 12.5662 85.4579 12.6056 85.1603 12.6458L84.7245 12.7049L84.2765 12.7657C83.9854 12.8051 83.6935 12.8445 83.4033 12.8753C83.3627 12.8792 83.3247 12.8959 83.2949 12.9227C83.2652 12.9495 83.2455 12.9849 83.2389 13.0235L83.2158 13.1638C82.8541 15.3596 82.4833 17.6091 82.1133 19.8175C82.0936 19.9373 82.0733 20.0572 82.0525 20.177C81.9922 20.5381 81.9319 20.8984 81.8716 21.258C81.808 20.8969 81.7436 20.5365 81.6784 20.177C81.6562 20.0564 81.634 19.9405 81.6126 19.8175C81.4358 18.8453 81.2566 17.8811 81.0798 16.9349C80.8636 15.7728 80.6391 14.5696 80.4327 13.4122C80.4247 13.3678 80.3992 13.3281 80.3616 13.3012C80.324 13.2742 80.2771 13.262 80.2305 13.2671L77.5765 13.5604C77.5313 13.5651 77.4895 13.5856 77.4591 13.6181C77.4287 13.6505 77.412 13.6926 77.412 13.7362V26.0706C77.4118 26.1143 77.4285 26.1566 77.4588 26.1892C77.4892 26.2219 77.5311 26.2425 77.5765 26.2472C78.1167 26.2922 78.6511 26.3403 79.257 26.4412C79.2834 26.4456 79.3105 26.4444 79.3363 26.4378C79.3622 26.4311 79.3862 26.4191 79.4067 26.4025C79.4272 26.3858 79.4437 26.365 79.455 26.3416C79.4664 26.3182 79.4723 26.2927 79.4724 26.2669V18.5678C79.539 18.9849 79.6081 19.4028 79.678 19.8214C79.6977 19.9413 79.7166 20.058 79.7372 20.1809C80.006 21.8028 80.2864 23.449 80.575 25.1481L80.8027 26.4885C80.8091 26.5271 80.8288 26.5625 80.8586 26.5893C80.8884 26.616 80.9266 26.6324 80.9672 26.6359C81.5073 26.6817 82.0418 26.729 82.6469 26.8299C82.671 26.8341 82.6957 26.8336 82.7196 26.8285C82.7434 26.8233 82.766 26.8136 82.7858 26.7999C82.8057 26.7863 82.8225 26.7691 82.8354 26.7492C82.8482 26.7293 82.8568 26.7071 82.8607 26.684C83.2454 24.3849 83.6006 22.2301 83.9385 20.1809C83.9583 20.0603 83.978 19.9444 83.9977 19.8214C84.0874 19.2695 84.1762 18.7223 84.2641 18.1854V26.8527C84.2643 26.8935 84.279 26.9329 84.306 26.9644C84.333 26.9958 84.3705 27.0174 84.4121 27.0254C84.454 27.0341 84.4943 27.0404 84.5404 27.0475C84.7673 27.0869 85.0041 27.1192 85.2343 27.1492L85.4053 27.1721C85.6199 27.2012 85.8353 27.232 86.0343 27.2698C86.046 27.271 86.0579 27.271 86.0696 27.2698C86.1123 27.2701 86.1537 27.2559 86.1864 27.2296C86.2075 27.2133 86.2246 27.1926 86.2364 27.1692C86.2482 27.1457 86.2544 27.12 86.2546 27.094V12.7128C86.2546 12.6879 86.249 12.6633 86.2384 12.6406C86.2277 12.6178 86.2122 12.5975 86.1928 12.5809C86.1734 12.5643 86.1506 12.5519 86.1258 12.5443C86.1011 12.5367 86.0749 12.5342 86.0491 12.537L86.0573 12.5331Z" fill="white"/>
</svg>
