<svg width="152" height="64" viewBox="0 0 152 64" fill="none" xmlns="http://www.w3.org/2000/svg">
<path d="M152 31.8732C152 28.1909 150.502 24.588 147.604 21.1794L147.498 21.0533C147.368 20.9069 147.238 20.7631 147.108 20.6181C143.317 16.3844 137.387 12.5141 129.545 9.24558C115.237 3.28496 96.2182 0 76.0026 0C55.7871 0 36.764 3.27992 22.4494 9.25189C14.7077 12.4763 8.83006 16.286 5.03404 20.4528C1.71576 24.0733 0 27.9285 0 31.8732V31.9981C0 40.6369 7.97088 48.7169 22.4442 54.7481C36.764 60.715 55.7779 64 75.9974 64C96.2169 64 115.237 60.7201 129.551 54.7481C143.728 48.8417 151.662 40.9687 151.983 32.5305V32.3576C151.983 32.2315 151.993 32.118 151.993 31.9981V31.9552C151.993 31.9413 152 31.9035 152 31.8732ZM129.088 10.3015C131.338 11.2332 133.536 12.2788 135.673 13.4338C133.169 13.8206 130.666 14.1831 128.163 14.5212C122.997 11.1366 116.098 8.19096 107.609 5.76004C106.338 5.39667 105.062 5.05307 103.78 4.72939C105.436 4.19072 106.31 3.81354 106.341 3.79966C114.715 5.33996 122.415 7.52615 129.082 10.309L129.088 10.3015ZM52.6888 8.2717C53.8109 7.79611 54.9357 7.34575 56.0513 6.91936C57.7202 7.22843 59.5662 7.51984 61.567 7.7734L61.416 7.88189C57.3687 10.8376 54.1169 14.0557 51.7372 17.4479C47.2894 17.167 42.8529 16.8049 38.4276 16.3617C42.1026 13.4477 46.8854 10.7316 52.6888 8.2717ZM36.7861 16.1977C32.9675 15.7991 29.158 15.3408 25.3576 14.8227C30.3045 11.7345 36.7952 9.03365 44.6815 6.77681C46.3243 6.30627 47.9685 5.87357 49.5957 5.47494C50.822 5.80293 52.2748 6.15741 53.9398 6.50559C53.3705 6.73434 52.8007 6.96898 52.2306 7.20951C45.844 9.91544 40.6576 12.9355 36.7861 16.1977ZM62.1073 8.81793C62.5021 8.52947 62.897 8.24941 63.2919 7.97777C65.5049 8.22124 67.8963 8.41425 70.4518 8.52905L70.3216 8.79649C68.9197 11.7757 67.7923 14.8692 66.9525 18.0408C64.8593 18.0088 62.8358 17.9668 60.8823 17.9147C58.2995 17.8154 55.7194 17.6893 53.1418 17.5362C55.7818 13.9472 59.0793 11.0306 62.1073 8.81793ZM71.7653 8.58077C73.0671 8.6245 74.4083 8.64721 75.7891 8.64889C77.2931 8.64889 78.7468 8.62156 80.1501 8.56689C81.6515 11.6142 82.8578 14.79 83.7535 18.0534C81.2028 18.0887 78.548 18.1068 75.7891 18.1077C73.1595 18.1077 70.6258 18.0913 68.1879 18.0585C69.0761 14.7991 70.2737 11.6263 71.7653 8.58077ZM81.642 8.89362C81.5808 8.76747 81.5183 8.64132 81.4571 8.50886C83.9683 8.38271 86.3076 8.18087 88.4647 7.92731C88.9216 8.24016 89.3759 8.55806 89.8381 8.89867C92.8218 11.076 96.0685 13.9359 98.6903 17.4466C94.7076 17.6931 90.7411 17.8785 86.7906 18.003L84.985 18.0345C84.1477 14.8985 83.0291 11.8408 81.642 8.89362ZM90.5541 7.97903C90.4239 7.8882 90.3054 7.7999 90.1804 7.71159C92.1032 7.45172 93.8671 7.15526 95.4644 6.84367C96.7407 7.32433 98.0071 7.82902 99.2631 8.35748C104.949 10.767 109.657 13.4224 113.303 16.2696C108.887 16.7061 104.485 17.0669 100.098 17.352C97.7322 14.0305 94.5258 10.8792 90.5541 7.97903ZM99.7395 7.30538C99.0096 6.99589 98.2798 6.69692 97.5499 6.40845C99.112 6.06406 100.466 5.71462 101.619 5.3879C103.494 5.83699 105.395 6.33024 107.289 6.87269C115.047 9.09294 121.448 11.7434 126.369 14.7685C122.559 15.268 118.754 15.7133 114.952 16.1044C111.107 12.914 106 9.95833 99.7395 7.30538ZM104.107 3.40859C103.456 3.6344 102.613 3.90436 101.597 4.19703C96.6647 3.02635 91.9209 2.16348 87.8867 1.5403C93.3231 1.89133 98.7372 2.51493 104.107 3.40859ZM99.2227 4.83409C98.0126 5.13506 96.7951 5.40721 95.5712 5.65029C91.8741 4.27146 88.3059 3.16638 85.2558 2.31486C89.1924 2.87119 94.0598 3.6836 99.2227 4.83409ZM93.3321 6.06532C91.9235 6.30753 90.403 6.5346 88.7758 6.73266C86.4614 5.18176 84.0468 3.77608 81.547 2.52428C84.6908 3.31524 88.863 4.48592 93.3321 6.06532ZM86.9676 6.93576C84.9497 7.14348 82.9258 7.29283 80.8987 7.3836C79.9527 5.52289 78.8825 3.72395 77.6949 1.99823C80.9172 3.40055 84.018 5.05254 86.9676 6.93576ZM79.5747 7.44037C78.351 7.48158 77.0892 7.5026 75.7891 7.50344C74.6088 7.50344 73.4585 7.48662 72.3381 7.45298C73.3843 5.41375 74.5916 3.45595 75.9492 1.59707C77.3118 3.44886 78.524 5.40039 79.5747 7.43406V7.44037ZM71.0128 7.4C68.8102 7.31169 66.7338 7.1641 64.7877 6.97487C67.8001 5.0341 70.9725 3.3371 74.2725 1.90109C73.0607 3.66162 71.9717 5.49868 71.0128 7.4ZM62.9743 6.78438C61.2689 6.59011 59.6755 6.36556 58.198 6.12461C62.8298 4.46573 67.1739 3.24586 70.4218 2.42714C67.8429 3.71819 65.3541 5.17381 62.9743 6.78438ZM55.9316 5.72724C54.4918 5.45602 53.1861 5.17596 52.0262 4.89969C57.4573 3.66341 62.5954 2.80054 66.7143 2.21899C63.5353 3.11087 59.794 4.26768 55.9316 5.72724ZM62.9912 1.61599C58.9895 2.25683 54.3733 3.1298 49.6061 4.28408C48.5999 4.00907 47.7615 3.75551 47.1002 3.54105C52.3602 2.63643 57.6633 1.9939 62.9912 1.61599ZM22.9129 10.309C29.3554 7.62454 36.7692 5.48882 44.822 3.95735V3.96365C44.8533 3.97627 45.7333 4.33201 47.3931 4.84671C46.3846 5.1091 45.3744 5.38453 44.3625 5.67299C35.7577 8.13419 28.7801 11.1278 23.5976 14.5805C21.1537 14.2348 18.7172 13.8648 16.288 13.4704C18.4374 12.3044 20.6488 11.2492 22.9129 10.309ZM22.9129 53.6948C20.5702 52.7236 18.2843 51.6286 16.0654 50.4148C18.544 50.0448 21.03 49.6983 23.5234 49.3754C28.715 52.8483 35.716 55.8582 44.3599 58.3321C45.3597 58.618 46.3577 58.8905 47.354 59.1495C45.7177 59.6541 44.8468 60.0036 44.8168 60.0174L44.8286 60.0452C36.7757 58.5175 29.358 56.3818 22.9129 53.6973V53.6948ZM99.2774 55.4609C97.9183 56.0437 96.5566 56.5887 95.2119 57.1008C93.6614 56.8044 91.9574 56.5205 90.1023 56.2708C90.2533 56.1623 90.4031 56.0563 90.5528 55.9453C94.4282 53.1082 97.5746 50.0326 99.9257 46.7943C104.255 47.0466 108.594 47.37 112.944 47.7644C109.353 50.5145 104.772 53.0968 99.2787 55.4558L99.2774 55.4609ZM114.624 47.9145C118.643 48.2913 122.668 48.7244 126.7 49.2139C121.739 52.3159 115.228 55.0231 107.303 57.28C105.505 57.7921 103.703 58.2589 101.924 58.6878C100.648 58.3194 99.1042 57.9195 97.3052 57.526C98.1157 57.203 98.9285 56.8666 99.7434 56.5168C105.824 53.9054 110.819 51.0153 114.626 47.9095L114.624 47.9145ZM89.8628 55.0029C89.3694 55.3637 88.876 55.7119 88.3853 56.0475C86.2712 55.7952 83.9852 55.6034 81.5326 55.4798C81.6029 55.3271 81.6758 55.1745 81.7474 55.0193C83.0626 52.158 84.1307 49.1959 84.9407 46.1636C89.4415 46.2695 93.96 46.4482 98.4963 46.6997C95.9201 50.0957 92.7645 52.8748 89.8628 55.0029ZM80.2295 55.4218C78.8002 55.3654 77.32 55.3372 75.7891 55.3372C74.4118 55.3372 73.0749 55.3595 71.7783 55.4041C70.3284 52.4131 69.1561 49.303 68.2752 46.1106C70.6184 46.0702 72.9616 46.0488 75.3048 46.0462C78.0976 46.0462 80.8999 46.0765 83.7118 46.1371C82.8376 49.3258 81.6714 52.4329 80.2295 55.4218ZM70.22 54.9172C70.3034 55.0976 70.3867 55.2742 70.4687 55.4495C68.0265 55.5593 65.7393 55.7397 63.6134 55.9655C63.1118 55.624 62.6093 55.2691 62.106 54.9008C59.2095 52.7852 56.0695 50.0175 53.4972 46.6328C58.0101 46.3898 62.526 46.2216 67.045 46.1282C67.8521 49.1397 68.9145 52.0815 70.2214 54.9235L70.22 54.9172ZM61.4147 55.8418L61.8742 56.1724C59.9892 56.4045 58.2448 56.677 56.6514 56.957C55.3418 56.4524 54.0153 55.9264 52.6914 55.3574C47.2108 53.0047 42.6376 50.4287 39.0499 47.6786C43.3771 47.2892 47.7164 46.9688 52.0678 46.7174C54.4098 49.9456 57.551 53.0123 61.4147 55.8418ZM52.228 56.4158C52.9899 56.7438 53.7511 57.0592 54.5113 57.362C52.5872 57.7518 50.9314 58.1517 49.5645 58.52C47.9329 58.123 46.31 57.6927 44.6971 57.2295C36.7783 54.9588 30.2706 52.2516 25.3095 49.1496C29.3129 48.645 33.3316 48.2043 37.3654 47.8275C41.1679 50.9295 46.1564 53.8108 52.228 56.4158ZM47.0624 60.4526C47.7224 60.2395 48.5595 59.9846 49.5697 59.7071C54.3499 60.8702 58.9804 61.7419 62.9925 62.384C57.6513 62.007 52.3338 61.3632 47.0611 60.4552L47.0624 60.4526ZM51.9806 59.0915C53.311 58.7748 54.8302 58.4506 56.5278 58.1428C60.5665 59.6521 64.6811 60.9636 68.8558 62.0724C64.4427 61.5022 58.418 60.5611 51.9793 59.094L51.9806 59.0915ZM58.8267 57.7556C60.2197 57.5386 61.7128 57.3367 63.2997 57.1601C65.5574 58.6709 67.9099 60.044 70.3437 61.2714C67.2494 60.4779 63.1838 59.3135 58.8254 57.7581L58.8267 57.7556ZM65.1326 56.9772C66.9812 56.8044 68.9482 56.6694 71.0232 56.5861C71.9114 58.3605 72.9114 60.0802 74.0174 61.7356C70.9346 60.3719 67.9644 58.7811 65.1326 56.9772ZM72.3446 56.5395C73.4624 56.5067 74.6101 56.4898 75.7878 56.489C77.1208 56.489 78.4131 56.5117 79.6646 56.5571C78.0738 59.6541 76.6288 61.7091 76.0195 62.524C75.4663 61.7873 73.9874 59.721 72.3446 56.5369V56.5395ZM80.9833 56.6076C83.0661 56.7035 85.041 56.8599 86.8843 57.0428C84.0393 58.8604 81.0542 60.463 77.9553 61.8365C79.0758 60.1558 80.087 58.4102 80.9833 56.6076ZM88.6951 57.2459C90.2572 57.4351 91.7218 57.6496 93.0821 57.8767C88.7485 59.4207 84.7051 60.5775 81.6264 61.371C84.0689 60.1389 86.4297 58.7603 88.6951 57.2434V57.2459ZM95.3264 58.2892C96.9055 58.5982 98.3206 58.9199 99.552 59.2353C93.5638 60.5738 87.9531 61.4568 83.7079 62.0106C87.0002 61.1187 91.0709 59.8787 95.3251 58.2866L95.3264 58.2892ZM89.2327 62.3727C93.0444 61.7621 97.3976 60.9497 101.898 59.8774C102.797 60.1423 103.549 60.382 104.145 60.5914C99.3555 61.3925 94.3579 61.993 89.2314 62.3701L89.2327 62.3727ZM129.082 53.6973C122.414 56.4726 114.709 58.6651 106.334 60.2067L106.346 60.1814C106.317 60.1688 105.54 59.8333 104.065 59.3438C105.248 59.0419 106.436 58.7223 107.627 58.385C116.293 55.9188 123.308 52.9088 128.501 49.4283C130.974 49.7387 133.447 50.0704 135.922 50.4237C133.705 51.6353 131.422 52.7282 129.082 53.6973ZM150.808 31.9615V32.4901C150.519 38.5819 145.891 44.4378 137.378 49.4712C137.305 49.4599 137.232 49.451 137.16 49.4397C134.743 49.089 132.327 48.7585 129.91 48.4482C129.342 48.375 128.772 48.3056 128.205 48.2362C124.086 47.7232 119.969 47.2691 115.856 46.8738C115.322 46.8221 114.786 46.7691 114.251 46.7186C109.726 46.2981 105.21 45.9533 100.703 45.6842C100.239 45.6552 99.7773 45.6262 99.3151 45.6009C94.6078 45.3284 89.9188 45.1363 85.2479 45.0244L84.0295 44.9954C81.1169 44.9332 78.2144 44.9012 75.3218 44.8995C72.877 44.8995 70.4314 44.9222 67.9849 44.9677C67.5787 44.9752 67.1725 44.9853 66.7651 44.9942C62.0743 45.0934 57.3878 45.2729 52.7057 45.5328C52.2423 45.558 51.7801 45.5883 51.3167 45.6161C46.7925 45.8843 42.2796 46.2271 37.778 46.6442C37.2417 46.6934 36.7054 46.7464 36.169 46.7981C32.0476 47.1976 27.9408 47.6601 23.8489 48.1858C23.2813 48.2589 22.7137 48.3283 22.1461 48.404C19.7161 48.7269 17.2909 49.0722 14.8704 49.4397L14.6504 49.4712C6.026 44.3811 1.39552 38.452 1.19635 32.2895C1.19635 32.1722 1.18854 32.0549 1.18854 31.9376V31.877V31.7143C1.23019 28.5731 2.45909 25.4786 4.81013 22.5154L5.0054 22.2694L5.18504 22.0499C7.40851 19.3944 10.538 16.8474 14.528 14.4695L14.6855 14.3749C17.1824 14.7903 19.6879 15.1801 22.2021 15.5443C22.7619 15.625 23.3242 15.7007 23.8853 15.7802C27.7777 16.3252 31.6856 16.8083 35.6093 17.2297C36.13 17.2852 36.6507 17.3445 37.1714 17.3987C41.7615 17.8705 46.3673 18.2553 50.9886 18.553C51.4469 18.5833 51.8999 18.6161 52.3633 18.6438C55.1639 18.812 57.968 18.9508 60.7755 19.0601C62.7317 19.1349 64.6883 19.1951 66.6453 19.2405C67.0515 19.2506 67.4576 19.2594 67.8638 19.267C70.2608 19.3132 72.6583 19.3372 75.0562 19.3389C78.0416 19.3389 81.0406 19.301 84.0529 19.2254L85.2714 19.1951C85.7921 19.1812 86.3011 19.1699 86.8179 19.1522C91.0132 19.021 95.2271 18.8196 99.4596 18.5479C99.9187 18.5185 100.378 18.4886 100.837 18.4584C105.397 18.1522 109.971 17.7662 114.559 17.3003L116.138 17.135C120.037 16.7238 123.942 16.2554 127.854 15.7297C128.422 15.6528 128.992 15.5796 129.56 15.5001C132.129 15.1444 134.699 14.7659 137.272 14.3648L137.451 14.4733C141.493 16.884 144.654 19.4663 146.881 22.1596C146.898 22.1798 146.917 22.1987 146.932 22.2189C147.03 22.3375 147.122 22.4561 147.215 22.5734C147.337 22.7286 147.455 22.8837 147.573 23.0389C147.593 23.0692 147.616 23.0982 147.636 23.1272C149.688 25.9025 150.761 28.7926 150.798 31.7193V31.8821C150.811 31.9035 150.81 31.9312 150.809 31.959L150.808 31.9615ZM23.9061 21.4242C23.2735 21.0836 22.1669 20.8426 20.5423 20.6874C19.851 20.5802 19.1533 20.4894 18.4711 20.4011L18.2564 20.3721C17.8658 20.3216 17.4688 20.2711 17.0691 20.2156C16.7085 20.1664 16.3479 20.116 15.9899 20.0605C15.9483 20.0539 15.9057 20.0561 15.865 20.0671C15.8244 20.0781 15.7867 20.0976 15.7546 20.1241C15.7225 20.1506 15.6968 20.1836 15.6792 20.2208C15.6616 20.258 15.6526 20.2984 15.6528 20.3393V43.3529C15.6531 43.4278 15.6839 43.4995 15.7386 43.5524C15.7932 43.6053 15.8671 43.6352 15.9444 43.6355C15.9608 43.6366 15.9774 43.6366 15.9938 43.6355C16.2724 43.5888 16.5536 43.5497 16.8335 43.5094L17.3802 43.4375C17.6575 43.4034 17.94 43.3655 18.2238 43.3264C18.4139 43.2999 18.6052 43.2735 18.7953 43.2407C18.863 43.2291 18.9244 43.1949 18.9686 43.1439C19.0129 43.0929 19.0372 43.0285 19.0374 42.9619V34.8643C19.2535 34.8567 19.4787 34.8441 19.6974 34.8302C20.0086 34.81 20.3301 34.7911 20.6269 34.7911C21.8688 34.7318 23.5117 34.5514 24.2811 34.0342C24.9363 33.5789 25.4715 32.9803 25.8432 32.287C25.9434 32.1104 26.0398 31.9275 26.1296 31.7319L26.1387 31.7118C26.6165 30.7404 26.8586 29.4701 26.8586 27.9272C26.8586 26.1498 26.5891 24.8151 26.0163 23.7416C25.5178 22.6642 24.764 21.8342 23.9061 21.4242ZM23.0613 29.412C23.0517 29.4253 23.043 29.4392 23.0352 29.4537C22.8191 29.8901 22.6174 30.15 22.3466 30.3367C21.9053 30.4755 21.2231 30.5436 20.2637 30.5436H19.0387V24.781C19.1689 24.7886 19.29 24.7987 19.4228 24.81C19.6519 24.829 19.8888 24.8492 20.1283 24.8504L20.3601 24.8807C21.3078 25.0068 21.9326 25.0901 22.2008 25.2692C22.2143 25.2785 22.2287 25.2865 22.2437 25.2932C22.5249 25.4194 22.8282 25.7574 23.0248 26.1624C23.2539 26.6998 23.4687 27.2069 23.4687 27.8541C23.4739 28.5592 23.349 29.0247 23.0613 29.412ZM39.6643 22.6415L38.218 22.5255C37.7182 22.4864 37.217 22.4472 36.7457 22.4069C36.6785 22.4009 36.6112 22.4179 36.5555 22.455C36.4999 22.4921 36.4594 22.547 36.4411 22.61C35.6067 25.408 34.7488 28.2868 33.8935 31.2702C33.128 29.0336 32.3691 26.7023 31.5594 24.1023C31.4049 23.6036 31.2478 23.0944 31.0881 22.5747L30.9306 22.06C30.9149 22.0085 30.8844 21.9624 30.8427 21.9271C30.801 21.8918 30.7497 21.8688 30.695 21.8606C30.1652 21.7812 29.6275 21.7219 29.1081 21.6639C28.5887 21.6058 28.0667 21.5465 27.5459 21.4696C27.4968 21.4623 27.4466 21.4674 27.4001 21.4842C27.3536 21.501 27.3122 21.5291 27.28 21.5657C27.2478 21.6023 27.2258 21.6464 27.2161 21.6936C27.2063 21.7408 27.2092 21.7896 27.2244 21.8354C27.792 23.5494 28.393 25.3012 29.0274 27.0909C29.2661 27.7637 29.5112 28.447 29.7629 29.1408C30.0693 29.986 30.3839 30.8443 30.7067 31.7155C30.7783 31.9073 30.8473 32.094 30.9202 32.2908C31.3741 33.5069 31.8458 34.7495 32.3353 36.0185C32.1906 36.7251 31.9346 37.4058 31.5763 38.0369C31.4302 38.1938 31.2365 38.3016 31.023 38.3447C30.82 38.3987 30.6128 38.4367 30.4034 38.4583H29.3698C29.3314 38.4581 29.2934 38.4653 29.258 38.4795C29.2225 38.4936 29.1903 38.5144 29.1632 38.5407C29.1361 38.567 29.1146 38.5982 29.1 38.6325C29.0854 38.6669 29.078 38.7037 29.0782 38.7409V41.713C29.0781 41.7812 29.1035 41.8471 29.1497 41.8986C29.1959 41.95 29.2597 41.9836 29.3294 41.993C29.6374 42.0347 29.948 42.0554 30.2589 42.0548C30.5952 42.0537 30.9312 42.0335 31.2652 41.9943C31.4214 41.9789 31.576 41.9506 31.7273 41.9098C32.1172 41.8086 32.4773 41.6207 32.7792 41.361C33.0297 41.1457 33.2537 40.9032 33.447 40.6382C34.0133 39.9544 34.6017 38.6967 35.25 36.7868C35.7316 35.273 36.2289 33.7718 36.7288 32.2933C36.793 32.1007 36.8577 31.909 36.9228 31.7181C37.4435 30.1967 37.9642 28.6904 38.4693 27.2195C38.9579 25.8066 39.44 24.4051 39.9156 23.0149C39.9293 22.9745 39.9334 22.9316 39.9276 22.8894C39.9218 22.8472 39.9062 22.8069 39.8821 22.7713C39.8579 22.7358 39.8258 22.706 39.7881 22.6842C39.7504 22.6624 39.7081 22.6491 39.6643 22.6453V22.6415ZM44.6619 27.4718C45.2998 26.691 46.0145 26.3365 46.9765 26.3365C47.1826 26.3612 47.386 26.4034 47.5845 26.4626C47.9917 26.5667 48.3575 26.7864 48.635 27.0934C48.6418 27.1006 48.6492 27.1074 48.6571 27.1136C48.6622 27.1196 48.6678 27.1251 48.6741 27.13C49.1622 27.5223 49.502 28.1228 49.7454 29.0222C49.7653 29.0936 49.8132 29.1546 49.8789 29.1923C49.9445 29.23 50.0227 29.2414 50.0969 29.2241L52.8984 28.5189C52.9724 28.5004 53.0359 28.4544 53.0751 28.3909C53.1143 28.3274 53.1261 28.2514 53.108 28.1795C52.7383 26.6922 52.1225 25.567 51.2776 24.834C50.8258 24.3585 50.2984 23.9561 49.7155 23.6419C49.3641 23.4538 48.9926 23.3032 48.6077 23.1928C48.1259 23.0563 47.629 22.9763 47.1275 22.9544C45.1931 22.7929 43.5736 23.4325 42.3109 24.8656C40.9948 26.5749 40.3335 28.8141 40.2866 31.7143V32.2895C40.3322 34.9967 41.0351 37.2561 42.3265 38.8292C43.325 40.0907 44.7478 40.7643 46.4402 40.7643C46.6289 40.7643 46.8229 40.7555 47.0091 40.7404C47.5507 40.7157 48.0874 40.6284 48.6077 40.4805C48.9919 40.3682 49.3628 40.2168 49.7142 40.0289C50.1532 39.7928 50.561 39.506 50.9288 39.1748C51.8986 38.2804 52.6328 36.8915 53.1119 35.0472C53.1281 34.9776 53.1173 34.9046 53.0815 34.8422C53.0457 34.7799 52.9875 34.7325 52.9179 34.7091C52.0066 34.4038 51.0655 34.0884 50.1438 33.6999C50.1035 33.6831 50.0599 33.6752 50.0161 33.677C49.9724 33.6788 49.9296 33.6901 49.8909 33.7101C49.8523 33.7301 49.8188 33.7583 49.7929 33.7925C49.767 33.8268 49.7495 33.8663 49.7415 33.908C49.5137 35.133 49.1765 35.9264 48.6441 36.5093L48.6363 36.5193C48.3598 36.8407 47.991 37.0752 47.5766 37.193C47.3874 37.2483 47.1911 37.2771 46.9934 37.2788H46.9726C46.0457 37.3482 45.318 37.0189 44.6671 36.2254C44.1334 35.3575 43.8405 34.0342 43.7923 32.2883C43.7923 32.118 43.7845 31.9451 43.7845 31.7673V31.713C43.7897 29.7867 44.0917 28.3208 44.6619 27.4718ZM65.2107 24.207C62.158 24.1339 59.1444 23.9939 55.9524 23.8463L55.3015 23.816C55.2621 23.8141 55.2228 23.82 55.1858 23.8333C55.1488 23.8465 55.115 23.8669 55.0864 23.8932C55.0578 23.9195 55.0351 23.9512 55.0194 23.9862C55.0038 24.0213 54.9957 24.0591 54.9956 24.0973V39.6756C54.9956 39.7506 55.0263 39.8225 55.081 39.8755C55.1357 39.9284 55.2098 39.9582 55.2872 39.9582C55.7454 39.9582 56.1984 39.9406 56.6723 39.9204C57.1461 39.9002 57.6708 39.88 58.2058 39.88C58.2831 39.88 58.3573 39.8502 58.412 39.7972C58.4667 39.7442 58.4974 39.6724 58.4974 39.5974V27.13C60.7013 27.2044 62.9717 27.2776 65.2094 27.2776C65.2593 27.2772 65.3083 27.2641 65.3513 27.2397C65.3963 27.2154 65.4338 27.1799 65.4599 27.1369C65.486 27.0939 65.4997 27.0449 65.4997 26.995V24.4884C65.4994 24.4141 65.4689 24.3429 65.4148 24.2903C65.3607 24.2376 65.2874 24.2077 65.2107 24.207ZM77.9267 36.4146C75.3882 36.4146 72.765 36.4146 70.2812 36.484V32.9909H77.1104C77.1878 32.9909 77.2619 32.9611 77.3166 32.9082C77.3713 32.8552 77.402 32.7833 77.402 32.7083V30.2042C77.402 30.1293 77.3713 30.0574 77.3166 30.0044C77.2619 29.9514 77.1878 29.9217 77.1104 29.9217H70.2747V27.2056C72.7481 27.2763 75.1968 27.2763 77.5648 27.2763C77.6421 27.2763 77.7163 27.2465 77.771 27.1935C77.8256 27.1405 77.8564 27.0687 77.8564 26.9937V24.4884C77.8565 24.4512 77.8491 24.4144 77.8345 24.38C77.8199 24.3457 77.7985 24.3145 77.7713 24.2882C77.7442 24.2619 77.712 24.2411 77.6766 24.227C77.6411 24.2128 77.6031 24.2056 77.5648 24.2058C75.8008 24.2058 74.0135 24.1856 72.286 24.1667C70.6002 24.1478 68.8558 24.1276 67.1765 24.1276C67.0991 24.1276 67.0249 24.1573 66.9703 24.2103C66.9156 24.2633 66.8849 24.3352 66.8849 24.4101V39.2846C66.8849 39.3595 66.9156 39.4314 66.9703 39.4844C67.0249 39.5374 67.0991 39.5672 67.1765 39.5672H67.183C70.6822 39.4889 74.3584 39.4889 77.9149 39.4889C77.9923 39.4889 78.0665 39.4592 78.1211 39.4062C78.1758 39.3532 78.2066 39.2813 78.2066 39.2064V36.701C78.2076 36.6273 78.179 36.5562 78.1267 36.5027C78.0744 36.4492 78.0026 36.4176 77.9267 36.4146ZM91.6905 25.789C90.5671 24.5085 88.8643 23.8046 86.8934 23.8046C86.7814 23.8046 86.6669 23.8046 86.5641 23.8122C86.4417 23.8122 86.3206 23.8122 86.2009 23.8223C85.8041 23.8344 85.4089 23.8766 85.0188 23.9484C84.2643 24.086 83.5466 24.3715 82.9099 24.7873C81.8372 25.3512 80.9768 26.2305 80.348 27.4113C79.7453 28.6248 79.4185 30.1071 79.3912 31.7004V32.2756C79.4589 34.5993 80.1723 36.4172 81.5626 37.8149C82.4582 38.7774 83.6324 39.4057 85.0657 39.6933C85.4523 39.7694 85.8437 39.8208 86.2373 39.8472C86.3401 39.8535 86.443 39.8611 86.5471 39.8649C86.6513 39.8686 86.7867 39.8712 86.9038 39.8712C88.8461 39.8712 90.3692 39.2492 91.5538 37.9789C92.9403 36.5837 93.6536 34.7154 93.7278 32.2756C93.7278 32.1306 93.7356 31.983 93.7356 31.8329V31.7004C93.7174 29.1723 93.0262 27.1779 91.6905 25.794V25.789ZM90.226 32.2857C90.1518 33.6583 89.7808 34.7924 89.1377 35.5833C88.5207 36.3402 87.6927 36.7187 86.6122 36.7262H86.5654C86.1791 36.7252 85.7966 36.6515 85.4393 36.5093C84.8837 36.2816 84.3874 35.9369 83.9865 35.5001C83.3864 34.7595 83.0753 33.7037 83.0154 32.2908C83.0154 32.1457 83.005 32.0006 83.005 31.848V31.7155C83.0232 30.1084 83.3512 28.8935 83.9813 28.119C84.2967 27.7535 84.6918 27.4605 85.1382 27.2608C85.5846 27.0612 86.0712 26.9601 86.5628 26.9647H86.5875C87.6641 26.9647 88.5011 27.3217 89.1364 28.0307C89.8394 28.8961 90.2286 30.2042 90.239 31.7155V31.7698C90.2429 31.9464 90.2364 32.1192 90.226 32.2895V32.2857ZM105.241 37.4075C105.038 36.9218 104.85 36.4563 104.658 35.992L104.46 35.495C104.199 34.8945 103.956 34.3748 103.739 33.9282C103.529 33.4864 103.296 33.0556 103.04 32.6377L103.016 32.6062C102.918 32.4926 102.825 32.3879 102.728 32.2895C102.525 32.076 102.3 31.8832 102.057 31.7143C101.977 31.6588 101.897 31.607 101.813 31.5591C102.091 31.3317 102.313 31.0478 102.464 30.7278C102.725 30.367 103.071 29.6378 103.303 28.6337L103.339 28.529C103.391 28.3788 103.439 28.2388 103.487 28.1026C103.727 27.4151 103.926 26.9079 104.176 26.6291L104.192 26.609C104.238 26.5503 104.294 26.4999 104.358 26.4601C104.585 26.31 104.99 26.1775 105.588 26.1775C105.647 26.1773 105.705 26.1602 105.754 26.1283C105.793 26.1018 105.833 26.0993 105.939 26.0993C105.977 26.0995 106.015 26.0923 106.05 26.0781C106.086 26.064 106.118 26.0432 106.145 26.0169C106.172 25.9906 106.194 25.9594 106.208 25.9251C106.223 25.8907 106.23 25.8539 106.23 25.8167V23.3152C106.23 23.2749 106.221 23.2352 106.204 23.1986C106.186 23.162 106.161 23.1293 106.13 23.1029C106.099 23.0764 106.062 23.0566 106.022 23.045C105.983 23.0333 105.941 23.0299 105.9 23.0351C104.719 23.1941 103.907 23.3492 103.426 23.5069L103.404 23.5132C103.012 23.6258 102.659 23.8374 102.38 24.1263C102.195 24.3067 102.022 24.5048 101.845 24.7154C101.355 25.3739 101.006 26.3075 100.522 27.603V27.6257C100.169 28.8872 99.8319 29.6151 99.6328 29.8826C99.4372 30.1072 99.1711 30.2636 98.8751 30.3279V23.8627C98.8753 23.8236 98.867 23.7848 98.8509 23.749C98.8348 23.7132 98.8111 23.681 98.7814 23.6545C98.7514 23.6283 98.7162 23.6082 98.6779 23.5957C98.6396 23.5831 98.5991 23.5782 98.5588 23.5813C97.5968 23.6621 96.5801 23.7378 95.6662 23.7378C95.628 23.7376 95.5901 23.7448 95.5547 23.7588C95.5193 23.7729 95.4872 23.7936 95.4601 23.8197C95.433 23.8459 95.4115 23.8769 95.3968 23.9111C95.3822 23.9453 95.3746 23.982 95.3746 24.0191V39.6756C95.3746 39.7506 95.4053 39.8225 95.46 39.8755C95.5147 39.9284 95.5889 39.9582 95.6662 39.9582C96.127 39.9582 96.6282 39.9784 97.1138 39.9973C97.5994 40.0162 98.1123 40.0364 98.5835 40.0364C98.6219 40.0366 98.6599 40.0294 98.6953 40.0153C98.7308 40.0011 98.763 39.9803 98.7901 39.954C98.8172 39.9278 98.8387 39.8965 98.8533 39.8622C98.8679 39.8278 98.8753 39.791 98.8751 39.7539V33.1726C99.2116 33.2313 99.5172 33.4 99.7408 33.6507C99.9699 34.1137 100.315 34.8087 100.767 35.8672L102.385 39.7778L102.515 40.0982C102.535 40.1472 102.569 40.1896 102.613 40.2206C102.657 40.2516 102.709 40.27 102.764 40.2736L103.456 40.3253L104.408 40.3934C104.958 40.4325 105.51 40.4716 106.031 40.5095H106.053C106.098 40.5093 106.142 40.4992 106.182 40.48C106.222 40.4607 106.258 40.4329 106.285 40.3985C106.314 40.3607 106.333 40.3166 106.341 40.27C106.348 40.2233 106.344 40.1756 106.328 40.131C105.992 39.2139 105.609 38.2956 105.241 37.4075ZM119.023 24.4846C117.974 23.0061 116.395 22.2252 114.459 22.2252C114.262 22.2252 114.059 22.2341 113.846 22.2505C112.337 22.4182 111.143 22.8484 110.186 23.57C109.136 24.454 108.311 25.5609 107.774 26.8045C107.164 28.1997 106.845 29.851 106.823 31.713V32.2883C106.877 34.921 107.544 37.0618 108.861 38.8279C110.077 40.3783 111.803 41.2803 113.857 41.443C114.074 41.4594 114.287 41.4682 114.491 41.4682C116.333 41.4682 117.773 40.811 118.894 39.4587C120.21 37.8389 120.878 35.4887 120.935 32.2895V31.8467V31.7143C120.922 28.4041 120.292 26.0324 119.023 24.4846ZM117.547 32.2895C117.482 34.0405 117.096 35.5114 116.439 36.4664C115.841 37.3355 115.085 37.7581 114.126 37.7581C114.053 37.7581 113.976 37.7581 113.902 37.7506C112.924 37.6774 112.071 37.1514 111.428 36.2229C110.729 35.2831 110.374 34.0254 110.323 32.2895V31.7143C110.34 29.7917 110.681 28.3259 111.324 27.4643C111.975 26.5143 112.821 26.0173 113.903 25.9504C113.981 25.9504 114.057 25.9429 114.132 25.9429C115.064 25.9429 115.844 26.3541 116.443 27.1564C117.168 28.2098 117.553 29.788 117.561 31.7206V31.7748C117.557 31.9451 117.552 32.118 117.547 32.2895ZM136.257 20.0529C135.785 20.1059 135.308 20.169 134.837 20.2333L134.147 20.3279L133.438 20.4251C132.977 20.4881 132.515 20.5512 132.055 20.6004C131.991 20.6068 131.931 20.6334 131.884 20.6763C131.837 20.7192 131.805 20.7758 131.795 20.8376L131.758 21.0621C131.186 24.5754 130.599 28.1745 130.013 31.708C129.981 31.8997 129.949 32.0915 129.916 32.2832C129.821 32.861 129.725 33.4375 129.63 34.0127C129.529 33.435 129.427 32.8585 129.324 32.2832C129.289 32.0902 129.254 31.9048 129.22 31.708C128.94 30.1525 128.656 28.6097 128.376 27.0959C128.034 25.2364 127.679 23.3114 127.352 21.4595C127.339 21.3885 127.299 21.325 127.239 21.2819C127.18 21.2387 127.105 21.2192 127.032 21.2274L122.829 21.6966C122.758 21.7041 122.692 21.737 122.644 21.7889C122.596 21.8409 122.569 21.9082 122.569 21.978V41.713C122.569 41.783 122.595 41.8506 122.643 41.9028C122.691 41.955 122.758 41.9881 122.829 41.9955C123.685 42.0675 124.531 42.1444 125.49 42.3059C125.532 42.313 125.575 42.3111 125.616 42.3004C125.657 42.2897 125.695 42.2705 125.727 42.2441C125.76 42.2173 125.786 42.1841 125.804 42.1466C125.822 42.1092 125.831 42.0684 125.831 42.0271V29.7085C125.937 30.3758 126.046 31.0444 126.157 31.7143C126.188 31.906 126.218 32.0927 126.251 32.2895C126.676 34.8844 127.12 37.5185 127.577 40.237L127.938 42.3816C127.948 42.4433 127.979 42.5001 128.026 42.5428C128.073 42.5855 128.134 42.6118 128.198 42.6175C129.053 42.6906 129.899 42.7663 130.858 42.9278C130.896 42.9346 130.935 42.9338 130.973 42.9256C131.01 42.9174 131.046 42.9018 131.078 42.8799C131.109 42.8581 131.136 42.8305 131.156 42.7987C131.176 42.7668 131.19 42.7314 131.196 42.6944C131.805 39.0159 132.368 35.5682 132.903 32.2895C132.934 32.0965 132.965 31.9111 132.996 31.7143C133.138 30.8312 133.279 29.9557 133.418 29.0966V42.9644C133.418 43.0296 133.442 43.0927 133.485 43.143C133.527 43.1934 133.587 43.2279 133.653 43.2407C133.719 43.2545 133.783 43.2646 133.856 43.276C134.215 43.3391 134.59 43.3908 134.954 43.4387L135.225 43.4753C135.565 43.522 135.906 43.5712 136.221 43.6317C136.24 43.6337 136.258 43.6337 136.277 43.6317C136.344 43.6322 136.41 43.6094 136.462 43.5674C136.495 43.5412 136.522 43.5082 136.541 43.4707C136.56 43.4331 136.57 43.3921 136.57 43.3504V20.3405C136.57 20.3007 136.561 20.2613 136.544 20.2249C136.527 20.1885 136.503 20.156 136.472 20.1295C136.441 20.1029 136.405 20.083 136.366 20.0709C136.327 20.0588 136.285 20.0548 136.244 20.0592L136.257 20.0529Z" fill="#1C77C3"/>
</svg>
