<svg width="32" height="32" viewBox="0 0 32 32" fill="none" xmlns="http://www.w3.org/2000/svg">
<path fill-rule="evenodd" clip-rule="evenodd" d="M8 0C3.58172 0 0 3.58172 0 8V24C0 28.4183 3.58172 32 8 32H24C28.4183 32 32 28.4183 32 24V8C32 3.58172 28.4183 0 24 0H8ZM8.8 23.2V15.2V7.2H13.5229C18.5349 7.2 19.1408 7.25161 20.38 7.85806C21.2337 8.25806 22.1287 9.17419 22.6107 10.1419C23.0238 10.9548 23.0513 11.0968 23.0513 12.4903C23.0513 13.8839 23.0238 14.0258 22.6244 14.8258C22.3904 15.2903 21.936 15.9226 21.633 16.2194L21.0547 16.7871L22.5143 19.3161C22.8292 19.8563 23.1482 20.4042 23.4337 20.8946C23.8847 21.6691 24.252 22.2999 24.3869 22.529L24.8 23.2L22.3628 23.1742L19.9394 23.1355L18.59 20.4903L17.2544 17.8452L15.0926 17.8065L12.9308 17.7677V20.4903V23.2H10.8654H8.8ZM18.8516 12.6323C18.8516 11.7032 18.4936 11.1484 17.7088 10.8129C17.2269 10.5935 16.8 10.5548 15.0375 10.5548H12.9308V12.4903V14.4258H15.1339C17.5573 14.4258 18.0392 14.3226 18.5487 13.7161C18.7828 13.4452 18.8516 13.1871 18.8516 12.6323Z" fill="#1C77C3"/>
</svg>
