<svg width="32" height="32" viewBox="0 0 32 32" fill="none" xmlns="http://www.w3.org/2000/svg">
<path d="M2.24929 2.24929C0 4.49871 0 8.11943 0 15.36V16.64C0 23.8806 0 27.5014 2.24929 29.7506C4.49871 32 8.11943 32 15.36 32H16.64C23.8806 32 27.5014 32 29.7506 29.7506C32 27.5014 32 23.8806 32 16.64V15.36C32 8.11936 32 4.49864 29.7506 2.24929C27.5014 1.36239e-07 23.8806 0 16.64 0H15.36C8.11936 0 4.49864 1.36239e-07 2.24929 2.24929ZM5.4 9.73343H9.05336C9.17336 15.8401 11.8666 18.4267 14 18.9601V9.73336H17.44V15C19.5466 14.7734 21.76 12.3734 22.5066 9.73336H25.9466C25.6652 11.1025 25.1043 12.3989 24.2991 13.5414C23.4938 14.6839 22.4615 15.648 21.2666 16.3734C22.6007 17.0357 23.779 17.9736 24.7237 19.1251C25.6684 20.2766 26.3579 21.6156 26.7466 23.0534H22.96C22.6111 21.8044 21.901 20.6864 20.919 19.8396C19.9369 18.9927 18.7267 18.4548 17.44 18.2934V23.0534H17.0266C9.73336 23.0534 5.57336 18.0534 5.4 9.73336V9.73343Z" fill="#1C77C3"/>
</svg>
