<svg width="32" height="32" viewBox="0 0 32 32" fill="none" xmlns="http://www.w3.org/2000/svg">
<path fill-rule="evenodd" clip-rule="evenodd" d="M5.19752 0.76267C8.6514 -0.149436 12.2652 0.0639441 15.8019 0C15.594 3.34687 15.7913 6.79787 14.6852 10.0142C13.8323 12.4677 11.7056 14.3691 9.18181 14.9638C6.18361 15.6786 3.07611 15.7372 0.00865529 15.7587C0.107241 12.0197 -0.159301 8.15794 1.01337 4.5497C1.5943 2.62415 3.28132 1.23206 5.19752 0.76267ZM16.2468 0.00791986C19.9354 0.0666226 23.7304 -0.189387 27.3016 0.914668C29.1245 1.448 30.5743 2.91743 31.0993 4.74433C32.176 8.3047 31.9575 12.0836 32 15.7585C28.9299 15.7372 25.8171 15.6839 22.8242 14.9531C20.239 14.3344 18.0563 12.3342 17.2541 9.79533C16.2575 6.63248 16.4281 3.27757 16.2468 0.00791986ZM0.00853807 16.2387C2.73752 16.2547 5.47989 16.3853 8.17698 16.8253C10.8395 17.2333 13.4193 18.8708 14.4719 21.423C15.8711 24.7674 15.522 28.4691 15.8125 32C12.6196 31.9653 9.39225 32.0747 6.2368 31.4905C4.44316 31.1466 2.54303 30.3598 1.59965 28.6983C0.379023 26.5409 0.243073 23.9939 0.101887 21.5725C0.08047 19.7937 -0.0313852 18.0174 0.00853807 16.2387ZM23.2826 16.9401C26.1476 16.3667 29.0846 16.2734 32 16.244C31.9574 19.919 32.1785 23.698 31.0993 27.2582C30.5716 29.0771 29.1271 30.5413 27.3122 31.0827C23.7356 32.1839 19.9327 31.9334 16.2388 31.992C16.4093 28.6451 16.2388 25.1941 17.3315 21.9778C18.2163 19.3723 20.6095 17.4574 23.2826 16.9401Z" fill="#1C77C3"/>
</svg>
