<svg width="38" height="28" viewBox="0 0 38 28" fill="none" xmlns="http://www.w3.org/2000/svg">
<path d="M37.206 4.38105C36.7689 2.65657 35.4813 1.29843 33.8464 0.837521C30.8829 0 19 0 19 0C19 0 7.11713 0 4.15365 0.837521C2.51873 1.2985 1.23108 2.65657 0.794047 4.38105C0 7.50677 0 14.0283 0 14.0283C0 14.0283 0 20.5498 0.794047 23.6755C1.23108 25.4 2.51873 26.7016 4.15365 27.1625C7.11713 28 19 28 19 28C19 28 30.8829 28 33.8464 27.1625C35.4813 26.7016 36.7689 25.4 37.206 23.6755C38 20.5498 38 14.0283 38 14.0283C38 14.0283 38 7.50677 37.206 4.38105ZM15.1136 19.9493V8.10724L25.0454 14.0284L15.1136 19.9493Z" fill="#1C77C3"/>
</svg>
