<svg width="64" height="64" viewBox="0 0 64 64" fill="none" xmlns="http://www.w3.org/2000/svg">
<path d="M18.2858 18.575H18.5858V18.275V14.2796C18.5858 12.9952 19.096 11.7634 20.0042 10.8552C20.9124 9.94695 22.1442 9.43672 23.4286 9.43672H40.576C41.8604 9.43672 43.0922 9.94695 44.0005 10.8552C44.9087 11.7634 45.4189 12.9952 45.4189 14.2796V18.275V18.575H45.7189H54.2903C55.5747 18.575 56.8065 19.0852 57.7147 19.9934C58.623 20.9017 59.1332 22.1335 59.1332 23.4179V49.7036C59.1332 50.988 58.623 52.2198 57.7147 53.128C56.8065 54.0362 55.5747 54.5464 54.2903 54.5464H9.70975C8.42535 54.5464 7.19355 54.0362 6.28533 53.128C5.37712 52.2198 4.86689 50.988 4.86689 49.7036V23.4179C4.86689 22.1335 5.37712 20.9017 6.28533 19.9934C7.19355 19.0852 8.42535 18.575 9.70975 18.575H18.2858ZM42.2903 18.575H42.5903V18.275V14.2796C42.5903 13.7454 42.3781 13.233 42.0004 12.8553C41.6226 12.4775 41.1103 12.2653 40.576 12.2653H23.4286C22.8944 12.2653 22.382 12.4775 22.0043 12.8553C21.6265 13.233 21.4143 13.7454 21.4143 14.2796V18.275V18.575H21.7143H42.2903ZM56.0046 32.3007H56.3046V32.0007V23.4179C56.3046 22.8836 56.0924 22.3713 55.7146 21.9935C55.3369 21.6158 54.8246 21.4036 54.2903 21.4036H9.70975C9.17553 21.4036 8.66319 21.6158 8.28544 21.9935C7.90768 22.3713 7.69547 22.8836 7.69547 23.4179V32.0007V32.3007H7.99547H17.152H17.452V32.0007V29.1436C17.452 28.7685 17.601 28.4088 17.8663 28.1435C18.1315 27.8783 18.4912 27.7293 18.8663 27.7293C19.2414 27.7293 19.6011 27.8783 19.8664 28.1435C20.1316 28.4088 20.2806 28.7685 20.2806 29.1436V32.0007V32.3007H20.5806H43.4378H43.7378V32.0007V29.1436C43.7378 28.7685 43.8868 28.4088 44.152 28.1435C44.4172 27.8783 44.7769 27.7293 45.152 27.7293C45.5271 27.7293 45.8869 27.8783 46.1521 28.1435C46.4173 28.4088 46.5663 28.7685 46.5663 29.1436V32.0007V32.3007H46.8663H56.0046ZM43.7378 35.4293V35.1293H43.4378H20.5806H20.2806V35.4293V38.2864C20.2806 38.6615 20.1316 39.0213 19.8664 39.2865C19.6011 39.5517 19.2414 39.7007 18.8663 39.7007C18.4912 39.7007 18.1315 39.5517 17.8663 39.2865C17.601 39.0213 17.452 38.6615 17.452 38.2864V35.4293V35.1293H17.152H7.99547H7.69547V35.4293V49.7036C7.69547 50.2378 7.90768 50.7501 8.28544 51.1279C8.66319 51.5056 9.17553 51.7179 9.70975 51.7179H54.2903C54.8246 51.7179 55.3369 51.5056 55.7146 51.1279C56.0924 50.7501 56.3046 50.2378 56.3046 49.7036V35.4293V35.1293H56.0046H46.8663H46.5663V35.4293V38.2864C46.5663 38.6615 46.4173 39.0213 46.1521 39.2865C45.8869 39.5517 45.5271 39.7007 45.152 39.7007C44.7769 39.7007 44.4172 39.5517 44.152 39.2865C43.8868 39.0213 43.7378 38.6615 43.7378 38.2864V35.4293Z" fill="#1C77C3" stroke="#F6F7F9" stroke-width="0.6"/>
<g clip-path="url(#clip0_699_9116)">
<path d="M18.2858 19.177H18.5858V18.877V14.9173C18.5858 13.6459 19.0953 12.4261 20.0032 11.5263C20.9112 10.6264 22.1433 10.1203 23.4286 10.1203H40.576C41.8613 10.1203 43.0934 10.6264 44.0014 11.5263C44.9093 12.4261 45.4189 13.6459 45.4189 14.9173V18.877V19.177H45.7189H54.2903C55.5756 19.177 56.8077 19.683 57.7157 20.5829C58.6236 21.4828 59.1332 22.7026 59.1332 23.9739V50.025C59.1332 51.2963 58.6236 52.5162 57.7157 53.416C56.8077 54.3159 55.5756 54.8219 54.2903 54.8219H9.70975C8.42448 54.8219 7.19239 54.3159 6.28438 53.416C5.37646 52.5162 4.86689 51.2963 4.86689 50.025V23.9739C4.86689 22.7026 5.37646 21.4828 6.28438 20.5829C7.19239 19.683 8.42448 19.177 9.70975 19.177H18.2858ZM42.2903 19.177H42.5903V18.877V14.9173C42.5903 14.3862 42.3774 13.8775 41.9994 13.5028C41.6214 13.1282 41.1094 12.9183 40.576 12.9183H23.4286C22.8953 12.9183 22.3832 13.1282 22.0052 13.5028C21.6272 13.8775 21.4143 14.3862 21.4143 14.9173V18.877V19.177H21.7143H42.2903ZM56.0046 32.7802H56.3046V32.4802V23.9739C56.3046 23.4429 56.0917 22.9342 55.7137 22.5595C55.3357 22.1849 54.8237 21.975 54.2903 21.975H9.70975C9.17639 21.975 8.66434 22.1849 8.28639 22.5595C7.90834 22.9342 7.69547 23.4429 7.69547 23.9739V32.4802V32.7802H7.99547H17.152H17.452V32.4802V29.6485C17.452 29.2784 17.6004 28.9228 17.8653 28.6603C18.1303 28.3976 18.4904 28.2496 18.8663 28.2496C19.2423 28.2496 19.6023 28.3976 19.8673 28.6603C20.1323 28.9228 20.2806 29.2784 20.2806 29.6485V32.4802V32.7802H20.5806H43.4378H43.7378V32.4802V29.6485C43.7378 29.2784 43.8861 28.9228 44.151 28.6603C44.4161 28.3976 44.7761 28.2496 45.152 28.2496C45.528 28.2496 45.888 28.3976 46.153 28.6603C46.418 28.9228 46.5663 29.2784 46.5663 29.6485V32.4802V32.7802H46.8663H56.0046ZM43.7378 35.8781V35.5781H43.4378H20.5806H20.2806V35.8781V38.7098C20.2806 39.0799 20.1323 39.4355 19.8673 39.698C19.6023 39.9607 19.2423 40.1087 18.8663 40.1087C18.4904 40.1087 18.1303 39.9607 17.8653 39.698C17.6004 39.4355 17.452 39.0799 17.452 38.7098V35.8781V35.5781H17.152H7.99547H7.69547V35.8781V50.025C7.69547 50.556 7.90834 51.0647 8.28639 51.4394C8.66434 51.814 9.17639 52.0239 9.70975 52.0239H54.2903C54.8237 52.0239 55.3357 51.814 55.7137 51.4394C56.0917 51.0647 56.3046 50.556 56.3046 50.025V35.8781V35.5781H56.0046H46.8663H46.5663V35.8781V38.7098C46.5663 39.0799 46.418 39.4355 46.153 39.698C45.888 39.9607 45.528 40.1087 45.152 40.1087C44.7761 40.1087 44.4161 39.9607 44.151 39.698C43.8861 39.4355 43.7378 39.0799 43.7378 38.7098V35.8781Z" fill="#333333" stroke="white" stroke-width="0.6"/>
</g>
<defs>
<clipPath id="clip0_699_9116">
<rect width="64" height="37" fill="white" transform="translate(0 27)"/>
</clipPath>
</defs>
</svg>
