<svg width="64" height="64" viewBox="0 0 64 64" fill="none" xmlns="http://www.w3.org/2000/svg">
<path d="M18.2858 18.525H18.5358V18.275V14.2796C18.5358 12.9819 19.0512 11.7374 19.9688 10.8198C20.8864 9.90221 22.1309 9.38672 23.4286 9.38672H40.576C41.8737 9.38672 43.1182 9.90221 44.0358 10.8198C44.9534 11.7374 45.4689 12.9819 45.4689 14.2796V18.275V18.525H45.7189H54.2903C55.588 18.525 56.8325 19.0405 57.7501 19.9581C58.6677 20.8757 59.1832 22.1202 59.1832 23.4179V49.7036C59.1832 51.0012 58.6677 52.2458 57.7501 53.1633C56.8325 54.0809 55.588 54.5964 54.2903 54.5964H9.70975C8.41209 54.5964 7.16757 54.0809 6.24998 53.1633C5.33239 52.2458 4.81689 51.0012 4.81689 49.7036V23.4179C4.81689 22.1202 5.33239 20.8757 6.24998 19.9581C7.16757 19.0405 8.41209 18.525 9.70975 18.525H18.2858ZM42.2903 18.525H42.5403V18.275V14.2796C42.5403 13.7586 42.3334 13.259 41.965 12.8906C41.5966 12.5222 41.097 12.3153 40.576 12.3153H23.4286C22.9076 12.3153 22.408 12.5222 22.0396 12.8906C21.6713 13.259 21.4643 13.7586 21.4643 14.2796V18.275V18.525H21.7143H42.2903ZM56.0046 32.2507H56.2546V32.0007V23.4179C56.2546 22.8969 56.0477 22.3973 55.6793 22.0289C55.3109 21.6605 54.8113 21.4536 54.2903 21.4536H9.70975C9.18879 21.4536 8.68917 21.6605 8.32079 22.0289C7.95242 22.3973 7.74547 22.8969 7.74547 23.4179V32.0007V32.2507H7.99547H17.152H17.402V32.0007V29.1436C17.402 28.7552 17.5563 28.3828 17.8309 28.1082C18.1055 27.8336 18.478 27.6793 18.8663 27.6793C19.2547 27.6793 19.6271 27.8336 19.9017 28.1082C20.1763 28.3828 20.3306 28.7552 20.3306 29.1436V32.0007V32.2507H20.5806H43.4378H43.6878V32.0007V29.1436C43.6878 28.7552 43.842 28.3828 44.1166 28.1082C44.3912 27.8336 44.7637 27.6793 45.152 27.6793C45.5404 27.6793 45.9128 27.8336 46.1874 28.1082C46.4621 28.3828 46.6163 28.7552 46.6163 29.1436V32.0007V32.2507H46.8663H56.0046ZM43.6878 35.4293V35.1793H43.4378H20.5806H20.3306V35.4293V38.2864C20.3306 38.6748 20.1763 39.0472 19.9017 39.3218C19.6271 39.5964 19.2547 39.7507 18.8663 39.7507C18.478 39.7507 18.1055 39.5964 17.8309 39.3218C17.5563 39.0472 17.402 38.6748 17.402 38.2864V35.4293V35.1793H17.152H7.99547H7.74547V35.4293V49.7036C7.74547 50.2245 7.95242 50.7242 8.32079 51.0925C8.68917 51.4609 9.18879 51.6679 9.70975 51.6679H54.2903C54.8113 51.6679 55.3109 51.4609 55.6793 51.0925C56.0477 50.7242 56.2546 50.2245 56.2546 49.7036V35.4293V35.1793H56.0046H46.8663H46.6163V35.4293V38.2864C46.6163 38.6748 46.4621 39.0472 46.1874 39.3218C45.9128 39.5964 45.5404 39.7507 45.152 39.7507C44.7637 39.7507 44.3912 39.5964 44.1166 39.3218C43.842 39.0472 43.6878 38.6748 43.6878 38.2864V35.4293Z" fill="#1C77C3" stroke="white" stroke-width="0.5"/>
<g clip-path="url(#clip0_473_8754)">
<path d="M18.2858 19.129H18.5358V18.879V14.9192C18.5358 13.6344 19.0507 12.4018 19.968 11.4927C20.8855 10.5835 22.1302 10.0723 23.4286 10.0723H40.576C41.8744 10.0723 43.1192 10.5835 44.0366 11.4927C44.954 12.4018 45.4689 13.6344 45.4689 14.9192V18.879V19.129H45.7189H54.2903C55.5887 19.129 56.8335 19.6402 57.7509 20.5494C58.6682 21.4585 59.1832 22.6911 59.1832 23.9759V50.0269C59.1832 51.3117 58.6682 52.5443 57.7509 53.4534C56.8335 54.3627 55.5887 54.8739 54.2903 54.8739H9.70975C8.41137 54.8739 7.1666 54.3627 6.24918 53.4534C5.33184 52.5443 4.81689 51.3117 4.81689 50.0269V23.9759C4.81689 22.6911 5.33184 21.4585 6.24918 20.5494C7.1666 19.6402 8.41137 19.129 9.70975 19.129H18.2858ZM42.2903 19.129H42.5403V18.879V14.9192C42.5403 14.4016 42.3328 13.9056 41.9642 13.5403C41.5957 13.175 41.0963 12.9702 40.576 12.9702H23.4286C22.9084 12.9702 22.409 13.175 22.0404 13.5403C21.6718 13.9056 21.4643 14.4016 21.4643 14.9192V18.879V19.129H21.7143H42.2903ZM56.0046 32.7321H56.2546V32.4821V23.9759C56.2546 23.4583 56.0471 22.9623 55.6785 22.597C55.3099 22.2317 54.8106 22.0269 54.2903 22.0269H9.70975C9.18951 22.0269 8.69013 22.2317 8.32159 22.597C7.95297 22.9623 7.74547 23.4583 7.74547 23.9759V32.4821V32.7321H7.99547H17.152H17.402V32.4821V29.6505C17.402 29.2669 17.5558 28.8986 17.8301 28.6267C18.1046 28.3547 18.4773 28.2015 18.8663 28.2015C19.2554 28.2015 19.6281 28.3547 19.9025 28.6267C20.1769 28.8986 20.3306 29.2669 20.3306 29.6505V32.4821V32.7321H20.5806H43.4378H43.6878V32.4821V29.6505C43.6878 29.2669 43.8415 28.8986 44.1158 28.6267C44.3903 28.3547 44.763 28.2015 45.152 28.2015C45.5411 28.2015 45.9138 28.3547 46.1882 28.6267C46.4626 28.8986 46.6163 29.2669 46.6163 29.6505V32.4821V32.7321H46.8663H56.0046ZM43.6878 35.8801V35.6301H43.4378H20.5806H20.3306V35.8801V38.7117C20.3306 39.0953 20.1769 39.4636 19.9025 39.7355C19.6281 40.0075 19.2554 40.1607 18.8663 40.1607C18.4772 40.1607 18.1046 40.0075 17.8301 39.7355C17.5558 39.4636 17.402 39.0953 17.402 38.7117V35.8801V35.6301H17.152H7.99547H7.74547V35.8801V50.0269C7.74547 50.5445 7.95297 51.0405 8.32159 51.4058C8.69013 51.7711 9.18951 51.9759 9.70975 51.9759H54.2903C54.8106 51.9759 55.3099 51.7711 55.6785 51.4058C56.0471 51.0405 56.2546 50.5445 56.2546 50.0269V35.8801V35.6301H56.0046H46.8663H46.6163V35.8801V38.7117C46.6163 39.0953 46.4626 39.4636 46.1882 39.7355C45.9138 40.0075 45.5411 40.1607 45.152 40.1607C44.763 40.1607 44.3903 40.0075 44.1158 39.7355C43.8415 39.4636 43.6878 39.0953 43.6878 38.7117V35.8801Z" fill="#333333" stroke="white" stroke-width="0.5"/>
</g>
<defs>
<clipPath id="clip0_473_8754">
<rect width="64" height="37" fill="white" transform="translate(0 27)"/>
</clipPath>
</defs>
</svg>
