<svg width="64" height="64" viewBox="0 0 64 64" fill="none" xmlns="http://www.w3.org/2000/svg">
<mask id="path-1-inside-1_473_8755" fill="white">
<path d="M19.6159 8.93745C21.7982 7.2847 24.4624 6.39328 27.1999 6.39985C28.1453 6.37865 29.0808 6.59626 29.9199 7.03255C30.7589 7.46884 31.4743 8.10971 31.9999 8.89585C32.5255 8.10971 33.2409 7.46884 34.0799 7.03255C34.919 6.59626 35.8545 6.37865 36.7999 6.39985C39.5374 6.39328 42.2016 7.2847 44.3839 8.93745C46.0639 10.2431 47.3599 12.0511 47.8175 14.2367C48.8671 14.3167 49.8271 14.7519 50.6335 15.4079C51.8559 16.3999 52.7455 17.8879 53.3055 19.4623C54.1823 21.9103 54.4191 25.0303 53.5103 27.6863C53.7407 27.7951 53.9679 27.9231 54.1887 28.0703C55.0687 28.6559 55.7375 29.4943 56.2303 30.4831C57.1999 32.4191 57.5999 35.1199 57.5999 38.3999C57.5999 42.0511 56.2079 44.5023 54.4415 46.0159C53.4647 46.8534 52.312 47.4604 51.0687 47.7919C50.7487 49.5775 49.8527 51.6447 48.4479 53.3983C46.6239 55.6863 43.7951 57.5999 39.9999 57.5999C36.9919 57.5999 34.5983 55.9359 33.0431 54.3039C32.6713 53.9142 32.3229 53.5028 31.9999 53.0718C31.6769 53.5028 31.3286 53.9142 30.9567 54.3039C29.4015 55.9359 27.0111 57.5999 23.9999 57.5999C20.2047 57.5999 17.3791 55.6863 15.5519 53.3983C14.2391 51.768 13.34 49.8446 12.9311 47.7919C11.6878 47.4604 10.5351 46.8534 9.5583 46.0159C7.7919 44.5023 6.3999 42.0479 6.3999 38.3999C6.3999 35.1199 6.8031 32.4159 7.7695 30.4831C8.22752 29.5133 8.93138 28.6804 9.8111 28.0671C10.0272 27.924 10.254 27.7977 10.4895 27.6895C9.5807 25.0271 9.8175 21.9103 10.6943 19.4623C11.2543 17.8879 12.1439 16.3999 13.3663 15.4079C14.1727 14.7519 15.1327 14.3199 16.1823 14.2367C16.6431 12.0511 17.9391 10.2431 19.6191 8.93745H19.6159ZM30.3999 14.3999V14.3679L30.3935 14.2079C30.3464 13.3736 30.1805 12.5504 29.9007 11.7631C29.7015 11.1687 29.3624 10.6309 28.9119 10.1951C28.4392 9.78347 27.8259 9.57024 27.1999 9.59985C25.1741 9.59291 23.2013 10.2468 21.5807 11.4623C20.0959 12.6175 19.1999 14.1823 19.1999 15.9999C19.1997 16.2532 19.1393 16.503 19.0238 16.7285C18.9082 16.9539 18.7407 17.1488 18.5351 17.2969C18.3295 17.445 18.0917 17.5421 17.8412 17.5803C17.5907 17.6186 17.3347 17.5967 17.0943 17.5167C16.4927 17.3183 15.9551 17.4303 15.3823 17.8911C14.7551 18.4031 14.1439 19.3119 13.7055 20.5375C12.8127 23.0399 12.9055 26.0703 14.1311 27.9135C14.3061 28.176 14.3997 28.4843 14.3999 28.7999H16.7999C18.7095 28.7999 20.5408 29.5584 21.8911 30.9087C23.2413 32.2589 23.9999 34.0903 23.9999 35.9999V37.0719C25.0674 37.4493 25.9672 38.192 26.5401 39.1686C27.113 40.1453 27.3222 41.293 27.1308 42.409C26.9393 43.525 26.3595 44.5374 25.4938 45.2672C24.628 45.997 23.5322 46.3973 22.3999 46.3973C21.2676 46.3973 20.1718 45.997 19.306 45.2672C18.4403 44.5374 17.8605 43.525 17.669 42.409C17.4776 41.293 17.6868 40.1453 18.2597 39.1686C18.8326 38.192 19.7324 37.4493 20.7999 37.0719V35.9999C20.7999 33.7919 19.0079 31.9999 16.7999 31.9999H11.1999C11.0086 31.9995 10.8189 31.9649 10.6399 31.8975L10.6303 31.9167C9.9967 33.1807 9.5999 35.2799 9.5999 38.3999C9.5999 41.1487 10.6079 42.6975 11.6415 43.5839C12.7519 44.5375 13.9839 44.7999 14.3999 44.7999C14.8242 44.7999 15.2312 44.9684 15.5313 45.2685C15.8313 45.5685 15.9999 45.9755 15.9999 46.3999C15.9999 47.5775 16.6399 49.6351 18.0479 51.4015C19.4207 53.1135 21.3951 54.3999 23.9999 54.3999C25.7919 54.3999 27.3983 53.3983 28.6399 52.0959C29.2511 51.4559 29.7279 50.7935 30.0383 50.2495C30.1796 50.0082 30.3006 49.7556 30.3999 49.4943V23.9999H26.9279C26.5505 25.0674 25.8078 25.9671 24.8311 26.5401C23.8545 27.113 22.7067 27.3222 21.5907 27.1307C20.4747 26.9392 19.4624 26.3594 18.7325 25.4937C18.0027 24.628 17.6024 23.5322 17.6024 22.3999C17.6024 21.2676 18.0027 20.1717 18.7325 19.306C19.4624 18.4403 20.4747 17.8605 21.5907 17.669C22.7067 17.4775 23.8545 17.6867 24.8311 18.2596C25.8078 18.8326 26.5505 19.7323 26.9279 20.7999H30.3999V14.3999ZM33.5999 46.3967V49.4911C33.6993 49.7524 33.8202 50.005 33.9615 50.2463C34.2751 50.7903 34.7487 51.4527 35.3567 52.0927C36.6015 53.3951 38.2111 54.3967 39.9999 54.3967C42.6047 54.3967 44.5791 53.1103 45.9519 51.3983C47.3599 49.6319 47.9999 47.5743 47.9999 46.3967C47.9999 45.9723 48.1685 45.5653 48.4685 45.2653C48.7686 44.9652 49.1756 44.7967 49.5999 44.7967C50.0159 44.7967 51.2479 44.5343 52.3583 43.5807C53.3919 42.6943 54.3999 41.1455 54.3999 38.3967C54.3999 35.2767 53.9999 33.1807 53.3695 31.9135C53.1586 31.4416 52.8276 31.0333 52.4095 30.7295C52.0492 30.4991 51.6272 30.3841 51.1999 30.3999C50.9105 30.3997 50.6265 30.3211 50.3783 30.1723C50.13 30.0235 49.9268 29.8102 49.7902 29.5551C49.6536 29.2999 49.5887 29.0125 49.6026 28.7234C49.6164 28.4343 49.7084 28.1544 49.8687 27.9135C51.0975 26.0703 51.1871 23.0399 50.2943 20.5375C49.8559 19.3119 49.2447 18.3999 48.6175 17.8911C48.0447 17.4303 47.5071 17.3151 46.9055 17.5167C46.6651 17.5967 46.4091 17.6186 46.1586 17.5803C45.9081 17.5421 45.6703 17.445 45.4647 17.2969C45.2591 17.1488 45.0916 16.9539 44.976 16.7285C44.8605 16.503 44.8001 16.2532 44.7999 15.9999C44.7999 14.1823 43.9039 12.6175 42.4159 11.4623C40.7962 10.2474 38.8246 9.5936 36.7999 9.59985C36.1739 9.57024 35.5606 9.78347 35.0879 10.1951C34.636 10.6304 34.2958 11.1683 34.0959 11.7631C33.7913 12.5989 33.6238 13.4785 33.5999 14.3679V43.1999H35.9999C38.2079 43.1999 39.9999 41.4079 39.9999 39.1999V33.3279C38.9324 32.9504 38.0326 32.2077 37.4597 31.2311C36.8868 30.2544 36.6776 29.1067 36.869 27.9907C37.0605 26.8747 37.6403 25.8623 38.506 25.1325C39.3718 24.4027 40.4676 24.0024 41.5999 24.0024C42.7322 24.0024 43.828 24.4027 44.6938 25.1325C45.5595 25.8623 46.1393 26.8747 46.3308 27.9907C46.5222 29.1067 46.313 30.2544 45.7401 31.2311C45.1672 32.2077 44.2674 32.9504 43.1999 33.3279V39.1999C43.1999 41.1094 42.4413 42.9408 41.0911 44.291C39.7408 45.6413 37.9095 46.3999 35.9999 46.3999H33.5999V46.3967ZM20.7999 22.3999C20.7999 22.8242 20.9685 23.2312 21.2685 23.5312C21.5686 23.8313 21.9756 23.9999 22.3999 23.9999C22.8242 23.9999 23.2312 23.8313 23.5313 23.5312C23.8313 23.2312 23.9999 22.8242 23.9999 22.3999C23.9999 21.9755 23.8313 21.5685 23.5313 21.2685C23.2312 20.9684 22.8242 20.7999 22.3999 20.7999C21.9756 20.7999 21.5686 20.9684 21.2685 21.2685C20.9685 21.5685 20.7999 21.9755 20.7999 22.3999ZM41.5999 30.3999C42.0243 30.3999 42.4312 30.2313 42.7313 29.9312C43.0313 29.6312 43.1999 29.2242 43.1999 28.7999C43.1999 28.3755 43.0313 27.9685 42.7313 27.6685C42.4312 27.3684 42.0243 27.1999 41.5999 27.1999C41.1756 27.1999 40.7686 27.3684 40.4685 27.6685C40.1685 27.9685 39.9999 28.3755 39.9999 28.7999C39.9999 29.2242 40.1685 29.6312 40.4685 29.9312C40.7686 30.2313 41.1756 30.3999 41.5999 30.3999ZM22.3999 39.9999C21.9756 39.9999 21.5686 40.1684 21.2685 40.4685C20.9685 40.7685 20.7999 41.1755 20.7999 41.5999C20.7999 42.0242 20.9685 42.4312 21.2685 42.7312C21.5686 43.0313 21.9756 43.1999 22.3999 43.1999C22.8242 43.1999 23.2312 43.0313 23.5313 42.7312C23.8313 42.4312 23.9999 42.0242 23.9999 41.5999C23.9999 41.1755 23.8313 40.7685 23.5313 40.4685C23.2312 40.1684 22.8242 39.9999 22.3999 39.9999Z"/>
</mask>
<path d="M19.6159 8.93745C21.7982 7.2847 24.4624 6.39328 27.1999 6.39985C28.1453 6.37865 29.0808 6.59626 29.9199 7.03255C30.7589 7.46884 31.4743 8.10971 31.9999 8.89585C32.5255 8.10971 33.2409 7.46884 34.0799 7.03255C34.919 6.59626 35.8545 6.37865 36.7999 6.39985C39.5374 6.39328 42.2016 7.2847 44.3839 8.93745C46.0639 10.2431 47.3599 12.0511 47.8175 14.2367C48.8671 14.3167 49.8271 14.7519 50.6335 15.4079C51.8559 16.3999 52.7455 17.8879 53.3055 19.4623C54.1823 21.9103 54.4191 25.0303 53.5103 27.6863C53.7407 27.7951 53.9679 27.9231 54.1887 28.0703C55.0687 28.6559 55.7375 29.4943 56.2303 30.4831C57.1999 32.4191 57.5999 35.1199 57.5999 38.3999C57.5999 42.0511 56.2079 44.5023 54.4415 46.0159C53.4647 46.8534 52.312 47.4604 51.0687 47.7919C50.7487 49.5775 49.8527 51.6447 48.4479 53.3983C46.6239 55.6863 43.7951 57.5999 39.9999 57.5999C36.9919 57.5999 34.5983 55.9359 33.0431 54.3039C32.6713 53.9142 32.3229 53.5028 31.9999 53.0718C31.6769 53.5028 31.3286 53.9142 30.9567 54.3039C29.4015 55.9359 27.0111 57.5999 23.9999 57.5999C20.2047 57.5999 17.3791 55.6863 15.5519 53.3983C14.2391 51.768 13.34 49.8446 12.9311 47.7919C11.6878 47.4604 10.5351 46.8534 9.5583 46.0159C7.7919 44.5023 6.3999 42.0479 6.3999 38.3999C6.3999 35.1199 6.8031 32.4159 7.7695 30.4831C8.22752 29.5133 8.93138 28.6804 9.8111 28.0671C10.0272 27.924 10.254 27.7977 10.4895 27.6895C9.5807 25.0271 9.8175 21.9103 10.6943 19.4623C11.2543 17.8879 12.1439 16.3999 13.3663 15.4079C14.1727 14.7519 15.1327 14.3199 16.1823 14.2367C16.6431 12.0511 17.9391 10.2431 19.6191 8.93745H19.6159ZM30.3999 14.3999V14.3679L30.3935 14.2079C30.3464 13.3736 30.1805 12.5504 29.9007 11.7631C29.7015 11.1687 29.3624 10.6309 28.9119 10.1951C28.4392 9.78347 27.8259 9.57024 27.1999 9.59985C25.1741 9.59291 23.2013 10.2468 21.5807 11.4623C20.0959 12.6175 19.1999 14.1823 19.1999 15.9999C19.1997 16.2532 19.1393 16.503 19.0238 16.7285C18.9082 16.9539 18.7407 17.1488 18.5351 17.2969C18.3295 17.445 18.0917 17.5421 17.8412 17.5803C17.5907 17.6186 17.3347 17.5967 17.0943 17.5167C16.4927 17.3183 15.9551 17.4303 15.3823 17.8911C14.7551 18.4031 14.1439 19.3119 13.7055 20.5375C12.8127 23.0399 12.9055 26.0703 14.1311 27.9135C14.3061 28.176 14.3997 28.4843 14.3999 28.7999H16.7999C18.7095 28.7999 20.5408 29.5584 21.8911 30.9087C23.2413 32.2589 23.9999 34.0903 23.9999 35.9999V37.0719C25.0674 37.4493 25.9672 38.192 26.5401 39.1686C27.113 40.1453 27.3222 41.293 27.1308 42.409C26.9393 43.525 26.3595 44.5374 25.4938 45.2672C24.628 45.997 23.5322 46.3973 22.3999 46.3973C21.2676 46.3973 20.1718 45.997 19.306 45.2672C18.4403 44.5374 17.8605 43.525 17.669 42.409C17.4776 41.293 17.6868 40.1453 18.2597 39.1686C18.8326 38.192 19.7324 37.4493 20.7999 37.0719V35.9999C20.7999 33.7919 19.0079 31.9999 16.7999 31.9999H11.1999C11.0086 31.9995 10.8189 31.9649 10.6399 31.8975L10.6303 31.9167C9.9967 33.1807 9.5999 35.2799 9.5999 38.3999C9.5999 41.1487 10.6079 42.6975 11.6415 43.5839C12.7519 44.5375 13.9839 44.7999 14.3999 44.7999C14.8242 44.7999 15.2312 44.9684 15.5313 45.2685C15.8313 45.5685 15.9999 45.9755 15.9999 46.3999C15.9999 47.5775 16.6399 49.6351 18.0479 51.4015C19.4207 53.1135 21.3951 54.3999 23.9999 54.3999C25.7919 54.3999 27.3983 53.3983 28.6399 52.0959C29.2511 51.4559 29.7279 50.7935 30.0383 50.2495C30.1796 50.0082 30.3006 49.7556 30.3999 49.4943V23.9999H26.9279C26.5505 25.0674 25.8078 25.9671 24.8311 26.5401C23.8545 27.113 22.7067 27.3222 21.5907 27.1307C20.4747 26.9392 19.4624 26.3594 18.7325 25.4937C18.0027 24.628 17.6024 23.5322 17.6024 22.3999C17.6024 21.2676 18.0027 20.1717 18.7325 19.306C19.4624 18.4403 20.4747 17.8605 21.5907 17.669C22.7067 17.4775 23.8545 17.6867 24.8311 18.2596C25.8078 18.8326 26.5505 19.7323 26.9279 20.7999H30.3999V14.3999ZM33.5999 46.3967V49.4911C33.6993 49.7524 33.8202 50.005 33.9615 50.2463C34.2751 50.7903 34.7487 51.4527 35.3567 52.0927C36.6015 53.3951 38.2111 54.3967 39.9999 54.3967C42.6047 54.3967 44.5791 53.1103 45.9519 51.3983C47.3599 49.6319 47.9999 47.5743 47.9999 46.3967C47.9999 45.9723 48.1685 45.5653 48.4685 45.2653C48.7686 44.9652 49.1756 44.7967 49.5999 44.7967C50.0159 44.7967 51.2479 44.5343 52.3583 43.5807C53.3919 42.6943 54.3999 41.1455 54.3999 38.3967C54.3999 35.2767 53.9999 33.1807 53.3695 31.9135C53.1586 31.4416 52.8276 31.0333 52.4095 30.7295C52.0492 30.4991 51.6272 30.3841 51.1999 30.3999C50.9105 30.3997 50.6265 30.3211 50.3783 30.1723C50.13 30.0235 49.9268 29.8102 49.7902 29.5551C49.6536 29.2999 49.5887 29.0125 49.6026 28.7234C49.6164 28.4343 49.7084 28.1544 49.8687 27.9135C51.0975 26.0703 51.1871 23.0399 50.2943 20.5375C49.8559 19.3119 49.2447 18.3999 48.6175 17.8911C48.0447 17.4303 47.5071 17.3151 46.9055 17.5167C46.6651 17.5967 46.4091 17.6186 46.1586 17.5803C45.9081 17.5421 45.6703 17.445 45.4647 17.2969C45.2591 17.1488 45.0916 16.9539 44.976 16.7285C44.8605 16.503 44.8001 16.2532 44.7999 15.9999C44.7999 14.1823 43.9039 12.6175 42.4159 11.4623C40.7962 10.2474 38.8246 9.5936 36.7999 9.59985C36.1739 9.57024 35.5606 9.78347 35.0879 10.1951C34.636 10.6304 34.2958 11.1683 34.0959 11.7631C33.7913 12.5989 33.6238 13.4785 33.5999 14.3679V43.1999H35.9999C38.2079 43.1999 39.9999 41.4079 39.9999 39.1999V33.3279C38.9324 32.9504 38.0326 32.2077 37.4597 31.2311C36.8868 30.2544 36.6776 29.1067 36.869 27.9907C37.0605 26.8747 37.6403 25.8623 38.506 25.1325C39.3718 24.4027 40.4676 24.0024 41.5999 24.0024C42.7322 24.0024 43.828 24.4027 44.6938 25.1325C45.5595 25.8623 46.1393 26.8747 46.3308 27.9907C46.5222 29.1067 46.313 30.2544 45.7401 31.2311C45.1672 32.2077 44.2674 32.9504 43.1999 33.3279V39.1999C43.1999 41.1094 42.4413 42.9408 41.0911 44.291C39.7408 45.6413 37.9095 46.3999 35.9999 46.3999H33.5999V46.3967ZM20.7999 22.3999C20.7999 22.8242 20.9685 23.2312 21.2685 23.5312C21.5686 23.8313 21.9756 23.9999 22.3999 23.9999C22.8242 23.9999 23.2312 23.8313 23.5313 23.5312C23.8313 23.2312 23.9999 22.8242 23.9999 22.3999C23.9999 21.9755 23.8313 21.5685 23.5313 21.2685C23.2312 20.9684 22.8242 20.7999 22.3999 20.7999C21.9756 20.7999 21.5686 20.9684 21.2685 21.2685C20.9685 21.5685 20.7999 21.9755 20.7999 22.3999ZM41.5999 30.3999C42.0243 30.3999 42.4312 30.2313 42.7313 29.9312C43.0313 29.6312 43.1999 29.2242 43.1999 28.7999C43.1999 28.3755 43.0313 27.9685 42.7313 27.6685C42.4312 27.3684 42.0243 27.1999 41.5999 27.1999C41.1756 27.1999 40.7686 27.3684 40.4685 27.6685C40.1685 27.9685 39.9999 28.3755 39.9999 28.7999C39.9999 29.2242 40.1685 29.6312 40.4685 29.9312C40.7686 30.2313 41.1756 30.3999 41.5999 30.3999ZM22.3999 39.9999C21.9756 39.9999 21.5686 40.1684 21.2685 40.4685C20.9685 40.7685 20.7999 41.1755 20.7999 41.5999C20.7999 42.0242 20.9685 42.4312 21.2685 42.7312C21.5686 43.0313 21.9756 43.1999 22.3999 43.1999C22.8242 43.1999 23.2312 43.0313 23.5313 42.7312C23.8313 42.4312 23.9999 42.0242 23.9999 41.5999C23.9999 41.1755 23.8313 40.7685 23.5313 40.4685C23.2312 40.1684 22.8242 39.9999 22.3999 39.9999Z" fill="#1C77C3" stroke="white" stroke-width="0.8" mask="url(#path-1-inside-1_473_8755)"/>
<g clip-path="url(#clip0_473_8755)">
<mask id="path-2-inside-2_473_8755" fill="white">
<path d="M19.6161 8.93745C21.7985 7.2847 24.4626 6.39328 27.2001 6.39985C28.1456 6.37865 29.0811 6.59626 29.9201 7.03255C30.7591 7.46884 31.4745 8.10971 32.0001 8.89585C32.5258 8.10971 33.2412 7.46884 34.0802 7.03255C34.9192 6.59626 35.8547 6.37865 36.8001 6.39985C39.5377 6.39328 42.2018 7.2847 44.3841 8.93745C46.0641 10.2431 47.3601 12.0511 47.8177 14.2366C48.8673 14.3167 49.8273 14.7519 50.6337 15.4079C51.8561 16.3999 52.7457 17.8878 53.3057 19.4622C54.1825 21.9102 54.4193 25.0303 53.5105 27.6863C53.7409 27.7951 53.9681 27.9231 54.1889 28.0703C55.0689 28.6559 55.7377 29.4943 56.2305 30.4831C57.2001 32.4191 57.6001 35.1199 57.6001 38.3999C57.6001 42.0511 56.2081 44.5023 54.4417 46.0159C53.4649 46.8534 52.3122 47.4604 51.0689 47.7919C50.7489 49.5775 49.8529 51.6447 48.4481 53.3983C46.6241 55.6863 43.7953 57.5999 40.0001 57.5999C36.9921 57.5999 34.5985 55.9358 33.0433 54.3038C32.6715 53.9142 32.3232 53.5028 32.0001 53.0718C31.6771 53.5028 31.3288 53.9142 30.9569 54.3038C29.4017 55.9358 27.0113 57.5999 24.0001 57.5999C20.2049 57.5999 17.3793 55.6863 15.5521 53.3983C14.2394 51.768 13.3402 49.8446 12.9313 47.7919C11.6881 47.4604 10.5353 46.8534 9.55855 46.0159C7.79215 44.5023 6.40015 42.0479 6.40015 38.3999C6.40015 35.1199 6.80335 32.4159 7.76975 30.4831C8.22776 29.5133 8.93162 28.6804 9.81135 28.0671C10.0275 27.924 10.2543 27.7977 10.4897 27.6895C9.58095 25.0271 9.81775 21.9102 10.6945 19.4622C11.2545 17.8878 12.1441 16.3999 13.3665 15.4079C14.1729 14.7519 15.1329 14.3198 16.1825 14.2366C16.6433 12.0511 17.9393 10.2431 19.6193 8.93745H19.6161ZM30.4001 14.3999V14.3678L30.3937 14.2079C30.3466 13.3736 30.1807 12.5504 29.9009 11.7631C29.7018 11.1687 29.3627 10.6309 28.9121 10.1951C28.4395 9.78347 27.8262 9.57024 27.2001 9.59985C25.1744 9.59291 23.2016 10.2468 21.5809 11.4623C20.0961 12.6175 19.2001 14.1823 19.2001 15.9999C19.2 16.2532 19.1396 16.503 19.024 16.7284C18.9084 16.9539 18.7409 17.1488 18.5353 17.2969C18.3297 17.445 18.0919 17.5421 17.8414 17.5803C17.5909 17.6185 17.335 17.5967 17.0945 17.5167C16.4929 17.3183 15.9553 17.4303 15.3825 17.8911C14.7553 18.4031 14.1441 19.3119 13.7057 20.5375C12.8129 23.0399 12.9057 26.0702 14.1313 27.9135C14.3064 28.176 14.3999 28.4843 14.4001 28.7999H16.8001C18.7097 28.7999 20.5411 29.5584 21.8913 30.9087C23.2416 32.2589 24.0001 34.0903 24.0001 35.9999V37.0719C25.0677 37.4493 25.9674 38.192 26.5404 39.1686C27.1133 40.1453 27.3225 41.293 27.131 42.409C26.9395 43.525 26.3597 44.5374 25.494 45.2672C24.6283 45.997 23.5324 46.3973 22.4001 46.3973C21.2678 46.3973 20.172 45.997 19.3063 45.2672C18.4406 44.5374 17.8607 43.525 17.6693 42.409C17.4778 41.293 17.687 40.1453 18.2599 39.1686C18.8329 38.192 19.7326 37.4493 20.8001 37.0719V35.9999C20.8001 33.7919 19.0081 31.9999 16.8001 31.9999H11.2001C11.0089 31.9995 10.8192 31.9649 10.6401 31.8975L10.6305 31.9167C9.99695 33.1807 9.60015 35.2799 9.60015 38.3999C9.60015 41.1487 10.6081 42.6974 11.6417 43.5839C12.7521 44.5374 13.9841 44.7999 14.4001 44.7999C14.8245 44.7999 15.2315 44.9684 15.5315 45.2685C15.8316 45.5685 16.0001 45.9755 16.0001 46.3999C16.0001 47.5774 16.6401 49.6351 18.0481 51.4015C19.4209 53.1134 21.3953 54.3999 24.0001 54.3999C25.7921 54.3999 27.3985 53.3983 28.6401 52.0959C29.2513 51.4559 29.7281 50.7935 30.0385 50.2495C30.1798 50.0082 30.3008 49.7556 30.4001 49.4943V23.9999H26.9281C26.5507 25.0674 25.808 25.9671 24.8314 26.5401C23.8547 27.113 22.707 27.3222 21.591 27.1307C20.475 26.9392 19.4626 26.3594 18.7328 25.4937C18.003 24.628 17.6027 23.5322 17.6027 22.3999C17.6027 21.2676 18.003 20.1717 18.7328 19.306C19.4626 18.4403 20.475 17.8605 21.591 17.669C22.707 17.4775 23.8547 17.6867 24.8314 18.2596C25.808 18.8326 26.5507 19.7323 26.9281 20.7999H30.4001V14.3999ZM33.6001 46.3966V49.4911C33.6995 49.7524 33.8205 50.005 33.9617 50.2463C34.2753 50.7902 34.7489 51.4526 35.3569 52.0926C36.6017 53.3951 38.2113 54.3967 40.0001 54.3967C42.6049 54.3967 44.5793 53.1103 45.9521 51.3983C47.3601 49.6319 48.0001 47.5742 48.0001 46.3966C48.0001 45.9723 48.1687 45.5653 48.4688 45.2653C48.7688 44.9652 49.1758 44.7966 49.6001 44.7966C50.0161 44.7966 51.2481 44.5343 52.3585 43.5807C53.3921 42.6943 54.4001 41.1455 54.4001 38.3967C54.4001 35.2766 54.0001 33.1806 53.3697 31.9135C53.1588 31.4416 52.8278 31.0333 52.4097 30.7295C52.0494 30.4991 51.6275 30.3841 51.2001 30.3999C50.9107 30.3997 50.6268 30.3211 50.3785 30.1723C50.1303 30.0235 49.927 29.8102 49.7904 29.5551C49.6538 29.2999 49.589 29.0125 49.6028 28.7234C49.6166 28.4343 49.7086 28.1544 49.8689 27.9135C51.0977 26.0702 51.1873 23.0399 50.2945 20.5375C49.8561 19.3119 49.2449 18.3999 48.6177 17.8911C48.0449 17.4303 47.5073 17.3151 46.9057 17.5167C46.6653 17.5967 46.4094 17.6185 46.1589 17.5803C45.9084 17.5421 45.6705 17.445 45.4649 17.2969C45.2593 17.1488 45.0919 16.9539 44.9763 16.7284C44.8607 16.503 44.8003 16.2532 44.8001 15.9999C44.8001 14.1823 43.9041 12.6175 42.4161 11.4623C40.7964 10.2474 38.8248 9.5936 36.8001 9.59985C36.1741 9.57024 35.5608 9.78347 35.0881 10.1951C34.6363 10.6304 34.296 11.1683 34.0961 11.7631C33.7915 12.5989 33.624 13.4785 33.6001 14.3678V43.1999H36.0001C38.2081 43.1999 40.0001 41.4079 40.0001 39.1999V33.3279C38.9326 32.9504 38.0329 32.2077 37.4599 31.2311C36.887 30.2544 36.6778 29.1067 36.8693 27.9907C37.0607 26.8747 37.6406 25.8623 38.5063 25.1325C39.372 24.4027 40.4678 24.0024 41.6001 24.0024C42.7324 24.0024 43.8283 24.4027 44.694 25.1325C45.5597 25.8623 46.1395 26.8747 46.331 27.9907C46.5225 29.1067 46.3133 30.2544 45.7404 31.2311C45.1674 32.2077 44.2677 32.9504 43.2001 33.3279V39.1999C43.2001 41.1094 42.4416 42.9408 41.0913 44.291C39.7411 45.6413 37.9097 46.3999 36.0001 46.3999H33.6001V46.3966ZM20.8001 22.3999C20.8001 22.8242 20.9687 23.2312 21.2688 23.5312C21.5688 23.8313 21.9758 23.9999 22.4001 23.9999C22.8245 23.9999 23.2315 23.8313 23.5315 23.5312C23.8316 23.2312 24.0001 22.8242 24.0001 22.3999C24.0001 21.9755 23.8316 21.5685 23.5315 21.2685C23.2315 20.9684 22.8245 20.7999 22.4001 20.7999C21.9758 20.7999 21.5688 20.9684 21.2688 21.2685C20.9687 21.5685 20.8001 21.9755 20.8001 22.3999ZM41.6001 30.3999C42.0245 30.3999 42.4315 30.2313 42.7315 29.9312C43.0316 29.6312 43.2001 29.2242 43.2001 28.7999C43.2001 28.3755 43.0316 27.9685 42.7315 27.6685C42.4315 27.3684 42.0245 27.1999 41.6001 27.1999C41.1758 27.1999 40.7688 27.3684 40.4688 27.6685C40.1687 27.9685 40.0001 28.3755 40.0001 28.7999C40.0001 29.2242 40.1687 29.6312 40.4688 29.9312C40.7688 30.2313 41.1758 30.3999 41.6001 30.3999ZM22.4001 39.9999C21.9758 39.9999 21.5688 40.1684 21.2688 40.4685C20.9687 40.7685 20.8001 41.1755 20.8001 41.5998C20.8001 42.0242 20.9687 42.4312 21.2688 42.7312C21.5688 43.0313 21.9758 43.1999 22.4001 43.1999C22.8245 43.1999 23.2315 43.0313 23.5315 42.7312C23.8316 42.4312 24.0001 42.0242 24.0001 41.5998C24.0001 41.1755 23.8316 40.7685 23.5315 40.4685C23.2315 40.1684 22.8245 39.9999 22.4001 39.9999Z"/>
</mask>
<path d="M19.6161 8.93745C21.7985 7.2847 24.4626 6.39328 27.2001 6.39985C28.1456 6.37865 29.0811 6.59626 29.9201 7.03255C30.7591 7.46884 31.4745 8.10971 32.0001 8.89585C32.5258 8.10971 33.2412 7.46884 34.0802 7.03255C34.9192 6.59626 35.8547 6.37865 36.8001 6.39985C39.5377 6.39328 42.2018 7.2847 44.3841 8.93745C46.0641 10.2431 47.3601 12.0511 47.8177 14.2366C48.8673 14.3167 49.8273 14.7519 50.6337 15.4079C51.8561 16.3999 52.7457 17.8878 53.3057 19.4622C54.1825 21.9102 54.4193 25.0303 53.5105 27.6863C53.7409 27.7951 53.9681 27.9231 54.1889 28.0703C55.0689 28.6559 55.7377 29.4943 56.2305 30.4831C57.2001 32.4191 57.6001 35.1199 57.6001 38.3999C57.6001 42.0511 56.2081 44.5023 54.4417 46.0159C53.4649 46.8534 52.3122 47.4604 51.0689 47.7919C50.7489 49.5775 49.8529 51.6447 48.4481 53.3983C46.6241 55.6863 43.7953 57.5999 40.0001 57.5999C36.9921 57.5999 34.5985 55.9358 33.0433 54.3038C32.6715 53.9142 32.3232 53.5028 32.0001 53.0718C31.6771 53.5028 31.3288 53.9142 30.9569 54.3038C29.4017 55.9358 27.0113 57.5999 24.0001 57.5999C20.2049 57.5999 17.3793 55.6863 15.5521 53.3983C14.2394 51.768 13.3402 49.8446 12.9313 47.7919C11.6881 47.4604 10.5353 46.8534 9.55855 46.0159C7.79215 44.5023 6.40015 42.0479 6.40015 38.3999C6.40015 35.1199 6.80335 32.4159 7.76975 30.4831C8.22776 29.5133 8.93162 28.6804 9.81135 28.0671C10.0275 27.924 10.2543 27.7977 10.4897 27.6895C9.58095 25.0271 9.81775 21.9102 10.6945 19.4622C11.2545 17.8878 12.1441 16.3999 13.3665 15.4079C14.1729 14.7519 15.1329 14.3198 16.1825 14.2366C16.6433 12.0511 17.9393 10.2431 19.6193 8.93745H19.6161ZM30.4001 14.3999V14.3678L30.3937 14.2079C30.3466 13.3736 30.1807 12.5504 29.9009 11.7631C29.7018 11.1687 29.3627 10.6309 28.9121 10.1951C28.4395 9.78347 27.8262 9.57024 27.2001 9.59985C25.1744 9.59291 23.2016 10.2468 21.5809 11.4623C20.0961 12.6175 19.2001 14.1823 19.2001 15.9999C19.2 16.2532 19.1396 16.503 19.024 16.7284C18.9084 16.9539 18.7409 17.1488 18.5353 17.2969C18.3297 17.445 18.0919 17.5421 17.8414 17.5803C17.5909 17.6185 17.335 17.5967 17.0945 17.5167C16.4929 17.3183 15.9553 17.4303 15.3825 17.8911C14.7553 18.4031 14.1441 19.3119 13.7057 20.5375C12.8129 23.0399 12.9057 26.0702 14.1313 27.9135C14.3064 28.176 14.3999 28.4843 14.4001 28.7999H16.8001C18.7097 28.7999 20.5411 29.5584 21.8913 30.9087C23.2416 32.2589 24.0001 34.0903 24.0001 35.9999V37.0719C25.0677 37.4493 25.9674 38.192 26.5404 39.1686C27.1133 40.1453 27.3225 41.293 27.131 42.409C26.9395 43.525 26.3597 44.5374 25.494 45.2672C24.6283 45.997 23.5324 46.3973 22.4001 46.3973C21.2678 46.3973 20.172 45.997 19.3063 45.2672C18.4406 44.5374 17.8607 43.525 17.6693 42.409C17.4778 41.293 17.687 40.1453 18.2599 39.1686C18.8329 38.192 19.7326 37.4493 20.8001 37.0719V35.9999C20.8001 33.7919 19.0081 31.9999 16.8001 31.9999H11.2001C11.0089 31.9995 10.8192 31.9649 10.6401 31.8975L10.6305 31.9167C9.99695 33.1807 9.60015 35.2799 9.60015 38.3999C9.60015 41.1487 10.6081 42.6974 11.6417 43.5839C12.7521 44.5374 13.9841 44.7999 14.4001 44.7999C14.8245 44.7999 15.2315 44.9684 15.5315 45.2685C15.8316 45.5685 16.0001 45.9755 16.0001 46.3999C16.0001 47.5774 16.6401 49.6351 18.0481 51.4015C19.4209 53.1134 21.3953 54.3999 24.0001 54.3999C25.7921 54.3999 27.3985 53.3983 28.6401 52.0959C29.2513 51.4559 29.7281 50.7935 30.0385 50.2495C30.1798 50.0082 30.3008 49.7556 30.4001 49.4943V23.9999H26.9281C26.5507 25.0674 25.808 25.9671 24.8314 26.5401C23.8547 27.113 22.707 27.3222 21.591 27.1307C20.475 26.9392 19.4626 26.3594 18.7328 25.4937C18.003 24.628 17.6027 23.5322 17.6027 22.3999C17.6027 21.2676 18.003 20.1717 18.7328 19.306C19.4626 18.4403 20.475 17.8605 21.591 17.669C22.707 17.4775 23.8547 17.6867 24.8314 18.2596C25.808 18.8326 26.5507 19.7323 26.9281 20.7999H30.4001V14.3999ZM33.6001 46.3966V49.4911C33.6995 49.7524 33.8205 50.005 33.9617 50.2463C34.2753 50.7902 34.7489 51.4526 35.3569 52.0926C36.6017 53.3951 38.2113 54.3967 40.0001 54.3967C42.6049 54.3967 44.5793 53.1103 45.9521 51.3983C47.3601 49.6319 48.0001 47.5742 48.0001 46.3966C48.0001 45.9723 48.1687 45.5653 48.4688 45.2653C48.7688 44.9652 49.1758 44.7966 49.6001 44.7966C50.0161 44.7966 51.2481 44.5343 52.3585 43.5807C53.3921 42.6943 54.4001 41.1455 54.4001 38.3967C54.4001 35.2766 54.0001 33.1806 53.3697 31.9135C53.1588 31.4416 52.8278 31.0333 52.4097 30.7295C52.0494 30.4991 51.6275 30.3841 51.2001 30.3999C50.9107 30.3997 50.6268 30.3211 50.3785 30.1723C50.1303 30.0235 49.927 29.8102 49.7904 29.5551C49.6538 29.2999 49.589 29.0125 49.6028 28.7234C49.6166 28.4343 49.7086 28.1544 49.8689 27.9135C51.0977 26.0702 51.1873 23.0399 50.2945 20.5375C49.8561 19.3119 49.2449 18.3999 48.6177 17.8911C48.0449 17.4303 47.5073 17.3151 46.9057 17.5167C46.6653 17.5967 46.4094 17.6185 46.1589 17.5803C45.9084 17.5421 45.6705 17.445 45.4649 17.2969C45.2593 17.1488 45.0919 16.9539 44.9763 16.7284C44.8607 16.503 44.8003 16.2532 44.8001 15.9999C44.8001 14.1823 43.9041 12.6175 42.4161 11.4623C40.7964 10.2474 38.8248 9.5936 36.8001 9.59985C36.1741 9.57024 35.5608 9.78347 35.0881 10.1951C34.6363 10.6304 34.296 11.1683 34.0961 11.7631C33.7915 12.5989 33.624 13.4785 33.6001 14.3678V43.1999H36.0001C38.2081 43.1999 40.0001 41.4079 40.0001 39.1999V33.3279C38.9326 32.9504 38.0329 32.2077 37.4599 31.2311C36.887 30.2544 36.6778 29.1067 36.8693 27.9907C37.0607 26.8747 37.6406 25.8623 38.5063 25.1325C39.372 24.4027 40.4678 24.0024 41.6001 24.0024C42.7324 24.0024 43.8283 24.4027 44.694 25.1325C45.5597 25.8623 46.1395 26.8747 46.331 27.9907C46.5225 29.1067 46.3133 30.2544 45.7404 31.2311C45.1674 32.2077 44.2677 32.9504 43.2001 33.3279V39.1999C43.2001 41.1094 42.4416 42.9408 41.0913 44.291C39.7411 45.6413 37.9097 46.3999 36.0001 46.3999H33.6001V46.3966ZM20.8001 22.3999C20.8001 22.8242 20.9687 23.2312 21.2688 23.5312C21.5688 23.8313 21.9758 23.9999 22.4001 23.9999C22.8245 23.9999 23.2315 23.8313 23.5315 23.5312C23.8316 23.2312 24.0001 22.8242 24.0001 22.3999C24.0001 21.9755 23.8316 21.5685 23.5315 21.2685C23.2315 20.9684 22.8245 20.7999 22.4001 20.7999C21.9758 20.7999 21.5688 20.9684 21.2688 21.2685C20.9687 21.5685 20.8001 21.9755 20.8001 22.3999ZM41.6001 30.3999C42.0245 30.3999 42.4315 30.2313 42.7315 29.9312C43.0316 29.6312 43.2001 29.2242 43.2001 28.7999C43.2001 28.3755 43.0316 27.9685 42.7315 27.6685C42.4315 27.3684 42.0245 27.1999 41.6001 27.1999C41.1758 27.1999 40.7688 27.3684 40.4688 27.6685C40.1687 27.9685 40.0001 28.3755 40.0001 28.7999C40.0001 29.2242 40.1687 29.6312 40.4688 29.9312C40.7688 30.2313 41.1758 30.3999 41.6001 30.3999ZM22.4001 39.9999C21.9758 39.9999 21.5688 40.1684 21.2688 40.4685C20.9687 40.7685 20.8001 41.1755 20.8001 41.5998C20.8001 42.0242 20.9687 42.4312 21.2688 42.7312C21.5688 43.0313 21.9758 43.1999 22.4001 43.1999C22.8245 43.1999 23.2315 43.0313 23.5315 42.7312C23.8316 42.4312 24.0001 42.0242 24.0001 41.5998C24.0001 41.1755 23.8316 40.7685 23.5315 40.4685C23.2315 40.1684 22.8245 39.9999 22.4001 39.9999Z" fill="#333333" stroke="white" stroke-width="0.8" mask="url(#path-2-inside-2_473_8755)"/>
</g>
<defs>
<clipPath id="clip0_473_8755">
<rect width="32" height="64" fill="white" transform="translate(32)"/>
</clipPath>
</defs>
</svg>
