<svg width="56" height="56" viewBox="0 0 56 56" fill="none" xmlns="http://www.w3.org/2000/svg">
<path d="M52.1 22.05C51.125 21.025 50.125 19.975 49.725 19C49.325 18.025 49.325 16.75 49.3 15.325C49.275 13 49.225 10.325 47.45 8.55C45.675 6.775 43 6.725 40.675 6.7C39.25 6.675 37.9 6.65 37 6.275C36.1 5.9 34.975 4.875 33.95 3.9C32.3 2.3 30.4 0.5 28 0.5C25.6 0.5 23.7 2.3 22.05 3.9C21.025 4.875 19.975 5.875 19 6.275C18.025 6.675 16.75 6.675 15.325 6.7C13 6.725 10.325 6.775 8.55 8.55C6.775 10.325 6.725 13 6.7 15.325C6.675 16.75 6.65 18.1 6.275 19C5.9 19.9 4.875 21.025 3.9 22.05C2.3 23.7 0.5 25.6 0.5 28C0.5 30.4 2.3 32.3 3.9 33.95C4.875 34.975 5.875 36.025 6.275 37C6.675 37.975 6.675 39.25 6.7 40.675C6.725 43 6.775 45.675 8.55 47.45C10.325 49.225 13 49.275 15.325 49.3C16.75 49.325 18.1 49.35 19 49.725C19.9 50.1 21.025 51.125 22.05 52.1C23.7 53.7 25.6 55.5 28 55.5C30.4 55.5 32.3 53.7 33.95 52.1C34.975 51.125 36.025 50.125 37 49.725C37.975 49.325 39.25 49.325 40.675 49.3C43 49.275 45.675 49.225 47.45 47.45C49.225 45.675 49.275 43 49.3 40.675C49.325 39.25 49.35 37.9 49.725 37C50.1 36.1 51.125 34.975 52.1 33.95C53.7 32.3 55.5 30.4 55.5 28C55.5 25.6 53.7 23.7 52.1 22.05ZM49.95 31.875C48.775 33.1 47.575 34.35 46.95 35.85C46.325 37.35 46.325 38.975 46.3 40.625C46.275 42.275 46.25 44.4 45.325 45.325C44.4 46.25 42.475 46.275 40.625 46.3C38.775 46.325 37.275 46.35 35.85 46.95C34.425 47.55 33.1 48.775 31.875 49.95C30.65 51.125 29.2 52.5 28 52.5C26.8 52.5 25.45 51.2 24.125 49.95C22.8 48.7 21.65 47.575 20.15 46.95C18.65 46.325 17.025 46.325 15.375 46.3C13.725 46.275 11.6 46.25 10.675 45.325C9.75 44.4 9.725 42.475 9.7 40.625C9.675 38.775 9.65 37.275 9.05 35.85C8.45 34.425 7.225 33.1 6.05 31.875C4.875 30.65 3.5 29.2 3.5 28C3.5 26.8 4.8 25.45 6.05 24.125C7.3 22.8 8.425 21.65 9.05 20.15C9.675 18.65 9.675 17.025 9.7 15.375C9.725 13.725 9.75 11.6 10.675 10.675C11.6 9.75 13.525 9.725 15.375 9.7C17.225 9.675 18.725 9.65 20.15 9.05C21.575 8.45 22.9 7.225 24.125 6.05C25.35 4.875 26.8 3.5 28 3.5C29.2 3.5 30.55 4.8 31.875 6.05C33.2 7.3 34.35 8.425 35.85 9.05C37.35 9.675 38.975 9.675 40.625 9.7C42.275 9.725 44.4 9.75 45.325 10.675C46.25 11.6 46.275 13.525 46.3 15.375C46.325 17.225 46.35 18.725 46.95 20.15C47.55 21.575 48.775 22.9 49.95 24.125C51.125 25.35 52.5 26.8 52.5 28C52.5 29.2 51.2 30.55 49.95 31.875ZM40.075 20.975C40.2109 21.1155 40.3175 21.2816 40.3886 21.4636C40.4597 21.6457 40.4939 21.8401 40.4893 22.0355C40.4846 22.2309 40.4412 22.4234 40.3615 22.6018C40.2818 22.7803 40.1674 22.9411 40.025 23.075L25.375 37.075C25.0898 37.342 24.7156 37.4935 24.325 37.5C23.9405 37.4998 23.5718 37.347 23.3 37.075L15.975 30.075C15.6899 29.8032 15.5245 29.4292 15.5151 29.0354C15.5057 28.6415 15.6532 28.2601 15.925 27.975C16.1968 27.6899 16.5708 27.5245 16.9646 27.5151C17.3585 27.5057 17.7399 27.6532 18.025 27.925L24.325 33.925L37.975 20.925C38.1155 20.7891 38.2816 20.6825 38.4636 20.6114C38.6457 20.5403 38.8401 20.5061 39.0355 20.5107C39.2309 20.5154 39.4234 20.5588 39.6018 20.6385C39.7803 20.7182 39.9411 20.8326 40.075 20.975Z" fill="#1C77C3"/>
</svg>
