<svg width="56" height="56" viewBox="0 0 56 56" fill="none" xmlns="http://www.w3.org/2000/svg">
<mask id="path-1-inside-1_667_9045" fill="white">
<path d="M52.1 22.05C51.125 21.025 50.125 19.975 49.725 19C49.325 18.025 49.325 16.75 49.3 15.325C49.275 13 49.225 10.325 47.45 8.55C45.675 6.775 43 6.725 40.675 6.7C39.25 6.675 37.9 6.65 37 6.275C36.1 5.9 34.975 4.875 33.95 3.9C32.3 2.3 30.4 0.5 28 0.5C25.6 0.5 23.7 2.3 22.05 3.9C21.025 4.875 19.975 5.875 19 6.275C18.025 6.675 16.75 6.675 15.325 6.7C13 6.725 10.325 6.775 8.55 8.55C6.775 10.325 6.725 13 6.7 15.325C6.675 16.75 6.65 18.1 6.275 19C5.9 19.9 4.875 21.025 3.9 22.05C2.3 23.7 0.5 25.6 0.5 28C0.5 30.4 2.3 32.3 3.9 33.95C4.875 34.975 5.875 36.025 6.275 37C6.675 37.975 6.675 39.25 6.7 40.675C6.725 43 6.775 45.675 8.55 47.45C10.325 49.225 13 49.275 15.325 49.3C16.75 49.325 18.1 49.35 19 49.725C19.9 50.1 21.025 51.125 22.05 52.1C23.7 53.7 25.6 55.5 28 55.5C30.4 55.5 32.3 53.7 33.95 52.1C34.975 51.125 36.025 50.125 37 49.725C37.975 49.325 39.25 49.325 40.675 49.3C43 49.275 45.675 49.225 47.45 47.45C49.225 45.675 49.275 43 49.3 40.675C49.325 39.25 49.35 37.9 49.725 37C50.1 36.1 51.125 34.975 52.1 33.95C53.7 32.3 55.5 30.4 55.5 28C55.5 25.6 53.7 23.7 52.1 22.05ZM49.95 31.875C48.775 33.1 47.575 34.35 46.95 35.85C46.325 37.35 46.325 38.975 46.3 40.625C46.275 42.275 46.25 44.4 45.325 45.325C44.4 46.25 42.475 46.275 40.625 46.3C38.775 46.325 37.275 46.35 35.85 46.95C34.425 47.55 33.1 48.775 31.875 49.95C30.65 51.125 29.2 52.5 28 52.5C26.8 52.5 25.45 51.2 24.125 49.95C22.8 48.7 21.65 47.575 20.15 46.95C18.65 46.325 17.025 46.325 15.375 46.3C13.725 46.275 11.6 46.25 10.675 45.325C9.75 44.4 9.725 42.475 9.7 40.625C9.675 38.775 9.65 37.275 9.05 35.85C8.45 34.425 7.225 33.1 6.05 31.875C4.875 30.65 3.5 29.2 3.5 28C3.5 26.8 4.8 25.45 6.05 24.125C7.3 22.8 8.425 21.65 9.05 20.15C9.675 18.65 9.675 17.025 9.7 15.375C9.725 13.725 9.75 11.6 10.675 10.675C11.6 9.75 13.525 9.725 15.375 9.7C17.225 9.675 18.725 9.65 20.15 9.05C21.575 8.45 22.9 7.225 24.125 6.05C25.35 4.875 26.8 3.5 28 3.5C29.2 3.5 30.55 4.8 31.875 6.05C33.2 7.3 34.35 8.425 35.85 9.05C37.35 9.675 38.975 9.675 40.625 9.7C42.275 9.725 44.4 9.75 45.325 10.675C46.25 11.6 46.275 13.525 46.3 15.375C46.325 17.225 46.35 18.725 46.95 20.15C47.55 21.575 48.775 22.9 49.95 24.125C51.125 25.35 52.5 26.8 52.5 28C52.5 29.2 51.2 30.55 49.95 31.875ZM40.075 20.975C40.2109 21.1155 40.3175 21.2816 40.3886 21.4636C40.4597 21.6457 40.4939 21.8401 40.4893 22.0355C40.4846 22.2309 40.4412 22.4234 40.3615 22.6018C40.2818 22.7803 40.1674 22.9411 40.025 23.075L25.375 37.075C25.0898 37.342 24.7156 37.4935 24.325 37.5C23.9405 37.4998 23.5718 37.347 23.3 37.075L15.975 30.075C15.6899 29.8032 15.5245 29.4292 15.5151 29.0354C15.5057 28.6415 15.6532 28.2601 15.925 27.975C16.1968 27.6899 16.5708 27.5245 16.9646 27.5151C17.3585 27.5057 17.7399 27.6532 18.025 27.925L24.325 33.925L37.975 20.925C38.1155 20.7891 38.2816 20.6825 38.4636 20.6114C38.6457 20.5403 38.8401 20.5061 39.0355 20.5107C39.2309 20.5154 39.4234 20.5588 39.6018 20.6385C39.7803 20.7182 39.9411 20.8326 40.075 20.975Z"/>
<path d="M52.1 22.05C51.125 21.025 50.125 19.975 49.725 19C49.325 18.025 49.325 16.75 49.3 15.325C49.275 13 49.225 10.325 47.45 8.55C45.675 6.775 43 6.725 40.675 6.7C39.25 6.675 37.9 6.65 37 6.275C36.1 5.9 34.975 4.875 33.95 3.9C32.3 2.3 30.4 0.5 28 0.5C25.6 0.5 23.7 2.3 22.05 3.9C21.025 4.875 19.975 5.875 19 6.275C18.025 6.675 16.75 6.675 15.325 6.7C13 6.725 10.325 6.775 8.55 8.55C6.775 10.325 6.725 13 6.7 15.325C6.675 16.75 6.65 18.1 6.275 19C5.9 19.9 4.875 21.025 3.9 22.05C2.3 23.7 0.5 25.6 0.5 28C0.5 30.4 2.3 32.3 3.9 33.95C4.875 34.975 5.875 36.025 6.275 37C6.675 37.975 6.675 39.25 6.7 40.675C6.725 43 6.775 45.675 8.55 47.45C10.325 49.225 13 49.275 15.325 49.3C16.75 49.325 18.1 49.35 19 49.725C19.9 50.1 21.025 51.125 22.05 52.1C23.7 53.7 25.6 55.5 28 55.5C30.4 55.5 32.3 53.7 33.95 52.1C34.975 51.125 36.025 50.125 37 49.725C37.975 49.325 39.25 49.325 40.675 49.3C43 49.275 45.675 49.225 47.45 47.45C49.225 45.675 49.275 43 49.3 40.675C49.325 39.25 49.35 37.9 49.725 37C50.1 36.1 51.125 34.975 52.1 33.95C53.7 32.3 55.5 30.4 55.5 28C55.5 25.6 53.7 23.7 52.1 22.05ZM49.95 31.875C48.775 33.1 47.575 34.35 46.95 35.85C46.325 37.35 46.325 38.975 46.3 40.625C46.275 42.275 46.25 44.4 45.325 45.325C44.4 46.25 42.475 46.275 40.625 46.3C38.775 46.325 37.275 46.35 35.85 46.95C34.425 47.55 33.1 48.775 31.875 49.95C30.65 51.125 29.2 52.5 28 52.5C26.8 52.5 25.45 51.2 24.125 49.95C22.8 48.7 21.65 47.575 20.15 46.95C18.65 46.325 17.025 46.325 15.375 46.3C13.725 46.275 11.6 46.25 10.675 45.325C9.75 44.4 9.725 42.475 9.7 40.625C9.675 38.775 9.65 37.275 9.05 35.85C8.45 34.425 7.225 33.1 6.05 31.875C4.875 30.65 3.5 29.2 3.5 28C3.5 26.8 4.8 25.45 6.05 24.125C7.3 22.8 8.425 21.65 9.05 20.15C9.675 18.65 9.675 17.025 9.7 15.375C9.725 13.725 9.75 11.6 10.675 10.675C11.6 9.75 13.525 9.725 15.375 9.7C17.225 9.675 18.725 9.65 20.15 9.05C21.575 8.45 22.9 7.225 24.125 6.05C25.35 4.875 26.8 3.5 28 3.5C29.2 3.5 30.55 4.8 31.875 6.05C33.2 7.3 34.35 8.425 35.85 9.05C37.35 9.675 38.975 9.675 40.625 9.7C42.275 9.725 44.4 9.75 45.325 10.675C46.25 11.6 46.275 13.525 46.3 15.375C46.325 17.225 46.35 18.725 46.95 20.15C47.55 21.575 48.775 22.9 49.95 24.125C51.125 25.35 52.5 26.8 52.5 28C52.5 29.2 51.2 30.55 49.95 31.875Z"/>
</mask>
<path d="M52.1 22.05C51.125 21.025 50.125 19.975 49.725 19C49.325 18.025 49.325 16.75 49.3 15.325C49.275 13 49.225 10.325 47.45 8.55C45.675 6.775 43 6.725 40.675 6.7C39.25 6.675 37.9 6.65 37 6.275C36.1 5.9 34.975 4.875 33.95 3.9C32.3 2.3 30.4 0.5 28 0.5C25.6 0.5 23.7 2.3 22.05 3.9C21.025 4.875 19.975 5.875 19 6.275C18.025 6.675 16.75 6.675 15.325 6.7C13 6.725 10.325 6.775 8.55 8.55C6.775 10.325 6.725 13 6.7 15.325C6.675 16.75 6.65 18.1 6.275 19C5.9 19.9 4.875 21.025 3.9 22.05C2.3 23.7 0.5 25.6 0.5 28C0.5 30.4 2.3 32.3 3.9 33.95C4.875 34.975 5.875 36.025 6.275 37C6.675 37.975 6.675 39.25 6.7 40.675C6.725 43 6.775 45.675 8.55 47.45C10.325 49.225 13 49.275 15.325 49.3C16.75 49.325 18.1 49.35 19 49.725C19.9 50.1 21.025 51.125 22.05 52.1C23.7 53.7 25.6 55.5 28 55.5C30.4 55.5 32.3 53.7 33.95 52.1C34.975 51.125 36.025 50.125 37 49.725C37.975 49.325 39.25 49.325 40.675 49.3C43 49.275 45.675 49.225 47.45 47.45C49.225 45.675 49.275 43 49.3 40.675C49.325 39.25 49.35 37.9 49.725 37C50.1 36.1 51.125 34.975 52.1 33.95C53.7 32.3 55.5 30.4 55.5 28C55.5 25.6 53.7 23.7 52.1 22.05ZM49.95 31.875C48.775 33.1 47.575 34.35 46.95 35.85C46.325 37.35 46.325 38.975 46.3 40.625C46.275 42.275 46.25 44.4 45.325 45.325C44.4 46.25 42.475 46.275 40.625 46.3C38.775 46.325 37.275 46.35 35.85 46.95C34.425 47.55 33.1 48.775 31.875 49.95C30.65 51.125 29.2 52.5 28 52.5C26.8 52.5 25.45 51.2 24.125 49.95C22.8 48.7 21.65 47.575 20.15 46.95C18.65 46.325 17.025 46.325 15.375 46.3C13.725 46.275 11.6 46.25 10.675 45.325C9.75 44.4 9.725 42.475 9.7 40.625C9.675 38.775 9.65 37.275 9.05 35.85C8.45 34.425 7.225 33.1 6.05 31.875C4.875 30.65 3.5 29.2 3.5 28C3.5 26.8 4.8 25.45 6.05 24.125C7.3 22.8 8.425 21.65 9.05 20.15C9.675 18.65 9.675 17.025 9.7 15.375C9.725 13.725 9.75 11.6 10.675 10.675C11.6 9.75 13.525 9.725 15.375 9.7C17.225 9.675 18.725 9.65 20.15 9.05C21.575 8.45 22.9 7.225 24.125 6.05C25.35 4.875 26.8 3.5 28 3.5C29.2 3.5 30.55 4.8 31.875 6.05C33.2 7.3 34.35 8.425 35.85 9.05C37.35 9.675 38.975 9.675 40.625 9.7C42.275 9.725 44.4 9.75 45.325 10.675C46.25 11.6 46.275 13.525 46.3 15.375C46.325 17.225 46.35 18.725 46.95 20.15C47.55 21.575 48.775 22.9 49.95 24.125C51.125 25.35 52.5 26.8 52.5 28C52.5 29.2 51.2 30.55 49.95 31.875ZM40.075 20.975C40.2109 21.1155 40.3175 21.2816 40.3886 21.4636C40.4597 21.6457 40.4939 21.8401 40.4893 22.0355C40.4846 22.2309 40.4412 22.4234 40.3615 22.6018C40.2818 22.7803 40.1674 22.9411 40.025 23.075L25.375 37.075C25.0898 37.342 24.7156 37.4935 24.325 37.5C23.9405 37.4998 23.5718 37.347 23.3 37.075L15.975 30.075C15.6899 29.8032 15.5245 29.4292 15.5151 29.0354C15.5057 28.6415 15.6532 28.2601 15.925 27.975C16.1968 27.6899 16.5708 27.5245 16.9646 27.5151C17.3585 27.5057 17.7399 27.6532 18.025 27.925L24.325 33.925L37.975 20.925C38.1155 20.7891 38.2816 20.6825 38.4636 20.6114C38.6457 20.5403 38.8401 20.5061 39.0355 20.5107C39.2309 20.5154 39.4234 20.5588 39.6018 20.6385C39.7803 20.7182 39.9411 20.8326 40.075 20.975Z" fill="#1C77C3"/>
<path d="M52.1 22.05C51.125 21.025 50.125 19.975 49.725 19C49.325 18.025 49.325 16.75 49.3 15.325C49.275 13 49.225 10.325 47.45 8.55C45.675 6.775 43 6.725 40.675 6.7C39.25 6.675 37.9 6.65 37 6.275C36.1 5.9 34.975 4.875 33.95 3.9C32.3 2.3 30.4 0.5 28 0.5C25.6 0.5 23.7 2.3 22.05 3.9C21.025 4.875 19.975 5.875 19 6.275C18.025 6.675 16.75 6.675 15.325 6.7C13 6.725 10.325 6.775 8.55 8.55C6.775 10.325 6.725 13 6.7 15.325C6.675 16.75 6.65 18.1 6.275 19C5.9 19.9 4.875 21.025 3.9 22.05C2.3 23.7 0.5 25.6 0.5 28C0.5 30.4 2.3 32.3 3.9 33.95C4.875 34.975 5.875 36.025 6.275 37C6.675 37.975 6.675 39.25 6.7 40.675C6.725 43 6.775 45.675 8.55 47.45C10.325 49.225 13 49.275 15.325 49.3C16.75 49.325 18.1 49.35 19 49.725C19.9 50.1 21.025 51.125 22.05 52.1C23.7 53.7 25.6 55.5 28 55.5C30.4 55.5 32.3 53.7 33.95 52.1C34.975 51.125 36.025 50.125 37 49.725C37.975 49.325 39.25 49.325 40.675 49.3C43 49.275 45.675 49.225 47.45 47.45C49.225 45.675 49.275 43 49.3 40.675C49.325 39.25 49.35 37.9 49.725 37C50.1 36.1 51.125 34.975 52.1 33.95C53.7 32.3 55.5 30.4 55.5 28C55.5 25.6 53.7 23.7 52.1 22.05ZM49.95 31.875C48.775 33.1 47.575 34.35 46.95 35.85C46.325 37.35 46.325 38.975 46.3 40.625C46.275 42.275 46.25 44.4 45.325 45.325C44.4 46.25 42.475 46.275 40.625 46.3C38.775 46.325 37.275 46.35 35.85 46.95C34.425 47.55 33.1 48.775 31.875 49.95C30.65 51.125 29.2 52.5 28 52.5C26.8 52.5 25.45 51.2 24.125 49.95C22.8 48.7 21.65 47.575 20.15 46.95C18.65 46.325 17.025 46.325 15.375 46.3C13.725 46.275 11.6 46.25 10.675 45.325C9.75 44.4 9.725 42.475 9.7 40.625C9.675 38.775 9.65 37.275 9.05 35.85C8.45 34.425 7.225 33.1 6.05 31.875C4.875 30.65 3.5 29.2 3.5 28C3.5 26.8 4.8 25.45 6.05 24.125C7.3 22.8 8.425 21.65 9.05 20.15C9.675 18.65 9.675 17.025 9.7 15.375C9.725 13.725 9.75 11.6 10.675 10.675C11.6 9.75 13.525 9.725 15.375 9.7C17.225 9.675 18.725 9.65 20.15 9.05C21.575 8.45 22.9 7.225 24.125 6.05C25.35 4.875 26.8 3.5 28 3.5C29.2 3.5 30.55 4.8 31.875 6.05C33.2 7.3 34.35 8.425 35.85 9.05C37.35 9.675 38.975 9.675 40.625 9.7C42.275 9.725 44.4 9.75 45.325 10.675C46.25 11.6 46.275 13.525 46.3 15.375C46.325 17.225 46.35 18.725 46.95 20.15C47.55 21.575 48.775 22.9 49.95 24.125C51.125 25.35 52.5 26.8 52.5 28C52.5 29.2 51.2 30.55 49.95 31.875Z" fill="#333333"/>
<path d="M52.1 22.05L51.9551 22.1878L51.9564 22.1892L52.1 22.05ZM49.725 19L49.91 18.9241H49.91L49.725 19ZM49.3 15.325L49.1 15.3272L49.1 15.3285L49.3 15.325ZM47.45 8.55L47.5914 8.40858L47.45 8.55ZM40.675 6.7L40.6715 6.89997L40.6728 6.89999L40.675 6.7ZM37 6.275L36.9231 6.45961V6.45962L37 6.275ZM33.95 3.9L33.8108 4.04359L33.8122 4.04491L33.95 3.9ZM22.05 3.9L22.1878 4.04492L22.1892 4.04358L22.05 3.9ZM19 6.275L18.9241 6.08997L19 6.275ZM15.325 6.7L15.3272 6.89999L15.3285 6.89997L15.325 6.7ZM8.55 8.55L8.69142 8.69142L8.55 8.55ZM6.7 15.325L6.89997 15.3285L6.89999 15.3272L6.7 15.325ZM3.9 22.05L4.04359 22.1892L4.04491 22.1878L3.9 22.05ZM3.9 33.95L4.04492 33.8122L4.04358 33.8108L3.9 33.95ZM6.275 37L6.46003 36.9241L6.275 37ZM6.7 40.675L6.89999 40.6728L6.89997 40.6715L6.7 40.675ZM8.55 47.45L8.40858 47.5914L8.55 47.45ZM15.325 49.3L15.3285 49.1L15.3272 49.1L15.325 49.3ZM22.05 52.1L22.1892 51.9564L22.1878 51.9551L22.05 52.1ZM33.95 52.1L33.8122 51.9551L33.8108 51.9564L33.95 52.1ZM37 49.725L37.0759 49.91V49.91L37 49.725ZM40.675 49.3L40.6728 49.1L40.6715 49.1L40.675 49.3ZM47.45 47.45L47.5914 47.5914L47.45 47.45ZM49.3 40.675L49.1 40.6715L49.1 40.6728L49.3 40.675ZM49.725 37L49.5404 36.9231L49.725 37ZM52.1 33.95L51.9564 33.8108L51.9551 33.8122L52.1 33.95ZM49.95 31.875L50.0943 32.0134L50.0955 32.0122L49.95 31.875ZM46.3 40.625L46.1 40.622L46.3 40.625ZM45.325 45.325L45.4664 45.4664L45.325 45.325ZM40.625 46.3L40.6223 46.1L40.625 46.3ZM35.85 46.95L35.9276 47.1343L35.85 46.95ZM31.875 49.95L31.7366 49.8057L31.875 49.95ZM24.125 49.95L23.9878 50.0955L24.125 49.95ZM10.675 45.325L10.5336 45.4664L10.675 45.325ZM9.7 40.625L9.89998 40.6223L9.7 40.625ZM9.05 35.85L9.23433 35.7724L9.05 35.85ZM6.05 31.875L6.19434 31.7366L6.05 31.875ZM6.05 24.125L5.90452 23.9878L6.05 24.125ZM9.05 20.15L9.23462 20.2269L9.05 20.15ZM15.375 9.7L15.3723 9.50002L15.375 9.7ZM20.15 9.05L20.2276 9.23433L20.15 9.05ZM24.125 6.05L23.9866 5.90566L24.125 6.05ZM31.875 6.05L31.7378 6.19548L31.875 6.05ZM35.85 9.05L35.7731 9.23462L35.85 9.05ZM40.625 9.7L40.622 9.89998L40.625 9.7ZM45.325 10.675L45.4664 10.5336L45.325 10.675ZM46.3 15.375L46.5 15.3723L46.3 15.375ZM46.95 20.15L47.1343 20.0724L46.95 20.15ZM49.95 24.125L50.0943 23.9866L49.95 24.125ZM52.2449 21.9122C51.7563 21.3985 51.2677 20.8851 50.8513 20.3791C50.4339 19.8721 50.0987 19.384 49.91 18.9241L49.54 19.0759C49.7513 19.591 50.1161 20.1154 50.5425 20.6334C50.9697 21.1524 51.4687 21.6765 51.9551 22.1878L52.2449 21.9122ZM49.91 18.9241C49.5278 17.9923 49.5253 16.7635 49.5 15.3215L49.1 15.3285C49.1247 16.7365 49.1222 18.0577 49.54 19.0759L49.91 18.9241ZM49.5 15.3229C49.4875 14.1629 49.4691 12.8944 49.2273 11.6918C48.985 10.4863 48.5156 9.33279 47.5914 8.40858L47.3086 8.69142C48.1594 9.54221 48.6025 10.6137 48.8352 11.7707C49.0684 12.9306 49.0875 14.1621 49.1 15.3272L49.5 15.3229ZM47.5914 8.40858C46.6672 7.48437 45.5137 7.01505 44.3082 6.77267C43.1056 6.53089 41.8371 6.51248 40.6772 6.50001L40.6728 6.89999C41.8379 6.91252 43.0694 6.93161 44.2293 7.16483C45.3863 7.39746 46.4578 7.84063 47.3086 8.69142L47.5914 8.40858ZM40.6785 6.50003C39.9644 6.4875 39.2781 6.47504 38.6585 6.41955C38.0374 6.36393 37.4988 6.26618 37.0769 6.09038L36.9231 6.45962C37.4012 6.65882 37.9876 6.76107 38.6228 6.81795C39.2594 6.87496 39.9606 6.8875 40.6715 6.89997L40.6785 6.50003ZM37.0769 6.09038C36.6542 5.91426 36.166 5.57914 35.6482 5.15742C35.1327 4.73765 34.6 4.24224 34.0878 3.75509L33.8122 4.04491C34.325 4.53276 34.8673 5.03735 35.3956 5.46758C35.9215 5.89586 36.4458 6.26074 36.9231 6.45961L37.0769 6.09038ZM34.0892 3.75642C33.2658 2.95794 32.3657 2.09503 31.3667 1.43326C30.3656 0.770098 29.2523 0.3 28 0.3V0.7C29.1477 0.7 30.1844 1.1299 31.1458 1.76674C32.1093 2.40497 32.9842 3.24206 33.8108 4.04358L34.0892 3.75642ZM28 0.3C26.7477 0.3 25.6344 0.770098 24.6333 1.43326C23.6343 2.09503 22.7342 2.95794 21.9108 3.75642L22.1892 4.04358C23.0158 3.24206 23.8907 2.40497 24.8542 1.76674C25.8156 1.1299 26.8523 0.7 28 0.7V0.3ZM21.9122 3.75509C21.3985 4.24372 20.8851 4.73225 20.3791 5.14871C19.8721 5.56611 19.384 5.90127 18.9241 6.08997L19.0759 6.46003C19.591 6.24873 20.1154 5.88389 20.6334 5.45754C21.1524 5.03025 21.6765 4.53128 22.1878 4.04491L21.9122 3.75509ZM18.9241 6.08997C17.9923 6.47222 16.7635 6.47473 15.3215 6.50003L15.3285 6.89997C16.7365 6.87527 18.0577 6.87778 19.0759 6.46003L18.9241 6.08997ZM15.3229 6.50001C14.1629 6.51248 12.8944 6.53089 11.6918 6.77267C10.4863 7.01505 9.33279 7.48437 8.40858 8.40858L8.69142 8.69142C9.54221 7.84063 10.6137 7.39746 11.7707 7.16483C12.9306 6.93161 14.1621 6.91252 15.3272 6.89999L15.3229 6.50001ZM8.40858 8.40858C7.48437 9.33279 7.01505 10.4863 6.77267 11.6918C6.53089 12.8944 6.51248 14.1629 6.50001 15.3229L6.89999 15.3272C6.91252 14.1621 6.93161 12.9306 7.16483 11.7707C7.39746 10.6137 7.84063 9.54221 8.69142 8.69142L8.40858 8.40858ZM6.50003 15.3215C6.4875 16.0357 6.47504 16.7219 6.41955 17.3415C6.36393 17.9626 6.26618 18.5012 6.09038 18.9231L6.45962 19.0769C6.65882 18.5988 6.76107 18.0124 6.81795 17.3772C6.87496 16.7406 6.8875 16.0394 6.89997 15.3285L6.50003 15.3215ZM6.09038 18.9231C5.91426 19.3458 5.57914 19.834 5.15742 20.3518C4.73765 20.8673 4.24224 21.4 3.75509 21.9122L4.04491 22.1878C4.53276 21.675 5.03735 21.1327 5.46758 20.6044C5.89586 20.0785 6.26074 19.5542 6.45962 19.0769L6.09038 18.9231ZM3.75642 21.9108C2.95794 22.7342 2.09503 23.6343 1.43326 24.6333C0.770098 25.6344 0.3 26.7477 0.3 28H0.7C0.7 26.8523 1.1299 25.8156 1.76674 24.8542C2.40497 23.8907 3.24206 23.0158 4.04358 22.1892L3.75642 21.9108ZM0.3 28C0.3 29.2523 0.770098 30.3656 1.43326 31.3667C2.09503 32.3657 2.95794 33.2658 3.75642 34.0892L4.04358 33.8108C3.24206 32.9842 2.40497 32.1093 1.76674 31.1458C1.1299 30.1844 0.7 29.1477 0.7 28H0.3ZM3.75509 34.0878C4.24372 34.6015 4.73225 35.1149 5.14871 35.6209C5.56611 36.1279 5.90127 36.616 6.08997 37.0759L6.46003 36.9241C6.24873 36.409 5.88389 35.8846 5.45754 35.3666C5.03025 34.8476 4.53128 34.3235 4.04491 33.8122L3.75509 34.0878ZM6.08997 37.0759C6.47222 38.0077 6.47473 39.2365 6.50003 40.6785L6.89997 40.6715C6.87527 39.2635 6.87778 37.9423 6.46003 36.9241L6.08997 37.0759ZM6.50001 40.6772C6.51248 41.8371 6.53089 43.1056 6.77267 44.3082C7.01505 45.5137 7.48437 46.6672 8.40858 47.5914L8.69142 47.3086C7.84063 46.4578 7.39746 45.3863 7.16483 44.2293C6.93161 43.0694 6.91252 41.8379 6.89999 40.6728L6.50001 40.6772ZM8.40858 47.5914C9.33279 48.5156 10.4863 48.985 11.6918 49.2273C12.8944 49.4691 14.1629 49.4875 15.3229 49.5L15.3272 49.1C14.1621 49.0875 12.9306 49.0684 11.7707 48.8352C10.6137 48.6025 9.54221 48.1594 8.69142 47.3086L8.40858 47.5914ZM15.3215 49.5C16.0357 49.5125 16.7219 49.525 17.3415 49.5805C17.9626 49.6361 18.5012 49.7338 18.9231 49.9096L19.0769 49.5404C18.5988 49.3412 18.0124 49.2389 17.3772 49.182C16.7406 49.125 16.0394 49.1125 15.3285 49.1L15.3215 49.5ZM18.9231 49.9096C19.3458 50.0857 19.834 50.4209 20.3518 50.8426C20.8673 51.2623 21.4 51.7578 21.9122 52.2449L22.1878 51.9551C21.675 51.4672 21.1327 50.9626 20.6044 50.5324C20.0785 50.1041 19.5542 49.7393 19.0769 49.5404L18.9231 49.9096ZM21.9108 52.2436C22.7342 53.0421 23.6343 53.905 24.6333 54.5667C25.6344 55.2299 26.7477 55.7 28 55.7V55.3C26.8523 55.3 25.8156 54.8701 24.8542 54.2333C23.8907 53.595 23.0158 52.7579 22.1892 51.9564L21.9108 52.2436ZM28 55.7C29.2523 55.7 30.3656 55.2299 31.3667 54.5667C32.3657 53.905 33.2658 53.0421 34.0892 52.2436L33.8108 51.9564C32.9842 52.7579 32.1093 53.595 31.1458 54.2333C30.1844 54.8701 29.1477 55.3 28 55.3V55.7ZM34.0878 52.2449C34.6015 51.7563 35.1149 51.2677 35.6209 50.8513C36.1279 50.4339 36.616 50.0987 37.0759 49.91L36.9241 49.54C36.409 49.7513 35.8846 50.1161 35.3666 50.5425C34.8476 50.9697 34.3235 51.4687 33.8122 51.9551L34.0878 52.2449ZM37.0759 49.91C38.0077 49.5278 39.2365 49.5253 40.6785 49.5L40.6715 49.1C39.2635 49.1247 37.9423 49.1222 36.9241 49.54L37.0759 49.91ZM40.6772 49.5C41.8371 49.4875 43.1056 49.4691 44.3082 49.2273C45.5137 48.985 46.6672 48.5156 47.5914 47.5914L47.3086 47.3086C46.4578 48.1594 45.3863 48.6025 44.2293 48.8352C43.0694 49.0684 41.8379 49.0875 40.6728 49.1L40.6772 49.5ZM47.5914 47.5914C48.5156 46.6672 48.985 45.5137 49.2273 44.3082C49.4691 43.1056 49.4875 41.8371 49.5 40.6772L49.1 40.6728C49.0875 41.8379 49.0684 43.0694 48.8352 44.2293C48.6025 45.3863 48.1594 46.4578 47.3086 47.3086L47.5914 47.5914ZM49.5 40.6785C49.5125 39.9644 49.525 39.2781 49.5805 38.6585C49.6361 38.0374 49.7338 37.4988 49.9096 37.0769L49.5404 36.9231C49.3412 37.4012 49.2389 37.9876 49.182 38.6228C49.125 39.2594 49.1125 39.9606 49.1 40.6715L49.5 40.6785ZM49.9096 37.0769C50.0857 36.6542 50.4209 36.166 50.8426 35.6482C51.2623 35.1327 51.7578 34.6 52.2449 34.0878L51.9551 33.8122C51.4672 34.325 50.9626 34.8673 50.5324 35.3956C50.1041 35.9215 49.7393 36.4458 49.5404 36.9231L49.9096 37.0769ZM52.2436 34.0892C53.0421 33.2658 53.905 32.3657 54.5667 31.3667C55.2299 30.3656 55.7 29.2523 55.7 28H55.3C55.3 29.1477 54.8701 30.1844 54.2333 31.1458C53.595 32.1093 52.7579 32.9842 51.9564 33.8108L52.2436 34.0892ZM55.7 28C55.7 26.7477 55.2299 25.6344 54.5667 24.6333C53.905 23.6343 53.0421 22.7342 52.2436 21.9108L51.9564 22.1892C52.7579 23.0158 53.595 23.8907 54.2333 24.8542C54.8701 25.8156 55.3 26.8523 55.3 28H55.7ZM49.8057 31.7366C48.6366 32.9554 47.4074 34.2323 46.7654 35.7731L47.1346 35.9269C47.7426 34.4677 48.9134 33.2446 50.0943 32.0134L49.8057 31.7366ZM46.7654 35.7731C46.1227 37.3155 46.1249 38.9823 46.1 40.622L46.5 40.628C46.5251 38.9677 46.5273 37.3845 47.1346 35.9269L46.7654 35.7731ZM46.1 40.622C46.0875 41.45 46.0749 42.3801 45.9521 43.2179C45.8283 44.0631 45.5978 44.7694 45.1836 45.1836L45.4664 45.4664C45.9772 44.9556 46.2217 44.1369 46.3479 43.2759C46.4751 42.4074 46.4875 41.45 46.5 40.628L46.1 40.622ZM45.1836 45.1836C44.7674 45.5998 44.1079 45.8291 43.292 45.9522C42.48 46.0748 41.5508 46.0875 40.6223 46.1L40.6277 46.5C41.5492 46.4875 42.5075 46.4752 43.3517 46.3478C44.1921 46.2209 44.9576 45.9752 45.4664 45.4664L45.1836 45.1836ZM40.6223 46.1C38.7802 46.1249 37.2396 46.1479 35.7724 46.7657L35.9276 47.1343C37.3104 46.5521 38.7698 46.5251 40.6277 46.5L40.6223 46.1ZM35.7724 46.7657C34.3076 47.3824 32.9569 48.6351 31.7366 49.8057L32.0134 50.0943C33.2431 48.9149 34.5424 47.7176 35.9276 47.1343L35.7724 46.7657ZM31.7366 49.8057C31.1224 50.3948 30.4629 51.023 29.8095 51.5046C29.1495 51.9911 28.5318 52.3 28 52.3V52.7C28.6682 52.7 29.3755 52.3214 30.0468 51.8266C30.7246 51.327 31.4026 50.6802 32.0134 50.0943L31.7366 49.8057ZM28 52.3C27.4671 52.3 26.8737 52.0085 26.228 51.5327C25.5868 51.0603 24.9279 50.4325 24.2622 49.8045L23.9878 50.0955C24.6471 50.7175 25.3257 51.3647 25.9907 51.8548C26.6513 52.3415 27.3329 52.7 28 52.7V52.3ZM24.2622 49.8045C22.9454 48.5622 21.7676 47.4073 20.2269 46.7654L20.0731 47.1346C21.5324 47.7427 22.6546 48.8378 23.9878 50.0955L24.2622 49.8045ZM20.2269 46.7654C18.6845 46.1227 17.0177 46.1249 15.378 46.1L15.372 46.5C17.0323 46.5251 18.6155 46.5273 20.0731 47.1346L20.2269 46.7654ZM15.378 46.1C14.55 46.0875 13.6199 46.0749 12.7821 45.9521C11.9369 45.8283 11.2306 45.5978 10.8164 45.1836L10.5336 45.4664C11.0444 45.9772 11.8631 46.2217 12.7241 46.3479C13.5926 46.4751 14.55 46.4875 15.372 46.5L15.378 46.1ZM10.8164 45.1836C10.4002 44.7674 10.1709 44.1079 10.0478 43.292C9.92519 42.48 9.91253 41.5508 9.89998 40.6223L9.50002 40.6277C9.51247 41.5492 9.52481 42.5075 9.65224 43.3517C9.77909 44.1921 10.0248 44.9576 10.5336 45.4664L10.8164 45.1836ZM9.89998 40.6223C9.87509 38.7802 9.85208 37.2396 9.23433 35.7724L8.86567 35.9276C9.44792 37.3104 9.47491 38.7698 9.50002 40.6277L9.89998 40.6223ZM9.23433 35.7724C8.6176 34.3076 7.36489 32.9569 6.19434 31.7366L5.90566 32.0134C7.08511 33.2431 8.28241 34.5424 8.86567 35.9276L9.23433 35.7724ZM6.19434 31.7366C5.60522 31.1224 4.97699 30.4629 4.49537 29.8095C4.00891 29.1495 3.7 28.5318 3.7 28H3.3C3.3 28.6682 3.67859 29.3755 4.17338 30.0468C4.67301 30.7246 5.31978 31.4026 5.90566 32.0134L6.19434 31.7366ZM3.7 28C3.7 27.4671 3.99148 26.8737 4.46726 26.228C4.93972 25.5868 5.56753 24.9279 6.19548 24.2622L5.90452 23.9878C5.28247 24.6471 4.63528 25.3257 4.14524 25.9907C3.65852 26.6513 3.3 27.3329 3.3 28H3.7ZM6.19548 24.2622C7.43778 22.9454 8.59266 21.7676 9.23462 20.2269L8.86539 20.0731C8.25734 21.5324 7.16222 22.6546 5.90452 23.9878L6.19548 24.2622ZM9.23462 20.2269C9.87727 18.6845 9.87513 17.0177 9.89998 15.378L9.50002 15.372C9.47487 17.0323 9.47273 18.6155 8.86539 20.0731L9.23462 20.2269ZM9.89998 15.378C9.91252 14.55 9.92514 13.6199 10.0479 12.7821C10.1717 11.9369 10.4022 11.2306 10.8164 10.8164L10.5336 10.5336C10.0228 11.0444 9.77827 11.8631 9.65211 12.7241C9.52486 13.5926 9.51248 14.55 9.50002 15.372L9.89998 15.378ZM10.8164 10.8164C11.2326 10.4002 11.8921 10.1709 12.708 10.0478C13.52 9.92519 14.4492 9.91253 15.3777 9.89998L15.3723 9.50002C14.4508 9.51247 13.4925 9.52481 12.6483 9.65224C11.8079 9.77909 11.0424 10.0248 10.5336 10.5336L10.8164 10.8164ZM15.3777 9.89998C17.2198 9.87509 18.7604 9.85208 20.2276 9.23433L20.0724 8.86567C18.6896 9.44792 17.2302 9.47491 15.3723 9.50002L15.3777 9.89998ZM20.2276 9.23433C21.6923 8.6176 23.0431 7.36489 24.2634 6.19434L23.9866 5.90566C22.7569 7.08511 21.4576 8.28241 20.0724 8.86567L20.2276 9.23433ZM24.2634 6.19434C24.8776 5.60522 25.5371 4.97699 26.1905 4.49537C26.8505 4.00891 27.4682 3.7 28 3.7V3.3C27.3318 3.3 26.6245 3.67859 25.9532 4.17338C25.2754 4.67301 24.5974 5.31978 23.9866 5.90566L24.2634 6.19434ZM28 3.7C28.5329 3.7 29.1263 3.99148 29.772 4.46726C30.4132 4.93972 31.0721 5.56753 31.7378 6.19548L32.0122 5.90452C31.3529 5.28247 30.6743 4.63528 30.0093 4.14524C29.3487 3.65852 28.6671 3.3 28 3.3V3.7ZM31.7378 6.19548C33.0546 7.43778 34.2324 8.59266 35.7731 9.23462L35.9269 8.86539C34.4676 8.25734 33.3454 7.16222 32.0122 5.90452L31.7378 6.19548ZM35.7731 9.23462C37.3155 9.87727 38.9823 9.87513 40.622 9.89998L40.628 9.50002C38.9677 9.47487 37.3845 9.47273 35.9269 8.86539L35.7731 9.23462ZM40.622 9.89998C41.45 9.91252 42.3801 9.92514 43.2179 10.0479C44.0631 10.1717 44.7694 10.4022 45.1836 10.8164L45.4664 10.5336C44.9556 10.0228 44.1369 9.77827 43.2759 9.65211C42.4074 9.52486 41.45 9.51248 40.628 9.50002L40.622 9.89998ZM45.1836 10.8164C45.5998 11.2326 45.8291 11.8921 45.9522 12.708C46.0748 13.52 46.0875 14.4492 46.1 15.3777L46.5 15.3723C46.4875 14.4508 46.4752 13.4925 46.3478 12.6483C46.2209 11.8079 45.9752 11.0424 45.4664 10.5336L45.1836 10.8164ZM46.1 15.3777C46.1249 17.2198 46.1479 18.7604 46.7657 20.2276L47.1343 20.0724C46.5521 18.6896 46.5251 17.2302 46.5 15.3723L46.1 15.3777ZM46.7657 20.2276C47.3824 21.6923 48.6351 23.0431 49.8057 24.2634L50.0943 23.9866C48.9149 22.7569 47.7176 21.4576 47.1343 20.0724L46.7657 20.2276ZM49.8057 24.2634C50.3948 24.8776 51.023 25.5371 51.5046 26.1905C51.9911 26.8505 52.3 27.4682 52.3 28H52.7C52.7 27.3318 52.3214 26.6245 51.8266 25.9532C51.327 25.2754 50.6802 24.5974 50.0943 23.9866L49.8057 24.2634ZM52.3 28C52.3 28.5329 52.0085 29.1263 51.5327 29.772C51.0603 30.4132 50.4325 31.0721 49.8045 31.7378L50.0955 32.0122C50.7175 31.3529 51.3647 30.6743 51.8548 30.0093C52.3415 29.3487 52.7 28.6671 52.7 28H52.3ZM40.075 20.975L39.7835 21.249L39.7875 21.2531L40.075 20.975ZM40.3886 21.4636L40.7612 21.3181V21.3181L40.3886 21.4636ZM40.4893 22.0355L40.8892 22.045V22.045L40.4893 22.0355ZM40.3615 22.6018L40.7267 22.7649L40.7267 22.7649L40.3615 22.6018ZM40.025 23.075L39.751 22.7836L39.7486 22.7858L40.025 23.075ZM25.375 37.075L25.6484 37.367L25.6514 37.3642L25.375 37.075ZM24.325 37.5L24.3248 37.9001L24.3317 37.8999L24.325 37.5ZM23.3 37.075L23.583 36.7922L23.5764 36.7858L23.3 37.075ZM15.975 30.075L16.2514 29.7858L16.251 29.7855L15.975 30.075ZM15.5151 29.0354L15.1152 29.0449L15.5151 29.0354ZM15.925 27.975L16.2145 28.251L16.2145 28.251L15.925 27.975ZM16.9646 27.5151L16.9551 27.1152H16.9551L16.9646 27.5151ZM18.025 27.925L17.749 28.2145L17.7491 28.2147L18.025 27.925ZM24.325 33.925L24.0491 34.2147L24.325 34.4774L24.6009 34.2147L24.325 33.925ZM37.975 20.925L38.2509 21.2147L38.2531 21.2125L37.975 20.925ZM38.4636 20.6114L38.3181 20.2388L38.3181 20.2389L38.4636 20.6114ZM39.6018 20.6385L39.7649 20.2733L39.7649 20.2733L39.6018 20.6385ZM39.7875 21.2531C39.8865 21.3555 39.9642 21.4765 40.016 21.6092L40.7612 21.3181C40.6707 21.0867 40.5353 20.8755 40.3625 20.6969L39.7875 21.2531ZM40.016 21.6092C40.0678 21.7419 40.0928 21.8835 40.0894 22.0259L40.8892 22.045C40.8951 21.7966 40.8516 21.5495 40.7612 21.3181L40.016 21.6092ZM40.0894 22.0259C40.086 22.1683 40.0543 22.3086 39.9962 22.4387L40.7267 22.7649C40.828 22.5381 40.8832 22.2934 40.8892 22.045L40.0894 22.0259ZM39.9962 22.4387C39.9382 22.5688 39.8548 22.686 39.751 22.7836L40.299 23.3664C40.48 23.1963 40.6254 22.9918 40.7267 22.7649L39.9962 22.4387ZM39.7486 22.7858L25.0986 36.7858L25.6514 37.3642L40.3014 23.3642L39.7486 22.7858ZM25.1016 36.783C24.8889 36.9822 24.6097 37.0952 24.3183 37.1001L24.3317 37.8999C24.8215 37.8917 25.2908 37.7018 25.6484 37.367L25.1016 36.783ZM24.3252 37.1C24.0467 37.0999 23.7797 36.9892 23.5829 36.7922L23.0171 37.3578C23.3639 37.7048 23.8343 37.8998 24.3248 37.9L24.3252 37.1ZM23.5764 36.7858L16.2514 29.7858L15.6986 30.3642L23.0236 37.3642L23.5764 36.7858ZM16.251 29.7855C16.0427 29.5869 15.9218 29.3136 15.915 29.0258L15.1152 29.0449C15.1271 29.5448 15.3371 30.0194 15.699 30.3645L16.251 29.7855ZM15.915 29.0258C15.9081 28.7381 16.0159 28.4594 16.2145 28.251L15.6355 27.699C15.2904 28.0609 15.1033 28.545 15.1152 29.0449L15.915 29.0258ZM16.2145 28.251C16.4131 28.0427 16.6864 27.9218 16.9742 27.915L16.9551 27.1152C16.4552 27.1271 15.9806 27.3371 15.6355 27.699L16.2145 28.251ZM16.9742 27.915C17.2619 27.9081 17.5406 28.0159 17.749 28.2145L18.301 27.6355C17.9391 27.2904 17.455 27.1033 16.9551 27.1152L16.9742 27.915ZM17.7491 28.2147L24.0491 34.2147L24.6009 33.6353L18.3009 27.6353L17.7491 28.2147ZM24.6009 34.2147L38.2509 21.2147L37.6991 20.6353L24.0491 33.6353L24.6009 34.2147ZM38.2531 21.2125C38.3555 21.1135 38.4765 21.0358 38.6092 20.984L38.3181 20.2389C38.0867 20.3293 37.8755 20.4647 37.6969 20.6375L38.2531 21.2125ZM38.6092 20.984C38.7419 20.9322 38.8835 20.9072 39.0259 20.9106L39.045 20.1109C38.7966 20.1049 38.5495 20.1484 38.3181 20.2388L38.6092 20.984ZM39.0259 20.9106C39.1683 20.914 39.3087 20.9457 39.4387 21.0038L39.7649 20.2733C39.5381 20.172 39.2934 20.1168 39.045 20.1109L39.0259 20.9106ZM39.4387 21.0038C39.5688 21.0618 39.686 21.1452 39.7836 21.249L40.3664 20.701C40.1963 20.52 39.9918 20.3746 39.7649 20.2733L39.4387 21.0038Z" fill="#F6F7F9" mask="url(#path-1-inside-1_667_9045)"/>
</svg>
