<svg width="64" height="64" viewBox="0 0 64 64" fill="none" xmlns="http://www.w3.org/2000/svg">
<path d="M20.3871 9H16.3226C15.7066 9 15.1158 9.24313 14.6803 9.67591C14.2447 10.1087 14 10.6957 14 11.3077V51.6923C14 52.3043 14.2447 52.8913 14.6803 53.3241C15.1158 53.7569 15.7066 54 16.3226 54H47.6774C48.2934 54 48.8842 53.7569 49.3197 53.3241C49.7553 52.8913 50 52.3043 50 51.6923V11.3077C50 10.6957 49.7553 10.1087 49.3197 9.67591C48.8842 9.24313 48.2934 9 47.6774 9H32" stroke="#333333" stroke-width="2" stroke-linecap="round" stroke-linejoin="round"/>
<path d="M20.3636 39.9155H44M18 9.30986L19.6711 7.67679C20.1143 7.24358 20.7154 7.00013 21.3422 7H31C31.3134 7 31.614 7.12168 31.8357 7.33827C32.0573 7.55486 32.1818 7.84862 32.1818 8.15493V37.0282L26.2727 31.2535L20.3636 37.0282V9.30986H18ZM20.3636 48H44H20.3636ZM32.1818 15.662H44H32.1818ZM32.1818 23.7465H44H32.1818ZM32.1818 31.831H44H32.1818Z" stroke="#1C77C3" stroke-width="2" stroke-linecap="round" stroke-linejoin="round"/>
</svg>
