<svg width="64" height="64" viewBox="0 0 64 64" fill="none" xmlns="http://www.w3.org/2000/svg">
<mask id="path-1-inside-1_699_9130" fill="white">
<path d="M19.6159 8.93745C21.7982 7.2847 24.4624 6.39328 27.1999 6.39985C28.1453 6.37865 29.0808 6.59626 29.9199 7.03255C30.7589 7.46884 31.4743 8.10971 31.9999 8.89585C32.5255 8.10971 33.2409 7.46884 34.0799 7.03255C34.919 6.59626 35.8545 6.37865 36.7999 6.39985C39.5374 6.39328 42.2016 7.2847 44.3839 8.93745C46.0639 10.2431 47.3599 12.0511 47.8175 14.2367C48.8671 14.3167 49.8271 14.7519 50.6335 15.4079C51.8559 16.3999 52.7455 17.8879 53.3055 19.4623C54.1823 21.9103 54.4191 25.0303 53.5103 27.6863C53.7407 27.7951 53.9679 27.9231 54.1887 28.0703C55.0687 28.6559 55.7375 29.4943 56.2303 30.4831C57.1999 32.4191 57.5999 35.1199 57.5999 38.3999C57.5999 42.0511 56.2079 44.5023 54.4415 46.0159C53.4647 46.8534 52.312 47.4604 51.0687 47.7919C50.7487 49.5775 49.8527 51.6447 48.4479 53.3983C46.6239 55.6863 43.7951 57.5999 39.9999 57.5999C36.9919 57.5999 34.5983 55.9359 33.0431 54.3039C32.6713 53.9142 32.3229 53.5028 31.9999 53.0718C31.6769 53.5028 31.3286 53.9142 30.9567 54.3039C29.4015 55.9359 27.0111 57.5999 23.9999 57.5999C20.2047 57.5999 17.3791 55.6863 15.5519 53.3983C14.2391 51.768 13.34 49.8446 12.9311 47.7919C11.6878 47.4604 10.5351 46.8534 9.5583 46.0159C7.7919 44.5023 6.3999 42.0479 6.3999 38.3999C6.3999 35.1199 6.8031 32.4159 7.7695 30.4831C8.22752 29.5133 8.93138 28.6804 9.8111 28.0671C10.0272 27.924 10.254 27.7977 10.4895 27.6895C9.5807 25.0271 9.8175 21.9103 10.6943 19.4623C11.2543 17.8879 12.1439 16.3999 13.3663 15.4079C14.1727 14.7519 15.1327 14.3199 16.1823 14.2367C16.6431 12.0511 17.9391 10.2431 19.6191 8.93745H19.6159ZM30.3999 14.3999V14.3679L30.3935 14.2079C30.3464 13.3736 30.1805 12.5504 29.9007 11.7631C29.7015 11.1687 29.3624 10.6309 28.9119 10.1951C28.4392 9.78347 27.8259 9.57024 27.1999 9.59985C25.1741 9.59291 23.2013 10.2468 21.5807 11.4623C20.0959 12.6175 19.1999 14.1823 19.1999 15.9999C19.1997 16.2532 19.1393 16.503 19.0238 16.7285C18.9082 16.9539 18.7407 17.1488 18.5351 17.2969C18.3295 17.445 18.0917 17.5421 17.8412 17.5803C17.5907 17.6186 17.3347 17.5967 17.0943 17.5167C16.4927 17.3183 15.9551 17.4303 15.3823 17.8911C14.7551 18.4031 14.1439 19.3119 13.7055 20.5375C12.8127 23.0399 12.9055 26.0703 14.1311 27.9135C14.3061 28.176 14.3997 28.4843 14.3999 28.7999H16.7999C18.7095 28.7999 20.5408 29.5584 21.8911 30.9087C23.2413 32.2589 23.9999 34.0903 23.9999 35.9999V37.0719C25.0674 37.4493 25.9672 38.192 26.5401 39.1686C27.113 40.1453 27.3222 41.293 27.1308 42.409C26.9393 43.525 26.3595 44.5374 25.4938 45.2672C24.628 45.997 23.5322 46.3973 22.3999 46.3973C21.2676 46.3973 20.1718 45.997 19.306 45.2672C18.4403 44.5374 17.8605 43.525 17.669 42.409C17.4776 41.293 17.6868 40.1453 18.2597 39.1686C18.8326 38.192 19.7324 37.4493 20.7999 37.0719V35.9999C20.7999 33.7919 19.0079 31.9999 16.7999 31.9999H11.1999C11.0086 31.9995 10.8189 31.9649 10.6399 31.8975L10.6303 31.9167C9.9967 33.1807 9.5999 35.2799 9.5999 38.3999C9.5999 41.1487 10.6079 42.6975 11.6415 43.5839C12.7519 44.5375 13.9839 44.7999 14.3999 44.7999C14.8242 44.7999 15.2312 44.9684 15.5313 45.2685C15.8313 45.5685 15.9999 45.9755 15.9999 46.3999C15.9999 47.5775 16.6399 49.6351 18.0479 51.4015C19.4207 53.1135 21.3951 54.3999 23.9999 54.3999C25.7919 54.3999 27.3983 53.3983 28.6399 52.0959C29.2511 51.4559 29.7279 50.7935 30.0383 50.2495C30.1796 50.0082 30.3006 49.7556 30.3999 49.4943V23.9999H26.9279C26.5505 25.0674 25.8078 25.9671 24.8311 26.5401C23.8545 27.113 22.7067 27.3222 21.5907 27.1307C20.4747 26.9392 19.4624 26.3594 18.7325 25.4937C18.0027 24.628 17.6024 23.5322 17.6024 22.3999C17.6024 21.2676 18.0027 20.1717 18.7325 19.306C19.4624 18.4403 20.4747 17.8605 21.5907 17.669C22.7067 17.4775 23.8545 17.6867 24.8311 18.2596C25.8078 18.8326 26.5505 19.7323 26.9279 20.7999H30.3999V14.3999ZM33.5999 46.3967V49.4911C33.6993 49.7524 33.8202 50.005 33.9615 50.2463C34.2751 50.7903 34.7487 51.4527 35.3567 52.0927C36.6015 53.3951 38.2111 54.3967 39.9999 54.3967C42.6047 54.3967 44.5791 53.1103 45.9519 51.3983C47.3599 49.6319 47.9999 47.5743 47.9999 46.3967C47.9999 45.9723 48.1685 45.5653 48.4685 45.2653C48.7686 44.9652 49.1756 44.7967 49.5999 44.7967C50.0159 44.7967 51.2479 44.5343 52.3583 43.5807C53.3919 42.6943 54.3999 41.1455 54.3999 38.3967C54.3999 35.2767 53.9999 33.1807 53.3695 31.9135C53.1586 31.4416 52.8276 31.0333 52.4095 30.7295C52.0492 30.4991 51.6272 30.3841 51.1999 30.3999C50.9105 30.3997 50.6265 30.3211 50.3783 30.1723C50.13 30.0235 49.9268 29.8102 49.7902 29.5551C49.6536 29.2999 49.5887 29.0125 49.6026 28.7234C49.6164 28.4343 49.7084 28.1544 49.8687 27.9135C51.0975 26.0703 51.1871 23.0399 50.2943 20.5375C49.8559 19.3119 49.2447 18.3999 48.6175 17.8911C48.0447 17.4303 47.5071 17.3151 46.9055 17.5167C46.6651 17.5967 46.4091 17.6186 46.1586 17.5803C45.9081 17.5421 45.6703 17.445 45.4647 17.2969C45.2591 17.1488 45.0916 16.9539 44.976 16.7285C44.8605 16.503 44.8001 16.2532 44.7999 15.9999C44.7999 14.1823 43.9039 12.6175 42.4159 11.4623C40.7962 10.2474 38.8246 9.5936 36.7999 9.59985C36.1739 9.57024 35.5606 9.78347 35.0879 10.1951C34.636 10.6304 34.2958 11.1683 34.0959 11.7631C33.7913 12.5989 33.6238 13.4785 33.5999 14.3679V43.1999H35.9999C38.2079 43.1999 39.9999 41.4079 39.9999 39.1999V33.3279C38.9324 32.9504 38.0326 32.2077 37.4597 31.2311C36.8868 30.2544 36.6776 29.1067 36.869 27.9907C37.0605 26.8747 37.6403 25.8623 38.506 25.1325C39.3718 24.4027 40.4676 24.0024 41.5999 24.0024C42.7322 24.0024 43.828 24.4027 44.6938 25.1325C45.5595 25.8623 46.1393 26.8747 46.3308 27.9907C46.5222 29.1067 46.313 30.2544 45.7401 31.2311C45.1672 32.2077 44.2674 32.9504 43.1999 33.3279V39.1999C43.1999 41.1094 42.4413 42.9408 41.0911 44.291C39.7408 45.6413 37.9095 46.3999 35.9999 46.3999H33.5999V46.3967ZM20.7999 22.3999C20.7999 22.8242 20.9685 23.2312 21.2685 23.5312C21.5686 23.8313 21.9756 23.9999 22.3999 23.9999C22.8242 23.9999 23.2312 23.8313 23.5313 23.5312C23.8313 23.2312 23.9999 22.8242 23.9999 22.3999C23.9999 21.9755 23.8313 21.5685 23.5313 21.2685C23.2312 20.9684 22.8242 20.7999 22.3999 20.7999C21.9756 20.7999 21.5686 20.9684 21.2685 21.2685C20.9685 21.5685 20.7999 21.9755 20.7999 22.3999ZM41.5999 30.3999C42.0243 30.3999 42.4312 30.2313 42.7313 29.9312C43.0313 29.6312 43.1999 29.2242 43.1999 28.7999C43.1999 28.3755 43.0313 27.9685 42.7313 27.6685C42.4312 27.3684 42.0243 27.1999 41.5999 27.1999C41.1756 27.1999 40.7686 27.3684 40.4685 27.6685C40.1685 27.9685 39.9999 28.3755 39.9999 28.7999C39.9999 29.2242 40.1685 29.6312 40.4685 29.9312C40.7686 30.2313 41.1756 30.3999 41.5999 30.3999ZM22.3999 39.9999C21.9756 39.9999 21.5686 40.1684 21.2685 40.4685C20.9685 40.7685 20.7999 41.1755 20.7999 41.5999C20.7999 42.0242 20.9685 42.4312 21.2685 42.7312C21.5686 43.0313 21.9756 43.1999 22.3999 43.1999C22.8242 43.1999 23.2312 43.0313 23.5313 42.7312C23.8313 42.4312 23.9999 42.0242 23.9999 41.5999C23.9999 41.1755 23.8313 40.7685 23.5313 40.4685C23.2312 40.1684 22.8242 39.9999 22.3999 39.9999Z"/>
</mask>
<path d="M19.6159 8.93745C21.7982 7.2847 24.4624 6.39328 27.1999 6.39985C28.1453 6.37865 29.0808 6.59626 29.9199 7.03255C30.7589 7.46884 31.4743 8.10971 31.9999 8.89585C32.5255 8.10971 33.2409 7.46884 34.0799 7.03255C34.919 6.59626 35.8545 6.37865 36.7999 6.39985C39.5374 6.39328 42.2016 7.2847 44.3839 8.93745C46.0639 10.2431 47.3599 12.0511 47.8175 14.2367C48.8671 14.3167 49.8271 14.7519 50.6335 15.4079C51.8559 16.3999 52.7455 17.8879 53.3055 19.4623C54.1823 21.9103 54.4191 25.0303 53.5103 27.6863C53.7407 27.7951 53.9679 27.9231 54.1887 28.0703C55.0687 28.6559 55.7375 29.4943 56.2303 30.4831C57.1999 32.4191 57.5999 35.1199 57.5999 38.3999C57.5999 42.0511 56.2079 44.5023 54.4415 46.0159C53.4647 46.8534 52.312 47.4604 51.0687 47.7919C50.7487 49.5775 49.8527 51.6447 48.4479 53.3983C46.6239 55.6863 43.7951 57.5999 39.9999 57.5999C36.9919 57.5999 34.5983 55.9359 33.0431 54.3039C32.6713 53.9142 32.3229 53.5028 31.9999 53.0718C31.6769 53.5028 31.3286 53.9142 30.9567 54.3039C29.4015 55.9359 27.0111 57.5999 23.9999 57.5999C20.2047 57.5999 17.3791 55.6863 15.5519 53.3983C14.2391 51.768 13.34 49.8446 12.9311 47.7919C11.6878 47.4604 10.5351 46.8534 9.5583 46.0159C7.7919 44.5023 6.3999 42.0479 6.3999 38.3999C6.3999 35.1199 6.8031 32.4159 7.7695 30.4831C8.22752 29.5133 8.93138 28.6804 9.8111 28.0671C10.0272 27.924 10.254 27.7977 10.4895 27.6895C9.5807 25.0271 9.8175 21.9103 10.6943 19.4623C11.2543 17.8879 12.1439 16.3999 13.3663 15.4079C14.1727 14.7519 15.1327 14.3199 16.1823 14.2367C16.6431 12.0511 17.9391 10.2431 19.6191 8.93745H19.6159ZM30.3999 14.3999V14.3679L30.3935 14.2079C30.3464 13.3736 30.1805 12.5504 29.9007 11.7631C29.7015 11.1687 29.3624 10.6309 28.9119 10.1951C28.4392 9.78347 27.8259 9.57024 27.1999 9.59985C25.1741 9.59291 23.2013 10.2468 21.5807 11.4623C20.0959 12.6175 19.1999 14.1823 19.1999 15.9999C19.1997 16.2532 19.1393 16.503 19.0238 16.7285C18.9082 16.9539 18.7407 17.1488 18.5351 17.2969C18.3295 17.445 18.0917 17.5421 17.8412 17.5803C17.5907 17.6186 17.3347 17.5967 17.0943 17.5167C16.4927 17.3183 15.9551 17.4303 15.3823 17.8911C14.7551 18.4031 14.1439 19.3119 13.7055 20.5375C12.8127 23.0399 12.9055 26.0703 14.1311 27.9135C14.3061 28.176 14.3997 28.4843 14.3999 28.7999H16.7999C18.7095 28.7999 20.5408 29.5584 21.8911 30.9087C23.2413 32.2589 23.9999 34.0903 23.9999 35.9999V37.0719C25.0674 37.4493 25.9672 38.192 26.5401 39.1686C27.113 40.1453 27.3222 41.293 27.1308 42.409C26.9393 43.525 26.3595 44.5374 25.4938 45.2672C24.628 45.997 23.5322 46.3973 22.3999 46.3973C21.2676 46.3973 20.1718 45.997 19.306 45.2672C18.4403 44.5374 17.8605 43.525 17.669 42.409C17.4776 41.293 17.6868 40.1453 18.2597 39.1686C18.8326 38.192 19.7324 37.4493 20.7999 37.0719V35.9999C20.7999 33.7919 19.0079 31.9999 16.7999 31.9999H11.1999C11.0086 31.9995 10.8189 31.9649 10.6399 31.8975L10.6303 31.9167C9.9967 33.1807 9.5999 35.2799 9.5999 38.3999C9.5999 41.1487 10.6079 42.6975 11.6415 43.5839C12.7519 44.5375 13.9839 44.7999 14.3999 44.7999C14.8242 44.7999 15.2312 44.9684 15.5313 45.2685C15.8313 45.5685 15.9999 45.9755 15.9999 46.3999C15.9999 47.5775 16.6399 49.6351 18.0479 51.4015C19.4207 53.1135 21.3951 54.3999 23.9999 54.3999C25.7919 54.3999 27.3983 53.3983 28.6399 52.0959C29.2511 51.4559 29.7279 50.7935 30.0383 50.2495C30.1796 50.0082 30.3006 49.7556 30.3999 49.4943V23.9999H26.9279C26.5505 25.0674 25.8078 25.9671 24.8311 26.5401C23.8545 27.113 22.7067 27.3222 21.5907 27.1307C20.4747 26.9392 19.4624 26.3594 18.7325 25.4937C18.0027 24.628 17.6024 23.5322 17.6024 22.3999C17.6024 21.2676 18.0027 20.1717 18.7325 19.306C19.4624 18.4403 20.4747 17.8605 21.5907 17.669C22.7067 17.4775 23.8545 17.6867 24.8311 18.2596C25.8078 18.8326 26.5505 19.7323 26.9279 20.7999H30.3999V14.3999ZM33.5999 46.3967V49.4911C33.6993 49.7524 33.8202 50.005 33.9615 50.2463C34.2751 50.7903 34.7487 51.4527 35.3567 52.0927C36.6015 53.3951 38.2111 54.3967 39.9999 54.3967C42.6047 54.3967 44.5791 53.1103 45.9519 51.3983C47.3599 49.6319 47.9999 47.5743 47.9999 46.3967C47.9999 45.9723 48.1685 45.5653 48.4685 45.2653C48.7686 44.9652 49.1756 44.7967 49.5999 44.7967C50.0159 44.7967 51.2479 44.5343 52.3583 43.5807C53.3919 42.6943 54.3999 41.1455 54.3999 38.3967C54.3999 35.2767 53.9999 33.1807 53.3695 31.9135C53.1586 31.4416 52.8276 31.0333 52.4095 30.7295C52.0492 30.4991 51.6272 30.3841 51.1999 30.3999C50.9105 30.3997 50.6265 30.3211 50.3783 30.1723C50.13 30.0235 49.9268 29.8102 49.7902 29.5551C49.6536 29.2999 49.5887 29.0125 49.6026 28.7234C49.6164 28.4343 49.7084 28.1544 49.8687 27.9135C51.0975 26.0703 51.1871 23.0399 50.2943 20.5375C49.8559 19.3119 49.2447 18.3999 48.6175 17.8911C48.0447 17.4303 47.5071 17.3151 46.9055 17.5167C46.6651 17.5967 46.4091 17.6186 46.1586 17.5803C45.9081 17.5421 45.6703 17.445 45.4647 17.2969C45.2591 17.1488 45.0916 16.9539 44.976 16.7285C44.8605 16.503 44.8001 16.2532 44.7999 15.9999C44.7999 14.1823 43.9039 12.6175 42.4159 11.4623C40.7962 10.2474 38.8246 9.5936 36.7999 9.59985C36.1739 9.57024 35.5606 9.78347 35.0879 10.1951C34.636 10.6304 34.2958 11.1683 34.0959 11.7631C33.7913 12.5989 33.6238 13.4785 33.5999 14.3679V43.1999H35.9999C38.2079 43.1999 39.9999 41.4079 39.9999 39.1999V33.3279C38.9324 32.9504 38.0326 32.2077 37.4597 31.2311C36.8868 30.2544 36.6776 29.1067 36.869 27.9907C37.0605 26.8747 37.6403 25.8623 38.506 25.1325C39.3718 24.4027 40.4676 24.0024 41.5999 24.0024C42.7322 24.0024 43.828 24.4027 44.6938 25.1325C45.5595 25.8623 46.1393 26.8747 46.3308 27.9907C46.5222 29.1067 46.313 30.2544 45.7401 31.2311C45.1672 32.2077 44.2674 32.9504 43.1999 33.3279V39.1999C43.1999 41.1094 42.4413 42.9408 41.0911 44.291C39.7408 45.6413 37.9095 46.3999 35.9999 46.3999H33.5999V46.3967ZM20.7999 22.3999C20.7999 22.8242 20.9685 23.2312 21.2685 23.5312C21.5686 23.8313 21.9756 23.9999 22.3999 23.9999C22.8242 23.9999 23.2312 23.8313 23.5313 23.5312C23.8313 23.2312 23.9999 22.8242 23.9999 22.3999C23.9999 21.9755 23.8313 21.5685 23.5313 21.2685C23.2312 20.9684 22.8242 20.7999 22.3999 20.7999C21.9756 20.7999 21.5686 20.9684 21.2685 21.2685C20.9685 21.5685 20.7999 21.9755 20.7999 22.3999ZM41.5999 30.3999C42.0243 30.3999 42.4312 30.2313 42.7313 29.9312C43.0313 29.6312 43.1999 29.2242 43.1999 28.7999C43.1999 28.3755 43.0313 27.9685 42.7313 27.6685C42.4312 27.3684 42.0243 27.1999 41.5999 27.1999C41.1756 27.1999 40.7686 27.3684 40.4685 27.6685C40.1685 27.9685 39.9999 28.3755 39.9999 28.7999C39.9999 29.2242 40.1685 29.6312 40.4685 29.9312C40.7686 30.2313 41.1756 30.3999 41.5999 30.3999ZM22.3999 39.9999C21.9756 39.9999 21.5686 40.1684 21.2685 40.4685C20.9685 40.7685 20.7999 41.1755 20.7999 41.5999C20.7999 42.0242 20.9685 42.4312 21.2685 42.7312C21.5686 43.0313 21.9756 43.1999 22.3999 43.1999C22.8242 43.1999 23.2312 43.0313 23.5313 42.7312C23.8313 42.4312 23.9999 42.0242 23.9999 41.5999C23.9999 41.1755 23.8313 40.7685 23.5313 40.4685C23.2312 40.1684 22.8242 39.9999 22.3999 39.9999Z" fill="#1C77C3" stroke="#F6F7F9" mask="url(#path-1-inside-1_699_9130)"/>
<g clip-path="url(#clip0_699_9130)">
<mask id="path-2-inside-2_699_9130" fill="white">
<path d="M19.6164 8.93745C21.7987 7.2847 24.4629 6.39328 27.2004 6.39985C28.1458 6.37865 29.0813 6.59626 29.9203 7.03255C30.7594 7.46884 31.4748 8.10971 32.0004 8.89585C32.526 8.10971 33.2414 7.46884 34.0804 7.03255C34.9195 6.59626 35.855 6.37865 36.8004 6.39985C39.5379 6.39328 42.2021 7.2847 44.3844 8.93745C46.0644 10.2431 47.3604 12.0511 47.818 14.2366C48.8676 14.3167 49.8276 14.7519 50.634 15.4079C51.8564 16.3999 52.746 17.8878 53.306 19.4622C54.1828 21.9102 54.4196 25.0303 53.5108 27.6863C53.7412 27.7951 53.9684 27.9231 54.1892 28.0703C55.0692 28.6559 55.738 29.4943 56.2308 30.4831C57.2004 32.4191 57.6004 35.1199 57.6004 38.3999C57.6004 42.0511 56.2084 44.5023 54.442 46.0159C53.4652 46.8534 52.3125 47.4604 51.0692 47.7919C50.7492 49.5775 49.8532 51.6447 48.4484 53.3983C46.6244 55.6863 43.7956 57.5999 40.0004 57.5999C36.9924 57.5999 34.5988 55.9358 33.0436 54.3038C32.6718 53.9142 32.3234 53.5028 32.0004 53.0718C31.6774 53.5028 31.329 53.9142 30.9572 54.3038C29.402 55.9358 27.0116 57.5999 24.0004 57.5999C20.2052 57.5999 17.3796 55.6863 15.5524 53.3983C14.2396 51.768 13.3405 49.8446 12.9316 47.7919C11.6883 47.4604 10.5356 46.8534 9.55879 46.0159C7.79239 44.5023 6.40039 42.0479 6.40039 38.3999C6.40039 35.1199 6.80359 32.4159 7.76999 30.4831C8.228 29.5133 8.93186 28.6804 9.81159 28.0671C10.0277 27.924 10.2545 27.7977 10.49 27.6895C9.58119 25.0271 9.81799 21.9102 10.6948 19.4622C11.2548 17.8878 12.1444 16.3999 13.3668 15.4079C14.1732 14.7519 15.1332 14.3198 16.1828 14.2366C16.6436 12.0511 17.9396 10.2431 19.6196 8.93745H19.6164ZM30.4004 14.3999V14.3678L30.394 14.2079C30.3469 13.3736 30.1809 12.5504 29.9012 11.7631C29.702 11.1687 29.3629 10.6309 28.9124 10.1951C28.4397 9.78347 27.8264 9.57024 27.2004 9.59985C25.1746 9.59291 23.2018 10.2468 21.5812 11.4623C20.0964 12.6175 19.2004 14.1823 19.2004 15.9999C19.2002 16.2532 19.1398 16.503 19.0242 16.7284C18.9087 16.9539 18.7412 17.1488 18.5356 17.2969C18.33 17.445 18.0922 17.5421 17.8417 17.5803C17.5912 17.6185 17.3352 17.5967 17.0948 17.5167C16.4932 17.3183 15.9556 17.4303 15.3828 17.8911C14.7556 18.4031 14.1444 19.3119 13.706 20.5375C12.8132 23.0399 12.906 26.0702 14.1316 27.9135C14.3066 28.176 14.4001 28.4843 14.4004 28.7999H16.8004C18.7099 28.7999 20.5413 29.5584 21.8916 30.9087C23.2418 32.2589 24.0004 34.0903 24.0004 35.9999V37.0719C25.0679 37.4493 25.9677 38.192 26.5406 39.1686C27.1135 40.1453 27.3227 41.293 27.1313 42.409C26.9398 43.525 26.36 44.5374 25.4942 45.2672C24.6285 45.997 23.5327 46.3973 22.4004 46.3973C21.2681 46.3973 20.1722 45.997 19.3065 45.2672C18.4408 44.5374 17.861 43.525 17.6695 42.409C17.478 41.293 17.6873 40.1453 18.2602 39.1686C18.8331 38.192 19.7328 37.4493 20.8004 37.0719V35.9999C20.8004 33.7919 19.0084 31.9999 16.8004 31.9999H11.2004C11.0091 31.9995 10.8194 31.9649 10.6404 31.8975L10.6308 31.9167C9.99719 33.1807 9.60039 35.2799 9.60039 38.3999C9.60039 41.1487 10.6084 42.6974 11.642 43.5839C12.7524 44.5374 13.9844 44.7999 14.4004 44.7999C14.8247 44.7999 15.2317 44.9684 15.5318 45.2685C15.8318 45.5685 16.0004 45.9755 16.0004 46.3999C16.0004 47.5774 16.6404 49.6351 18.0484 51.4015C19.4212 53.1134 21.3956 54.3999 24.0004 54.3999C25.7924 54.3999 27.3988 53.3983 28.6404 52.0959C29.2516 51.4559 29.7284 50.7935 30.0388 50.2495C30.1801 50.0082 30.301 49.7556 30.4004 49.4943V23.9999H26.9284C26.551 25.0674 25.8083 25.9671 24.8316 26.5401C23.855 27.113 22.7072 27.3222 21.5912 27.1307C20.4752 26.9392 19.4628 26.3594 18.733 25.4937C18.0032 24.628 17.6029 23.5322 17.6029 22.3999C17.6029 21.2676 18.0032 20.1717 18.733 19.306C19.4628 18.4403 20.4752 17.8605 21.5912 17.669C22.7072 17.4775 23.855 17.6867 24.8316 18.2596C25.8083 18.8326 26.551 19.7323 26.9284 20.7999H30.4004V14.3999ZM33.6004 46.3966V49.4911C33.6998 49.7524 33.8207 50.005 33.962 50.2463C34.2756 50.7902 34.7492 51.4526 35.3572 52.0926C36.602 53.3951 38.2116 54.3967 40.0004 54.3967C42.6052 54.3967 44.5796 53.1103 45.9524 51.3983C47.3604 49.6319 48.0004 47.5742 48.0004 46.3966C48.0004 45.9723 48.169 45.5653 48.469 45.2653C48.7691 44.9652 49.176 44.7966 49.6004 44.7966C50.0164 44.7966 51.2484 44.5343 52.3588 43.5807C53.3924 42.6943 54.4004 41.1455 54.4004 38.3967C54.4004 35.2766 54.0004 33.1806 53.37 31.9135C53.1591 31.4416 52.8281 31.0333 52.41 30.7295C52.0497 30.4991 51.6277 30.3841 51.2004 30.3999C50.911 30.3997 50.627 30.3211 50.3788 30.1723C50.1305 30.0235 49.9273 29.8102 49.7907 29.5551C49.6541 29.2999 49.5892 29.0125 49.603 28.7234C49.6169 28.4343 49.7089 28.1544 49.8692 27.9135C51.098 26.0702 51.1876 23.0399 50.2948 20.5375C49.8564 19.3119 49.2452 18.3999 48.618 17.8911C48.0452 17.4303 47.5076 17.3151 46.906 17.5167C46.6656 17.5967 46.4096 17.6185 46.1591 17.5803C45.9086 17.5421 45.6708 17.445 45.4652 17.2969C45.2596 17.1488 45.0921 16.9539 44.9765 16.7284C44.861 16.503 44.8006 16.2532 44.8004 15.9999C44.8004 14.1823 43.9044 12.6175 42.4164 11.4623C40.7966 10.2474 38.8251 9.5936 36.8004 9.59985C36.1743 9.57024 35.561 9.78347 35.0884 10.1951C34.6365 10.6304 34.2962 11.1683 34.0964 11.7631C33.7917 12.5989 33.6242 13.4785 33.6004 14.3678V43.1999H36.0004C38.2084 43.1999 40.0004 41.4079 40.0004 39.1999V33.3279C38.9328 32.9504 38.0331 32.2077 37.4602 31.2311C36.8873 30.2544 36.678 29.1067 36.8695 27.9907C37.061 26.8747 37.6408 25.8623 38.5065 25.1325C39.3722 24.4027 40.4681 24.0024 41.6004 24.0024C42.7327 24.0024 43.8285 24.4027 44.6942 25.1325C45.56 25.8623 46.1398 26.8747 46.3313 27.9907C46.5227 29.1067 46.3135 30.2544 45.7406 31.2311C45.1677 32.2077 44.2679 32.9504 43.2004 33.3279V39.1999C43.2004 41.1094 42.4418 42.9408 41.0916 44.291C39.7413 45.6413 37.9099 46.3999 36.0004 46.3999H33.6004V46.3966ZM20.8004 22.3999C20.8004 22.8242 20.969 23.2312 21.269 23.5312C21.5691 23.8313 21.976 23.9999 22.4004 23.9999C22.8247 23.9999 23.2317 23.8313 23.5318 23.5312C23.8318 23.2312 24.0004 22.8242 24.0004 22.3999C24.0004 21.9755 23.8318 21.5685 23.5318 21.2685C23.2317 20.9684 22.8247 20.7999 22.4004 20.7999C21.976 20.7999 21.5691 20.9684 21.269 21.2685C20.969 21.5685 20.8004 21.9755 20.8004 22.3999ZM41.6004 30.3999C42.0247 30.3999 42.4317 30.2313 42.7318 29.9312C43.0318 29.6312 43.2004 29.2242 43.2004 28.7999C43.2004 28.3755 43.0318 27.9685 42.7318 27.6685C42.4317 27.3684 42.0247 27.1999 41.6004 27.1999C41.176 27.1999 40.7691 27.3684 40.469 27.6685C40.169 27.9685 40.0004 28.3755 40.0004 28.7999C40.0004 29.2242 40.169 29.6312 40.469 29.9312C40.7691 30.2313 41.176 30.3999 41.6004 30.3999ZM22.4004 39.9999C21.976 39.9999 21.5691 40.1684 21.269 40.4685C20.969 40.7685 20.8004 41.1755 20.8004 41.5998C20.8004 42.0242 20.969 42.4312 21.269 42.7312C21.5691 43.0313 21.976 43.1999 22.4004 43.1999C22.8247 43.1999 23.2317 43.0313 23.5318 42.7312C23.8318 42.4312 24.0004 42.0242 24.0004 41.5998C24.0004 41.1755 23.8318 40.7685 23.5318 40.4685C23.2317 40.1684 22.8247 39.9999 22.4004 39.9999Z"/>
</mask>
<path d="M19.6164 8.93745C21.7987 7.2847 24.4629 6.39328 27.2004 6.39985C28.1458 6.37865 29.0813 6.59626 29.9203 7.03255C30.7594 7.46884 31.4748 8.10971 32.0004 8.89585C32.526 8.10971 33.2414 7.46884 34.0804 7.03255C34.9195 6.59626 35.855 6.37865 36.8004 6.39985C39.5379 6.39328 42.2021 7.2847 44.3844 8.93745C46.0644 10.2431 47.3604 12.0511 47.818 14.2366C48.8676 14.3167 49.8276 14.7519 50.634 15.4079C51.8564 16.3999 52.746 17.8878 53.306 19.4622C54.1828 21.9102 54.4196 25.0303 53.5108 27.6863C53.7412 27.7951 53.9684 27.9231 54.1892 28.0703C55.0692 28.6559 55.738 29.4943 56.2308 30.4831C57.2004 32.4191 57.6004 35.1199 57.6004 38.3999C57.6004 42.0511 56.2084 44.5023 54.442 46.0159C53.4652 46.8534 52.3125 47.4604 51.0692 47.7919C50.7492 49.5775 49.8532 51.6447 48.4484 53.3983C46.6244 55.6863 43.7956 57.5999 40.0004 57.5999C36.9924 57.5999 34.5988 55.9358 33.0436 54.3038C32.6718 53.9142 32.3234 53.5028 32.0004 53.0718C31.6774 53.5028 31.329 53.9142 30.9572 54.3038C29.402 55.9358 27.0116 57.5999 24.0004 57.5999C20.2052 57.5999 17.3796 55.6863 15.5524 53.3983C14.2396 51.768 13.3405 49.8446 12.9316 47.7919C11.6883 47.4604 10.5356 46.8534 9.55879 46.0159C7.79239 44.5023 6.40039 42.0479 6.40039 38.3999C6.40039 35.1199 6.80359 32.4159 7.76999 30.4831C8.228 29.5133 8.93186 28.6804 9.81159 28.0671C10.0277 27.924 10.2545 27.7977 10.49 27.6895C9.58119 25.0271 9.81799 21.9102 10.6948 19.4622C11.2548 17.8878 12.1444 16.3999 13.3668 15.4079C14.1732 14.7519 15.1332 14.3198 16.1828 14.2366C16.6436 12.0511 17.9396 10.2431 19.6196 8.93745H19.6164ZM30.4004 14.3999V14.3678L30.394 14.2079C30.3469 13.3736 30.1809 12.5504 29.9012 11.7631C29.702 11.1687 29.3629 10.6309 28.9124 10.1951C28.4397 9.78347 27.8264 9.57024 27.2004 9.59985C25.1746 9.59291 23.2018 10.2468 21.5812 11.4623C20.0964 12.6175 19.2004 14.1823 19.2004 15.9999C19.2002 16.2532 19.1398 16.503 19.0242 16.7284C18.9087 16.9539 18.7412 17.1488 18.5356 17.2969C18.33 17.445 18.0922 17.5421 17.8417 17.5803C17.5912 17.6185 17.3352 17.5967 17.0948 17.5167C16.4932 17.3183 15.9556 17.4303 15.3828 17.8911C14.7556 18.4031 14.1444 19.3119 13.706 20.5375C12.8132 23.0399 12.906 26.0702 14.1316 27.9135C14.3066 28.176 14.4001 28.4843 14.4004 28.7999H16.8004C18.7099 28.7999 20.5413 29.5584 21.8916 30.9087C23.2418 32.2589 24.0004 34.0903 24.0004 35.9999V37.0719C25.0679 37.4493 25.9677 38.192 26.5406 39.1686C27.1135 40.1453 27.3227 41.293 27.1313 42.409C26.9398 43.525 26.36 44.5374 25.4942 45.2672C24.6285 45.997 23.5327 46.3973 22.4004 46.3973C21.2681 46.3973 20.1722 45.997 19.3065 45.2672C18.4408 44.5374 17.861 43.525 17.6695 42.409C17.478 41.293 17.6873 40.1453 18.2602 39.1686C18.8331 38.192 19.7328 37.4493 20.8004 37.0719V35.9999C20.8004 33.7919 19.0084 31.9999 16.8004 31.9999H11.2004C11.0091 31.9995 10.8194 31.9649 10.6404 31.8975L10.6308 31.9167C9.99719 33.1807 9.60039 35.2799 9.60039 38.3999C9.60039 41.1487 10.6084 42.6974 11.642 43.5839C12.7524 44.5374 13.9844 44.7999 14.4004 44.7999C14.8247 44.7999 15.2317 44.9684 15.5318 45.2685C15.8318 45.5685 16.0004 45.9755 16.0004 46.3999C16.0004 47.5774 16.6404 49.6351 18.0484 51.4015C19.4212 53.1134 21.3956 54.3999 24.0004 54.3999C25.7924 54.3999 27.3988 53.3983 28.6404 52.0959C29.2516 51.4559 29.7284 50.7935 30.0388 50.2495C30.1801 50.0082 30.301 49.7556 30.4004 49.4943V23.9999H26.9284C26.551 25.0674 25.8083 25.9671 24.8316 26.5401C23.855 27.113 22.7072 27.3222 21.5912 27.1307C20.4752 26.9392 19.4628 26.3594 18.733 25.4937C18.0032 24.628 17.6029 23.5322 17.6029 22.3999C17.6029 21.2676 18.0032 20.1717 18.733 19.306C19.4628 18.4403 20.4752 17.8605 21.5912 17.669C22.7072 17.4775 23.855 17.6867 24.8316 18.2596C25.8083 18.8326 26.551 19.7323 26.9284 20.7999H30.4004V14.3999ZM33.6004 46.3966V49.4911C33.6998 49.7524 33.8207 50.005 33.962 50.2463C34.2756 50.7902 34.7492 51.4526 35.3572 52.0926C36.602 53.3951 38.2116 54.3967 40.0004 54.3967C42.6052 54.3967 44.5796 53.1103 45.9524 51.3983C47.3604 49.6319 48.0004 47.5742 48.0004 46.3966C48.0004 45.9723 48.169 45.5653 48.469 45.2653C48.7691 44.9652 49.176 44.7966 49.6004 44.7966C50.0164 44.7966 51.2484 44.5343 52.3588 43.5807C53.3924 42.6943 54.4004 41.1455 54.4004 38.3967C54.4004 35.2766 54.0004 33.1806 53.37 31.9135C53.1591 31.4416 52.8281 31.0333 52.41 30.7295C52.0497 30.4991 51.6277 30.3841 51.2004 30.3999C50.911 30.3997 50.627 30.3211 50.3788 30.1723C50.1305 30.0235 49.9273 29.8102 49.7907 29.5551C49.6541 29.2999 49.5892 29.0125 49.603 28.7234C49.6169 28.4343 49.7089 28.1544 49.8692 27.9135C51.098 26.0702 51.1876 23.0399 50.2948 20.5375C49.8564 19.3119 49.2452 18.3999 48.618 17.8911C48.0452 17.4303 47.5076 17.3151 46.906 17.5167C46.6656 17.5967 46.4096 17.6185 46.1591 17.5803C45.9086 17.5421 45.6708 17.445 45.4652 17.2969C45.2596 17.1488 45.0921 16.9539 44.9765 16.7284C44.861 16.503 44.8006 16.2532 44.8004 15.9999C44.8004 14.1823 43.9044 12.6175 42.4164 11.4623C40.7966 10.2474 38.8251 9.5936 36.8004 9.59985C36.1743 9.57024 35.561 9.78347 35.0884 10.1951C34.6365 10.6304 34.2962 11.1683 34.0964 11.7631C33.7917 12.5989 33.6242 13.4785 33.6004 14.3678V43.1999H36.0004C38.2084 43.1999 40.0004 41.4079 40.0004 39.1999V33.3279C38.9328 32.9504 38.0331 32.2077 37.4602 31.2311C36.8873 30.2544 36.678 29.1067 36.8695 27.9907C37.061 26.8747 37.6408 25.8623 38.5065 25.1325C39.3722 24.4027 40.4681 24.0024 41.6004 24.0024C42.7327 24.0024 43.8285 24.4027 44.6942 25.1325C45.56 25.8623 46.1398 26.8747 46.3313 27.9907C46.5227 29.1067 46.3135 30.2544 45.7406 31.2311C45.1677 32.2077 44.2679 32.9504 43.2004 33.3279V39.1999C43.2004 41.1094 42.4418 42.9408 41.0916 44.291C39.7413 45.6413 37.9099 46.3999 36.0004 46.3999H33.6004V46.3966ZM20.8004 22.3999C20.8004 22.8242 20.969 23.2312 21.269 23.5312C21.5691 23.8313 21.976 23.9999 22.4004 23.9999C22.8247 23.9999 23.2317 23.8313 23.5318 23.5312C23.8318 23.2312 24.0004 22.8242 24.0004 22.3999C24.0004 21.9755 23.8318 21.5685 23.5318 21.2685C23.2317 20.9684 22.8247 20.7999 22.4004 20.7999C21.976 20.7999 21.5691 20.9684 21.269 21.2685C20.969 21.5685 20.8004 21.9755 20.8004 22.3999ZM41.6004 30.3999C42.0247 30.3999 42.4317 30.2313 42.7318 29.9312C43.0318 29.6312 43.2004 29.2242 43.2004 28.7999C43.2004 28.3755 43.0318 27.9685 42.7318 27.6685C42.4317 27.3684 42.0247 27.1999 41.6004 27.1999C41.176 27.1999 40.7691 27.3684 40.469 27.6685C40.169 27.9685 40.0004 28.3755 40.0004 28.7999C40.0004 29.2242 40.169 29.6312 40.469 29.9312C40.7691 30.2313 41.176 30.3999 41.6004 30.3999ZM22.4004 39.9999C21.976 39.9999 21.5691 40.1684 21.269 40.4685C20.969 40.7685 20.8004 41.1755 20.8004 41.5998C20.8004 42.0242 20.969 42.4312 21.269 42.7312C21.5691 43.0313 21.976 43.1999 22.4004 43.1999C22.8247 43.1999 23.2317 43.0313 23.5318 42.7312C23.8318 42.4312 24.0004 42.0242 24.0004 41.5998C24.0004 41.1755 23.8318 40.7685 23.5318 40.4685C23.2317 40.1684 22.8247 39.9999 22.4004 39.9999Z" fill="#333333" stroke="#F6F7F9" mask="url(#path-2-inside-2_699_9130)"/>
</g>
<defs>
<clipPath id="clip0_699_9130">
<rect width="32" height="64" fill="white" transform="translate(32)"/>
</clipPath>
</defs>
</svg>
