<svg width="48" height="48" viewBox="0 0 48 48" fill="none" xmlns="http://www.w3.org/2000/svg">
<path d="M42.3413 19.2659L42.3423 19.2669C42.9435 19.8868 43.5713 20.543 44.0499 21.2656C44.5276 21.9867 44.85 22.7642 44.85 23.625C44.85 24.4858 44.5276 25.2633 44.0499 25.9844C43.5713 26.707 42.9435 27.3632 42.3423 27.9831L42.3413 27.9841C41.9754 28.3688 41.597 28.7755 41.2743 29.1717C40.9531 29.5661 40.6794 29.9593 40.5303 30.3173C40.3809 30.6759 40.3042 31.1157 40.2615 31.5921C40.2188 32.0695 40.2094 32.5955 40.2 33.1286L40.2 33.1296C40.1906 34.0034 40.1763 34.927 40.0014 35.797C39.8269 36.6648 39.4945 37.4683 38.8564 38.1064C38.2183 38.7445 37.4148 39.0769 36.547 39.2514C35.677 39.4263 34.7534 39.4406 33.8796 39.45L33.8786 39.45C33.8183 39.4511 33.7581 39.4521 33.6982 39.4531C32.7101 39.4694 31.7881 39.4846 31.0681 39.78C30.6818 39.9384 30.2884 40.2121 29.9 40.5318C29.5132 40.8502 29.1227 41.2217 28.7416 41.5842L28.7341 41.5913L28.7331 41.5923C28.1132 42.1935 27.457 42.8213 26.7344 43.2999C26.0133 43.7776 25.2358 44.1 24.375 44.1C23.5142 44.1 22.7367 43.7776 22.0156 43.2999C21.293 42.8213 20.6368 42.1935 20.0169 41.5923L20.0159 41.5913C19.6312 41.2254 19.2245 40.847 18.8283 40.5243C18.4339 40.2031 18.0407 39.9294 17.6827 39.7803C17.3241 39.6309 16.8843 39.5542 16.4079 39.5115C15.9305 39.4688 15.4045 39.4594 14.8714 39.45L14.8704 39.45C13.9966 39.4406 13.073 39.4263 12.203 39.2514C11.3352 39.0769 10.5317 38.7445 9.89357 38.1064C9.25548 37.4683 8.92309 36.6648 8.74862 35.797C8.57371 34.927 8.55939 34.0034 8.54999 33.1296L8.54998 33.1286C8.54892 33.0683 8.54793 33.0081 8.54694 32.9482C8.53064 31.9601 8.51543 31.0381 8.22003 30.3181C8.06155 29.9318 7.78792 29.5384 7.46815 29.15C7.14977 28.7632 6.77831 28.3727 6.41579 27.9916L6.40869 27.9841L6.40769 27.9831C5.80654 27.3632 5.17873 26.707 4.70005 25.9844C4.22243 25.2633 3.9 24.4858 3.9 23.625C3.9 22.7642 4.22243 21.9867 4.70005 21.2656C5.17873 20.543 5.80654 19.8868 6.40769 19.2669L6.40868 19.2659C6.77457 18.8812 7.15301 18.4745 7.47569 18.0783C7.79689 17.6839 8.07056 17.2907 8.21971 16.9327C8.36912 16.5741 8.4458 16.1343 8.48846 15.6579C8.53122 15.1805 8.54062 14.6545 8.54998 14.1214L8.54999 14.1204C8.55939 13.2466 8.57371 12.323 8.74862 11.453C8.92309 10.5852 9.25548 9.78166 9.89357 9.14357C10.5317 8.50548 11.3352 8.17309 12.203 7.99862C13.073 7.82371 13.9966 7.80939 14.8704 7.79999L14.8714 7.79998C14.9317 7.79892 14.9919 7.79793 15.0518 7.79694C16.0399 7.78064 16.9619 7.76543 17.6819 7.47003C18.0682 7.31155 18.4616 7.03792 18.85 6.71815C19.2368 6.39977 19.6273 6.02831 20.0084 5.66579L20.0159 5.65869L20.0169 5.65769C20.6368 5.05654 21.293 4.42873 22.0156 3.95005C22.7367 3.47243 23.5142 3.15 24.375 3.15C25.2358 3.15 26.0133 3.47243 26.7344 3.95005C27.457 4.42873 28.1132 5.05654 28.7331 5.65769L28.7341 5.65868C29.1188 6.02457 29.5255 6.40301 29.9217 6.72569C30.3161 7.04689 30.7093 7.32056 31.0673 7.46971C31.4259 7.61912 31.8657 7.6958 32.3421 7.73846C32.8195 7.78122 33.3455 7.79062 33.8786 7.79998L33.8796 7.79999C34.7534 7.80939 35.677 7.82371 36.547 7.99862C37.4148 8.17309 38.2183 8.50548 38.8564 9.14357C39.4945 9.78166 39.8269 10.5852 40.0014 11.453C40.1763 12.323 40.1906 13.2466 40.2 14.1204L40.2 14.1214C40.2011 14.1817 40.2021 14.2419 40.2031 14.3018C40.2194 15.2899 40.2346 16.2119 40.53 16.9319C40.6884 17.3182 40.9621 17.7116 41.2818 18.1C41.6002 18.4868 41.9717 18.8773 42.3342 19.2584L42.3413 19.2659ZM40.9458 26.6351L40.9466 26.6342C40.9683 26.6112 40.99 26.5882 41.0118 26.5651C41.458 26.0924 41.9156 25.6076 42.2661 25.1319C42.6311 24.6365 42.9 24.1253 42.9 23.625C42.9 23.1238 42.6161 22.5934 42.245 22.0899C41.8702 21.5815 41.3852 21.073 40.9458 20.6149C40.0612 19.6927 39.1632 18.7182 38.7257 17.6793C38.2891 16.6422 38.2688 15.5476 38.25 14.1542L38.2498 14.1434C38.2405 13.4556 38.2309 12.7411 38.1358 12.1112C38.0407 11.4809 37.8564 10.9068 37.4748 10.5252C37.0917 10.1421 36.4777 9.9587 35.8319 9.86408C35.1922 9.77035 34.4881 9.75972 33.8791 9.75052L33.846 9.75002C33.8027 9.74936 33.7594 9.74872 33.7162 9.74809C32.5182 9.73049 31.3754 9.7137 30.3202 9.27404C29.2734 8.83787 28.4579 8.06753 27.514 7.17595C27.471 7.13534 27.4277 7.09448 27.3842 7.05339C27.3612 7.0317 27.3382 7.00997 27.3151 6.9882C26.8423 6.54197 26.3576 6.08437 25.8819 5.73393C25.3865 5.36889 24.8753 5.1 24.375 5.1C23.8738 5.1 23.3434 5.38394 22.8399 5.75504C22.3315 6.12975 21.823 6.61483 21.3649 7.05425C20.4427 7.93883 19.4682 8.8368 18.4293 9.27426C17.3922 9.71094 16.2976 9.73118 14.9042 9.75001L14.8934 9.75016C14.2056 9.75945 13.4911 9.7691 12.8612 9.86418C12.2309 9.95932 11.6568 10.1436 11.2752 10.5252C10.8921 10.9083 10.7087 11.5223 10.6141 12.1681C10.5204 12.8078 10.5097 13.5119 10.5005 14.1209L10.5 14.154C10.4994 14.1973 10.4987 14.2406 10.4981 14.2838C10.4805 15.4817 10.4637 16.6246 10.024 17.6798C9.58787 18.7266 8.81752 19.5421 7.92594 20.486C7.88533 20.529 7.84448 20.5723 7.80339 20.6158C7.7817 20.6388 7.75997 20.6618 7.7382 20.6849C7.29197 21.1577 6.83437 21.6424 6.48393 22.1181C6.11889 22.6135 5.85 23.1247 5.85 23.625C5.85 24.1262 6.13394 24.6566 6.50504 25.1601C6.87975 25.6685 7.36483 26.177 7.80425 26.6351C8.68883 27.5573 9.5868 28.5318 10.0243 29.5707C10.4609 30.6078 10.4812 31.7024 10.5 33.0958L10.5002 33.1066C10.5095 33.7944 10.5191 34.5089 10.6142 35.1388C10.7093 35.7691 10.8936 36.3432 11.2752 36.7248C11.6583 37.1079 12.2723 37.2913 12.9181 37.3859C13.5578 37.4796 14.262 37.4903 14.8709 37.4995L14.904 37.5C14.9473 37.5006 14.9906 37.5013 15.0337 37.5019C16.2317 37.5195 17.3746 37.5363 18.4298 37.976C19.4766 38.4121 20.2922 39.1825 21.236 40.0741C21.279 40.1147 21.3223 40.1555 21.3658 40.1966C21.3888 40.2183 21.4118 40.24 21.4349 40.2618C21.9076 40.708 22.3924 41.1656 22.8681 41.5161C23.3635 41.8811 23.8747 42.15 24.375 42.15C24.8762 42.15 25.4066 41.8661 25.9101 41.495C26.4185 41.1202 26.927 40.6352 27.3851 40.1958C28.3073 39.3112 29.2818 38.4132 30.3207 37.9757C31.3578 37.5391 32.4524 37.5188 33.8458 37.5L33.8566 37.4998C34.5444 37.4905 35.2589 37.4809 35.8888 37.3858C36.5191 37.2907 37.0932 37.1064 37.4748 36.7248C37.8579 36.3417 38.0413 35.7277 38.1359 35.0819C38.2296 34.4422 38.2403 33.738 38.2495 33.1291L38.25 33.096C38.2506 33.0527 38.2513 33.0094 38.2519 32.9663C38.2695 31.7683 38.2863 30.6254 38.726 29.5702C39.182 28.4758 40.0601 27.5585 40.9458 26.6351Z" fill="#333333" stroke="#F6F7F9" stroke-width="0.3"/>
<path d="M33.3222 18.4591L33.3222 18.4591L33.3237 18.4606C33.4117 18.5517 33.4808 18.6594 33.527 18.7774C33.5731 18.8954 33.5952 19.0214 33.5922 19.1481C33.5892 19.2748 33.5611 19.3996 33.5094 19.5153C33.4577 19.631 33.3836 19.7352 33.2912 19.822L33.2904 19.8229L22.304 30.3218C22.3038 30.322 22.3036 30.3221 22.3035 30.3223C22.1171 30.4965 21.8728 30.5955 21.6178 30.6001C21.3696 30.5996 21.1318 30.5008 20.9563 30.3253L20.9564 30.3253L20.9539 30.3229L15.4601 25.0729L15.46 25.0728C15.275 24.8963 15.1676 24.6536 15.1615 24.398C15.1554 24.1424 15.2511 23.8949 15.4275 23.7098C15.604 23.5248 15.8467 23.4174 16.1023 23.4113C16.3579 23.4052 16.6054 23.5009 16.7905 23.6774L16.7905 23.6774L21.5155 28.1774L21.619 28.276L21.7224 28.1774L31.9599 18.4274L31.9608 18.4267C32.0518 18.3386 32.1595 18.2695 32.2776 18.2234C32.3956 18.1773 32.5216 18.1551 32.6483 18.1581C32.7749 18.1611 32.8997 18.1893 33.0154 18.2409C33.1311 18.2926 33.2354 18.3667 33.3222 18.4591Z" fill="#1C77C3" stroke="#F6F7F9" stroke-width="0.3"/>
</svg>
